<svg width="200" height="227" viewBox="0 0 200 227" fill="none" xmlns="http://www.w3.org/2000/svg">
<path d="M109.677 9.81413C108.049 9.81413 106.569 10.4346 105.448 11.4453C104.33 13.2259 102.354 14.4129 100.096 14.4129C98.1788 14.4129 96.4645 13.5566 95.3052 12.2095C95.2992 12.216 95.2931 12.2219 95.2874 12.2287C94.1296 10.7601 92.3388 9.81413 90.3234 9.81413C86.831 9.81413 84 12.6454 84 16.1376C84 19.63 86.831 22.461 90.3234 22.461C92.2496 22.461 93.972 21.5966 95.1315 20.238C95.1615 20.2757 95.1875 20.3162 95.218 20.3532C96.3778 18.9488 98.1321 18.0537 100.096 18.0537C102.062 18.0537 103.819 18.9515 104.978 20.3591C106.136 21.6466 107.809 22.461 109.677 22.461C113.169 22.461 116 19.63 116 16.1376C116 12.6454 113.169 9.81413 109.677 9.81413Z" fill="#100F0D"/>
<path d="M95.4013 5.59878C95.4013 3.05883 97.4601 0.999992 100 0.999992C102.54 0.999992 104.599 3.05883 104.599 5.59878C104.599 8.13849 102.54 10.1973 100 10.1973C97.4601 10.1973 95.4013 8.13849 95.4013 5.59878Z" fill="#100F0D"/>
<path d="M95.4013 27.0598C95.4013 24.5198 97.4601 22.461 100 22.461C102.54 22.461 104.599 24.5198 104.599 27.0598C104.599 29.5995 102.54 31.6585 100 31.6585C97.4601 31.6585 95.4013 29.5995 95.4013 27.0598Z" fill="#100F0D"/>
<path d="M158.335 122.069C159.511 121.359 160.582 120.444 161.228 119.242C162.222 117.4 162.071 115.148 161.577 113.113C159.97 106.514 155.052 101.04 149.153 97.6725C143.469 94.4268 136.928 92.9685 130.404 92.3433C129.043 90.6263 127.383 89.2406 125.308 88.4978L121.325 87.6236C117.351 87.0466 113.343 86.7343 109.328 86.6887C106.597 91.0458 104.91 96.034 103.808 101.075C103.146 104.105 102.677 107.214 102.952 110.303C103.226 113.392 104.294 116.485 106.39 118.772C109.112 121.745 113.33 123.058 117.366 122.888C121.401 122.717 125.259 121.185 128.773 119.207C129.269 118.929 129.829 118.629 130.38 118.772C130.815 118.884 131.131 119.244 131.429 119.579C133.095 121.435 135.05 123.009 137.218 124.24C137.565 122.764 137.799 121.264 137.918 119.752C138.659 120.273 139.42 120.767 140.211 121.22C145.715 124.366 152.92 125.367 158.335 122.069Z" fill="#96AF9C"/>
<path d="M72.364 104.264C73.9614 100.503 75.7783 96.6455 78.636 93.7937C71.1681 95.2766 64.1617 98.5201 58.1991 103.255C55.1297 105.699 52.2818 108.654 50.9882 112.357C50.6766 113.249 50.461 114.227 50.7413 115.128C51.0216 116.03 51.7213 116.683 52.4759 117.214C56.1999 119.832 61.3272 119.668 65.5177 117.904C66.5532 117.465 67.5537 116.948 68.5106 116.357C69.1966 112.227 70.7215 108.104 72.364 104.264Z" fill="#96AF9C"/>
<path d="M121.519 116.973C122.358 117.688 122.881 118.707 122.971 119.807C123.066 120.939 122.776 122.07 122.148 123.017C120.756 125.173 118.228 126.177 115.77 126.502C112.999 126.869 110.143 126.612 107.426 126.002C106.034 125.686 104.664 125.28 103.324 124.787C102.671 124.548 102.034 124.274 101.386 124.021C101.105 123.894 100.794 123.852 100.49 123.901C100.178 123.999 99.8831 124.147 99.6178 124.338C98.3477 125.097 96.9208 125.538 95.4802 125.846C94.755 126.002 94.02 126.124 93.287 126.238C92.9587 126.302 92.6269 126.347 92.2933 126.373C92.0973 126.373 91.7209 126.388 91.6288 126.157C91.5952 126.051 91.5028 125.973 91.3919 125.958C91.281 125.944 91.1717 125.994 91.1114 126.089C90.835 126.559 90.1431 126.569 89.6649 126.61C89.0375 126.667 88.4074 126.69 87.7774 126.679C86.5081 126.674 85.2503 126.437 84.0671 125.977C82.0836 125.165 80.3137 123.305 80.2236 121.077C80.1628 119.621 80.8645 118.29 81.5956 117.077C81.6638 116.942 81.6156 116.778 81.4856 116.702C81.3556 116.626 81.1889 116.665 81.1056 116.79C80.3784 118.009 79.6944 119.338 79.6611 120.789C79.6579 121.967 80.0369 123.115 80.741 124.06C82.309 126.24 84.9217 127.127 87.5226 127.229C88.3246 127.257 89.1275 127.229 89.9256 127.145C90.5567 127.082 91.2545 126.963 91.6033 126.361L91.0859 126.294C91.2995 126.822 91.8346 126.955 92.3599 126.922C93.0352 126.857 93.7065 126.756 94.3709 126.62C95.7494 126.412 97.1012 126.055 98.4026 125.555C99.0442 125.278 99.6663 124.957 100.265 124.595C100.561 124.41 100.933 124.393 101.245 124.552C101.58 124.685 101.909 124.83 102.246 124.964C103.657 125.525 105.103 125.994 106.576 126.365C109.424 127.078 112.413 127.41 115.343 127.106C117.993 126.829 120.684 125.904 122.348 123.711C123.175 122.657 123.602 121.344 123.555 120.005C123.489 118.697 122.944 117.404 121.923 116.559C121.644 116.328 121.241 116.726 121.531 116.951L121.519 116.973Z" fill="black"/>
<path d="M108.593 109.919C108.156 110.026 107.715 109.664 107.571 109.238C107.428 108.813 107.501 108.347 107.571 107.904C107.717 107.053 107.875 106.169 108.381 105.469C108.659 105.077 109.098 104.754 109.567 104.821C110.221 104.915 110.519 105.675 110.664 106.32C110.95 107.604 111.125 108.91 111.188 110.224C111.252 111.596 111.188 112.99 110.796 114.303C110.655 114.764 110.437 115.252 110.002 115.458C109.522 115.685 108.924 115.469 108.551 115.089C108.179 114.709 107.981 114.197 107.793 113.699C107.538 113.029 107.279 112.327 107.381 111.614C107.483 110.901 108.089 110.215 108.802 110.283" fill="black"/>
<path d="M108.516 109.646C108.175 109.711 107.899 109.372 107.818 109.076C107.707 108.668 107.807 108.225 107.877 107.819C108.005 107.092 108.148 106.338 108.563 105.712C108.742 105.442 109.018 105.152 109.347 105.101C109.633 105.078 109.906 105.226 110.041 105.479C110.433 106.079 110.506 106.906 110.629 107.594C110.907 109.262 111.047 111.01 110.843 112.69C110.792 113.118 110.71 113.542 110.598 113.958C110.526 114.297 110.393 114.621 110.206 114.913C109.745 115.544 108.943 115.197 108.565 114.666C108.339 114.313 108.159 113.933 108.03 113.535C107.844 113.103 107.717 112.648 107.65 112.182C107.581 111.475 107.94 110.507 108.798 110.56C109.163 110.583 109.161 110.017 108.798 109.995C107.958 109.94 107.266 110.679 107.117 111.465C106.921 112.445 107.364 113.478 107.752 114.358C108.099 115.142 108.781 115.926 109.727 115.816C110.674 115.706 110.992 114.717 111.186 113.933C111.693 111.873 111.527 109.65 111.186 107.576C111.049 106.732 110.954 105.691 110.39 105.003C109.825 104.315 108.885 104.462 108.316 105.087C107.597 105.871 107.409 107.028 107.254 108.045C107.174 108.574 107.13 109.164 107.44 109.63C107.69 110.05 108.173 110.271 108.653 110.187C109.01 110.119 108.849 109.574 108.502 109.64L108.516 109.646Z" fill="black"/>
<path d="M90.4842 109.919C90.0471 110.026 89.6061 109.664 89.463 109.238C89.3199 108.813 89.3925 108.347 89.463 107.904C89.6081 107.053 89.7668 106.169 90.2725 105.469C90.5508 105.077 90.9899 104.754 91.4583 104.821C92.1129 104.915 92.4128 105.675 92.5559 106.32C92.8417 107.604 93.0168 108.91 93.0792 110.224C93.1458 111.596 93.0792 112.99 92.6872 114.303C92.548 114.764 92.3305 115.252 91.9032 115.458C91.421 115.685 90.8252 115.469 90.4528 115.089C90.0804 114.709 89.8805 114.197 89.6923 113.699C89.4375 113.029 89.1788 112.327 89.2827 111.614C89.3866 110.901 89.9883 110.215 90.7017 110.283" fill="black"/>
<path d="M90.4077 109.646C90.0667 109.711 89.7903 109.372 89.71 109.076C89.5983 108.668 89.6982 108.225 89.7688 107.819C89.8962 107.092 90.0412 106.338 90.4548 105.712C90.6351 105.442 90.9115 105.152 91.2486 105.101C91.5345 105.078 91.8069 105.226 91.9424 105.479C92.3344 106.079 92.4069 106.906 92.5304 107.594C92.8424 109.274 92.915 110.99 92.746 112.69C92.6939 113.118 92.612 113.542 92.501 113.958C92.4291 114.297 92.2963 114.621 92.109 114.913C91.6484 115.544 90.8468 115.197 90.4705 114.666C90.2438 114.313 90.0633 113.933 89.9334 113.535C89.7486 113.102 89.6208 112.648 89.5532 112.182C89.4846 111.475 89.8452 110.507 90.7017 110.56C91.0663 110.583 91.0643 110.017 90.7017 109.995C89.8629 109.94 89.171 110.679 89.0201 111.465C88.8339 112.445 89.267 113.478 89.6571 114.358C90.002 115.142 90.6841 115.926 91.6308 115.816C92.5775 115.706 92.8969 114.717 93.089 113.933C93.5986 111.873 93.432 109.65 93.089 107.576C92.9538 106.732 92.8577 105.691 92.2933 105.003C91.7288 104.315 90.788 104.462 90.2196 105.087C89.5022 105.871 89.3141 107.028 89.1573 108.045C89.0769 108.574 89.0338 109.164 89.3435 109.63C89.5932 110.05 90.076 110.271 90.5567 110.187C90.9154 110.119 90.7625 109.574 90.4058 109.64L90.4077 109.646Z" fill="black"/>
<path d="M102.475 143.346C100.882 143.241 99.2905 143.097 97.7048 142.935C93.7691 142.543 89.8021 142.014 86.0017 140.957C79.7767 160.075 79.0064 184.34 81.4937 197.209C81.5878 197.697 81.6897 198.222 81.4741 198.673C81.1762 199.314 80.3647 199.581 80.0335 200.206C79.6415 200.959 80.1374 201.939 80.8841 202.352C81.6309 202.766 82.5305 202.764 83.3831 202.744C87.2561 202.653 91.1205 202.391 94.9765 201.96C96.0722 201.839 97.2148 201.686 98.1223 201.059C100.155 199.647 100.071 196.668 99.7668 194.21C97.648 177.147 95.639 159.054 102.475 143.346Z" fill="#96AF9C"/>
<path d="M121.26 141.471C119.671 142.025 118.042 142.459 116.388 142.77C112.722 143.462 108.991 143.611 105.257 143.484C98.9416 162.268 102.217 184.561 104.655 197.203C104.749 197.691 104.851 198.217 104.635 198.667C104.337 199.308 103.524 199.575 103.195 200.2C102.803 200.953 103.299 201.933 104.045 202.346C104.792 202.76 105.692 202.758 106.544 202.738C110.417 202.647 114.282 202.386 118.138 201.954C119.233 201.833 120.376 201.68 121.284 201.053C123.316 199.642 123.232 196.662 122.928 194.204C120.972 178.352 116.503 157.172 121.26 141.471V141.471Z" fill="#96AF9C"/>
<path d="M102.475 143.072C98.1635 142.786 93.8319 142.362 89.5963 141.524C88.4203 141.288 87.2443 141.016 86.0781 140.695C85.928 140.655 85.7738 140.742 85.7292 140.891C84.3103 145.312 83.1751 149.82 82.3306 154.387C81.4682 158.968 80.8488 163.599 80.4412 168.238C80.059 172.627 79.8649 177.033 79.8904 181.437C79.8942 185.253 80.1114 189.065 80.5411 192.856C80.6365 193.667 80.7469 194.478 80.8724 195.288C80.9978 196.1 81.1997 196.911 81.2918 197.727C81.3445 198.018 81.3083 198.318 81.1879 198.589C81.0587 198.799 80.8895 198.981 80.6901 199.126C80.3334 199.42 79.9453 199.694 79.7454 200.126C79.324 201.027 79.8982 202.086 80.6999 202.562C81.7269 203.166 83.0342 203.026 84.173 202.993C85.5777 202.95 86.983 202.885 88.389 202.797C89.7727 202.713 91.1552 202.608 92.5363 202.48C93.8142 202.362 95.1255 202.284 96.3858 202.031C97.4265 201.819 98.4104 201.37 99.0847 200.527C99.6475 199.78 100 198.895 100.106 197.966C100.416 195.81 99.9686 193.605 99.7138 191.47C99.1082 186.455 98.5555 181.429 98.2634 176.378C97.9714 171.38 97.9322 166.355 98.383 161.365C98.8279 156.431 99.7687 151.531 101.403 146.849C101.803 145.706 102.243 144.579 102.722 143.47C102.866 143.141 102.379 142.851 102.234 143.186C100.322 147.663 99.0045 152.372 98.3144 157.192C97.5951 162.017 97.3971 166.908 97.5088 171.782C97.6225 176.78 98.0537 181.766 98.5986 186.735C98.8691 189.187 99.167 191.635 99.4688 194.087C99.6923 195.906 99.9177 198.06 98.9553 199.72C98.4065 200.667 97.4892 201.192 96.4426 201.435C95.1941 201.723 93.875 201.784 92.601 201.901C89.857 202.156 87.1097 202.326 84.3592 202.411C83.2655 202.444 81.8367 202.662 80.8802 201.995C80.4555 201.714 80.1922 201.246 80.1726 200.737C80.1883 200.226 80.598 199.916 80.9566 199.622C81.3153 199.328 81.676 199.001 81.8092 198.526C81.9543 198.011 81.823 197.464 81.7269 196.958C81.5858 196.215 81.4623 195.469 81.3506 194.72C80.8491 191.147 80.5624 187.547 80.4921 183.94C80.3824 179.716 80.4921 175.485 80.7685 171.269C81.0742 166.682 81.5897 162.108 82.3365 157.572C83.0659 153.052 84.0587 148.579 85.3098 144.175C85.6116 143.12 85.9324 142.069 86.2722 141.024L85.9252 141.22C90.0863 142.37 94.3905 142.892 98.679 143.305C99.9412 143.427 101.207 143.535 102.474 143.619C102.838 143.66 102.836 143.086 102.475 143.072Z" fill="black"/>
<path d="M121.184 141.198C117.211 142.57 113.024 143.143 108.836 143.229C107.646 143.254 106.454 143.241 105.265 143.201C105.138 143.204 105.027 143.288 104.99 143.409C103.478 148.022 102.451 152.781 101.927 157.607C101.398 162.383 101.215 167.191 101.378 171.994C101.509 176.435 101.888 180.869 102.448 185.277C102.92 188.989 103.52 192.684 104.212 196.36C104.298 196.815 104.408 197.274 104.465 197.732C104.518 198.024 104.481 198.324 104.361 198.595C104.232 198.805 104.062 198.988 103.861 199.132C103.487 199.444 103.077 199.73 102.891 200.196C102.729 200.62 102.745 201.092 102.936 201.504C103.383 202.546 104.457 202.936 105.517 203.009C106.143 203.052 106.774 203.009 107.397 202.997C108.124 202.975 108.849 202.946 109.575 202.913C112.355 202.782 115.131 202.568 117.903 202.27C119.079 202.141 120.329 202.021 121.346 201.36C122.123 200.836 122.704 200.068 122.997 199.177C123.651 197.305 123.35 195.228 123.105 193.311C122.824 191.123 122.517 188.938 122.207 186.755C121.54 182.068 120.86 177.38 120.341 172.674C119.812 167.888 119.435 163.07 119.43 158.256C119.43 153.687 119.745 149.089 120.737 144.618C120.966 143.586 121.233 142.559 121.538 141.545C121.644 141.194 121.097 141.045 120.994 141.394C119.72 145.61 119.145 150.018 118.947 154.405C118.732 159.109 118.947 163.825 119.361 168.517C119.774 173.209 120.384 177.866 121.039 182.523C121.35 184.753 121.674 186.984 121.985 189.216C122.273 191.27 122.62 193.332 122.769 195.406C122.901 197.209 122.848 199.449 121.317 200.698C120.364 201.468 119.073 201.59 117.901 201.717C116.537 201.865 115.17 201.995 113.802 202.109C112.434 202.223 111.062 202.308 109.686 202.366C108.369 202.427 107.033 202.529 105.713 202.478C104.733 202.44 103.326 202.031 103.332 200.796C103.332 200.29 103.724 199.977 104.091 199.687C104.457 199.397 104.841 199.055 104.976 198.565C105.123 198.036 104.986 197.474 104.884 196.948C104.81 196.556 104.737 196.164 104.663 195.772C104.51 194.945 104.36 194.117 104.214 193.287C103.898 191.432 103.604 189.581 103.332 187.735C102.73 183.522 102.289 179.287 102.058 175.038C101.789 170.376 101.822 165.702 102.156 161.045C102.488 156.254 103.28 151.506 104.52 146.867C104.823 145.756 105.158 144.654 105.525 143.56L105.253 143.768C109.483 143.907 113.757 143.703 117.891 142.741C119.054 142.47 120.203 142.138 121.331 141.745C121.678 141.626 121.531 141.079 121.184 141.198Z" fill="black"/>
<path d="M147.824 64.8778C149.592 60.9186 151.502 57.0287 153.555 53.208C154.129 52.1398 155.162 50.8991 156.299 51.3499C156.946 51.6086 157.258 52.3299 157.432 53.0159C158.031 55.3919 157.752 57.9042 156.648 60.0915C156.468 60.4462 156.23 60.8186 155.848 60.9304C155.466 61.0421 154.968 60.6893 155.103 60.3149C156.524 59.1193 157.985 57.9002 159.731 57.271C161.477 56.6419 163.6 56.7164 165.001 57.9374C166.403 59.1585 166.624 61.6732 165.15 62.8041C164.941 62.9922 164.665 63.087 164.384 63.0668C163.775 62.9648 163.696 61.9966 164.188 61.6124C164.68 61.2283 165.382 61.3145 165.952 61.5517C167.553 62.2156 168.577 63.7991 168.527 65.5314C168.476 67.2637 167.361 68.7848 165.725 69.3544C165.564 68.1784 167.32 67.4866 168.273 68.2039C169.225 68.9213 169.329 70.3364 168.967 71.4654C168.408 73.2039 166.973 74.5504 165.356 75.3991C163.739 76.2478 161.94 76.6652 160.16 77.0749L151.252 79.1172C150.648 79.2564 149.747 79.1819 149.743 78.5606" fill="#96AF9C"/>
<path d="M55.2316 83.684C52.3632 80.4787 49.9132 76.9223 47.9404 73.1C46.9232 71.1224 46.0275 68.9997 46.0157 66.7751C46.004 64.5505 47.0565 62.1946 49.0635 61.2361C51.1313 60.2561 53.7205 60.9911 55.4061 62.5434C57.0917 64.0958 58.0148 66.3066 58.6205 68.5175C58.7479 68.984 58.8616 69.4975 58.6832 69.9405C58.5048 70.3834 57.9129 70.701 57.5209 70.4187C57.3446 70.2661 57.224 70.0593 57.1779 69.8307C56.4351 67.2376 58.4813 64.7524 60.3708 62.8276C62.0858 61.0813 64.3652 59.184 66.6898 59.9484C67.7992 60.313 68.638 61.242 69.2535 62.2357C71.2742 65.503 71.3468 69.6974 70.2335 73.3744C69.1202 77.0514 66.923 80.2971 64.6004 83.3567C63.591 84.6895 62.4444 86.0713 60.8451 86.5534C59.2457 87.0356 57.1309 86.1183 57.0192 84.4484" fill="#96AF9C"/>
<path d="M72.5992 104.401C73.836 101.489 75.1688 98.58 77.068 96.032C77.6062 95.3122 78.1957 94.6323 78.832 93.9975C78.9191 93.9052 78.935 93.7667 78.8711 93.657C78.8073 93.5474 78.6788 93.4929 78.5556 93.5232C73.9822 94.4348 69.5648 96.0041 65.4413 98.1821C63.38 99.27 61.4016 100.508 59.5221 101.887C57.6837 103.198 55.977 104.685 54.4261 106.326C52.9482 107.937 51.6821 109.758 50.8844 111.8C50.461 112.882 50.0886 114.133 50.4924 115.277C50.8412 116.296 51.684 117.041 52.5543 117.612C56.1489 120.003 60.9019 119.915 64.8376 118.476C65.9701 118.056 67.064 117.539 68.1069 116.93C68.3205 116.806 68.6949 116.679 68.7831 116.436C68.8227 116.287 68.8496 116.134 68.8634 115.981C68.8974 115.799 68.9327 115.617 68.9693 115.434C69.0947 114.811 69.2378 114.189 69.3926 113.572C70.0557 111.057 70.8859 108.589 71.8779 106.185C72.117 105.592 72.362 105 72.6129 104.409C72.754 104.078 72.266 103.788 72.1249 104.123C70.8274 107.179 69.6357 110.289 68.8242 113.513C68.5949 114.429 68.397 115.354 68.2362 116.285L68.3656 116.116C65.2551 118.013 61.6918 119.199 58.0109 118.874C56.3096 118.74 54.6616 118.219 53.1932 117.349C52.4582 116.902 51.7134 116.369 51.2646 115.61C50.755 114.758 50.8491 113.772 51.1215 112.866C52.1427 109.429 54.6789 106.61 57.3504 104.327C60.2176 101.896 63.3711 99.8257 66.7408 98.1606C70.1151 96.4799 73.6772 95.2061 77.3522 94.366C77.803 94.2641 78.2558 94.168 78.7105 94.0779L78.4341 93.6036C76.1703 95.8752 74.5788 98.6996 73.2401 101.594C72.8481 102.433 72.4836 103.28 72.1229 104.131C71.972 104.446 72.4561 104.736 72.5992 104.401Z" fill="black"/>
<path d="M161.85 113.039C160.268 106.634 155.684 101.34 150.145 97.9312C146.897 95.934 143.285 94.5463 139.61 93.6036C137.736 93.1299 135.839 92.7556 133.926 92.4824C132.973 92.3439 132.017 92.225 131.058 92.1257C130.869 92.1326 130.68 92.0985 130.505 92.0258C130.36 91.8901 130.232 91.7374 130.123 91.571C129.833 91.2378 129.535 90.9164 129.208 90.6146C128.138 89.6052 126.783 88.6173 125.349 88.2175C124.549 87.996 123.714 87.8588 122.905 87.6824C120 87.0454 117.025 86.771 114.065 86.5809C105.747 86.0373 97.3941 86.652 89.2455 88.4076C85.7175 89.1779 82.1895 90.3225 79.3867 92.6902C76.776 94.8991 74.9767 97.9018 73.5185 100.954C71.891 104.309 70.5152 107.782 69.4025 111.342C68.297 114.96 67.5679 118.78 67.8717 122.576C68.1318 126.075 69.3948 129.425 71.5095 132.225C73.4989 134.834 76.1174 136.929 78.9888 138.497C82.3208 140.312 85.9958 141.406 89.7061 142.119C93.6575 142.882 97.6931 143.295 101.705 143.582C109.379 144.146 117.35 143.846 124.414 140.483C127.481 139.023 130.315 136.998 132.522 134.407C134.855 131.663 136.442 128.354 137.34 124.879C137.772 123.197 138.058 121.48 138.195 119.748L137.769 119.991C141.364 122.516 145.535 124.219 149.964 124.383C152.055 124.48 154.144 124.165 156.113 123.456C157.996 122.757 159.896 121.663 161.087 120.005C162.542 117.982 162.401 115.354 161.85 113.043C161.765 112.688 161.219 112.847 161.303 113.194C161.787 115.218 161.965 117.506 160.84 119.356C159.798 121.071 157.861 122.192 156.031 122.884C152.291 124.299 148.096 124.017 144.355 122.768C142.108 121.991 139.986 120.891 138.055 119.503C137.859 119.37 137.646 119.554 137.628 119.748C137.338 123.319 136.442 126.865 134.776 130.05C133.175 133.103 130.869 135.73 128.05 137.713C122.034 141.965 114.575 143.274 107.344 143.248C103.332 143.233 99.3199 142.868 95.3391 142.398C91.4936 141.945 87.6442 141.294 83.9711 140.046C77.6991 137.909 71.6819 133.65 69.4123 127.188C66.8799 119.981 69.4005 112.139 72.1837 105.401C73.4753 102.265 74.8473 99.1131 76.8289 96.3515C77.788 94.9883 78.9371 93.7693 80.2413 92.7314C81.6976 91.6286 83.3198 90.764 85.0472 90.1696C88.6712 88.8682 92.5873 88.2528 96.3897 87.751C104.468 86.6846 112.652 86.711 120.723 87.8294C121.497 87.9372 122.256 88.1254 123.02 88.2939C123.749 88.4527 124.506 88.5722 125.223 88.7761C126.74 89.2073 128.151 90.3225 129.228 91.4338C129.502 91.718 129.765 92.0218 130.012 92.3178C130.127 92.4589 130.19 92.5765 130.362 92.6275C130.592 92.6718 130.825 92.6954 131.058 92.698C132.021 92.7973 132.982 92.9182 133.939 93.0606C137.663 93.6134 141.358 94.4993 144.855 95.9144C151.04 98.4193 156.638 102.774 159.682 108.821C160.384 110.214 160.926 111.683 161.299 113.198C161.391 113.543 161.936 113.394 161.85 113.039Z" fill="black"/>
<path d="M103.991 121.202L101.844 112.382C101.599 111.375 101.337 110.33 100.68 109.527C99.5276 108.115 97.5029 107.827 95.6801 107.821C92.4324 107.81 89.2074 108.362 86.1487 109.454C85.3157 109.752 84.4121 110.171 84.0946 110.999C83.8751 111.565 83.9848 112.2 84.0946 112.796C85.6552 120.781 87.6901 128.665 90.1882 136.408C90.5077 137.4 90.8703 138.442 91.6798 139.099C92.3305 139.626 93.1811 139.828 94.0043 139.981C96.6831 140.475 99.4149 140.618 102.13 140.404C103.408 140.303 104.749 140.095 105.756 139.299C107.017 138.301 107.483 136.555 107.324 134.95C107.166 133.345 106.501 131.847 105.837 130.383" fill="#96AF9C"/>
<path d="M104.265 121.12C103.53 118.1 102.807 115.075 102.06 112.057C101.756 110.834 101.347 109.589 100.329 108.772C99.4316 108.053 98.3026 107.745 97.1776 107.612C95.8489 107.483 94.5105 107.49 93.1831 107.631C91.715 107.759 90.2589 108 88.828 108.353C88.1093 108.529 87.3985 108.734 86.6955 108.968C86.0987 109.142 85.5214 109.377 84.9727 109.67C84.4815 109.929 84.089 110.342 83.8555 110.846C83.5948 111.479 83.7026 112.169 83.828 112.817C84.9805 118.788 86.4231 124.707 88.1126 130.546C88.5268 131.983 88.9574 133.412 89.4042 134.834C89.6198 135.526 89.8315 136.222 90.0667 136.906C90.2472 137.491 90.5063 138.049 90.837 138.564C91.1851 139.075 91.6663 139.482 92.2286 139.74C92.8354 139.995 93.4724 140.172 94.1239 140.265C95.6132 140.532 97.1197 140.692 98.6319 140.744C100.071 140.806 101.513 140.753 102.944 140.585C104.181 140.426 105.447 140.069 106.335 139.142C108.165 137.233 107.781 134.346 106.909 132.098C106.662 131.461 106.382 130.84 106.101 130.218C105.951 129.887 105.463 130.173 105.611 130.503C106.605 132.698 107.742 135.308 106.64 137.686C106.158 138.731 105.231 139.504 104.116 139.791C102.842 140.163 101.45 140.183 100.131 140.208C98.712 140.228 97.293 140.151 95.884 139.979C95.1745 139.893 94.465 139.783 93.7633 139.64C93.1728 139.543 92.605 139.339 92.0875 139.038C91.0487 138.372 90.7018 137.078 90.349 135.965C89.9112 134.602 89.4892 133.236 89.0828 131.867C87.4442 126.355 86.0396 120.782 84.8688 115.146C84.7198 114.431 84.5748 113.712 84.4337 112.99C84.3102 112.365 84.1142 111.645 84.3847 111.03C84.5964 110.548 85.0511 110.246 85.5058 110.013C86.0798 109.75 86.6736 109.532 87.2816 109.362C89.9562 108.524 92.7421 108.095 95.5449 108.09C96.6543 108.09 97.7891 108.168 98.8358 108.562C99.8994 108.954 100.735 109.797 101.119 110.863C101.333 111.473 101.508 112.096 101.644 112.727L102.156 114.824L103.218 119.189L103.724 121.277C103.81 121.632 104.357 121.473 104.271 121.126L104.265 121.12Z" fill="black"/>
<path d="M69.8023 128.872C64.3045 133.105 57.0956 134.456 50.5943 131.559C42.8307 128.1 36.5117 116.208 38.8343 108.039C40.1612 103.38 43.5226 99.023 42.6308 94.2131C42.6017 94.0467 42.5404 93.8876 42.4505 93.7447C41.9899 93.0548 41.1118 93.386 40.5218 93.7976C39.7846 94.3174 39.1247 94.939 38.5618 95.6439C38.4549 95.394 38.3173 95.1583 38.1522 94.9422C36.1694 92.1709 33.877 89.6346 31.3196 87.3825C30.8753 86.9804 30.2467 86.8534 29.6811 87.0513C29.0362 87.2884 28.9637 87.8353 28.9598 88.3331C28.9559 89.7571 29.383 91.1489 30.1848 92.3256C29.0868 91.4387 27.7606 90.8802 26.3589 90.7145C25.8754 90.6639 25.3972 90.8488 25.0736 91.2116C24.7501 91.5744 24.6208 92.0706 24.7262 92.5452C24.9622 93.5867 25.5131 94.5304 26.304 95.248C25.5316 94.9634 24.7094 94.8387 23.8873 94.8815C23.1719 94.9207 22.4114 95.1069 22.1233 95.9869C21.9427 96.5901 22.0275 97.2416 22.3566 97.7784C23.0582 98.9877 24.4106 99.5933 25.1986 100.709C25.961 101.789 26.0904 103.196 26.7136 104.362C27.5976 106.014 29.4047 107.059 30.1456 108.78C30.6924 110.05 30.5768 111.489 30.5533 112.87C30.369 124.356 38.2149 135.528 49.0812 139.25C57.5621 142.157 67.3738 140.348 74.5612 135.046C72.571 133.333 70.9517 131.232 69.8023 128.872Z" fill="black"/>
<path d="M69.6592 128.627C65.7745 131.604 60.8921 133.231 55.9843 132.723C53.6795 132.496 51.4477 131.79 49.432 130.65C47.7567 129.655 46.2464 128.406 44.9554 126.947C42.1374 123.834 40.143 120.066 39.1538 115.985C38.6836 114.101 38.5325 112.151 38.7069 110.217C38.9382 107.972 39.8554 105.879 40.7492 103.831C41.7292 101.571 42.7837 99.268 43.0208 96.7748C43.0787 96.1732 43.0787 95.5674 43.0208 94.9658C42.966 94.3954 42.9287 93.7172 42.4603 93.3174C41.5763 92.5628 40.3631 93.5016 39.6771 94.0759C39.1942 94.4831 38.7518 94.936 38.356 95.4283L38.8284 95.5538C38.5716 94.9344 38.1208 94.4013 37.719 93.8701C37.3172 93.339 36.8821 92.7823 36.445 92.2551C35.5709 91.1967 34.6503 90.1814 33.6834 89.2092C33.2052 88.7271 32.7165 88.2573 32.2173 87.8C31.7606 87.3806 31.3098 86.8827 30.6885 86.722C30.1377 86.563 29.5439 86.687 29.1029 87.0532C28.752 87.3786 28.6756 87.8608 28.6697 88.3174C28.6683 89.7913 29.1087 91.2318 29.9339 92.453L30.3788 92.11C29.7598 91.6112 29.0703 91.2069 28.3326 90.9105C27.9661 90.7642 27.5886 90.6469 27.2036 90.5597C26.8448 90.4607 26.4744 90.41 26.1021 90.4088C25.4664 90.4425 24.8963 90.8111 24.6047 91.377C24.2832 92.014 24.4185 92.6863 24.6615 93.3252C24.9713 94.1377 25.4666 94.8666 26.108 95.4538L26.3824 94.9795C25.5749 94.6881 24.7172 94.5614 23.8599 94.6071C23.2934 94.6404 22.7054 94.7678 22.2919 95.1814C21.7823 95.689 21.6588 96.4769 21.8117 97.157C21.9704 97.8685 22.4408 98.4683 22.9583 98.9622C23.4757 99.4561 24.0108 99.8364 24.493 100.32C25.0079 100.857 25.3922 101.505 25.616 102.214C25.865 102.933 26.057 103.672 26.4 104.358C26.724 104.972 27.1331 105.537 27.6152 106.036C28.56 107.071 29.685 108.023 30.0809 109.421C30.4984 110.901 30.2436 112.5 30.2887 114.017C30.3742 116.696 30.8639 119.347 31.741 121.88C33.4995 126.967 36.6267 131.47 40.7786 134.895C42.8357 136.59 45.1322 137.971 47.5935 138.993C50.2781 140.087 53.1268 140.724 56.0215 140.877C58.9815 141.036 61.9483 140.735 64.816 139.985C67.6742 139.246 70.4036 138.076 72.9108 136.518C73.5263 136.136 74.126 135.734 74.7101 135.297C74.7849 135.252 74.835 135.175 74.8461 135.088C74.8572 135.001 74.828 134.914 74.767 134.852C72.8025 133.148 71.2025 131.066 70.063 128.729C69.9062 128.399 69.4181 128.686 69.573 129.015C70.7335 131.395 72.3621 133.516 74.3612 135.252L74.4181 134.807C69.748 138.234 64.148 140.164 58.3578 140.342C55.4771 140.435 52.6009 140.051 49.8456 139.205C47.3476 138.42 44.9855 137.256 42.8425 135.751C40.7051 134.255 38.7867 132.468 37.1428 130.442C35.5022 128.425 34.142 126.196 33.0993 123.815C32.0411 121.432 31.3365 118.907 31.008 116.32C30.8548 114.993 30.7985 113.657 30.8394 112.322C30.8767 110.799 30.8532 109.25 29.9947 107.929C29.2636 106.808 28.1797 105.985 27.3879 104.913C26.9693 104.321 26.6508 103.665 26.4451 102.97C26.2501 102.268 25.9876 101.586 25.6611 100.934C24.9771 99.7109 23.6717 99.0974 22.8368 98.0096C22.3879 97.4216 22.1116 96.6259 22.4448 95.9183C22.6996 95.3793 23.2621 95.2108 23.8168 95.1735C24.6334 95.1263 25.4511 95.2463 26.2197 95.5263C26.3436 95.5592 26.4743 95.5057 26.5395 95.3953C26.6047 95.2849 26.5886 95.1447 26.5 95.052C25.8927 94.4986 25.4326 93.8028 25.1613 93.0273C24.9359 92.3688 24.8673 91.6279 25.522 91.1869C25.7975 91.0127 26.1279 90.947 26.449 91.0026C26.8875 91.0612 27.3194 91.1616 27.7387 91.3025C28.5553 91.5708 29.3174 91.983 29.9888 92.5197C30.2181 92.7039 30.6278 92.4687 30.4337 92.1767C29.7613 91.1945 29.3561 90.0544 29.2577 88.8682C29.2303 88.4762 29.1656 87.9411 29.393 87.5962C29.6615 87.1904 30.2808 87.1669 30.6944 87.3237C30.9459 87.4389 31.1738 87.5997 31.3667 87.798C31.6019 88.0078 31.8332 88.2194 32.0644 88.435C32.5139 88.8545 32.9543 89.2824 33.3855 89.7188C34.2283 90.5708 35.0351 91.456 35.8061 92.3746C36.2569 92.9104 36.6946 93.4572 37.1193 94.0152C37.3283 94.2896 37.5355 94.5672 37.7406 94.8482C37.9549 95.1147 38.1384 95.4047 38.2874 95.7125C38.36 95.885 38.6108 96.0242 38.7598 95.838C39.1746 95.3222 39.6409 94.85 40.1514 94.4287C40.5434 94.0994 41.0197 93.7192 41.5489 93.6447C42.2329 93.535 42.3623 94.1935 42.4309 94.7286C42.5038 95.3137 42.5196 95.9045 42.4779 96.4926C42.3113 98.9877 41.2294 101.326 40.2416 103.586C39.3419 105.65 38.4344 107.739 38.1659 109.993C37.9631 111.921 38.083 113.869 38.5207 115.757C39.4524 119.837 41.3643 123.629 44.091 126.804C45.3583 128.317 46.8393 129.638 48.4873 130.724C50.3653 131.915 52.4613 132.72 54.6534 133.094C59.4437 133.942 64.3966 132.77 68.4636 130.154C68.9732 129.826 69.4652 129.477 69.9454 129.109C70.2296 128.897 69.9493 128.405 69.6592 128.627Z" fill="black"/>
<path d="M55.4316 83.488C53.2156 81.0064 51.2463 78.315 49.5516 75.452C48.683 74.0233 47.9161 72.5352 47.2564 70.9989C46.641 69.4995 46.1941 67.8786 46.3078 66.2439C46.3818 64.9102 46.8812 63.6353 47.7327 62.6062C48.6279 61.5708 49.9505 61.006 51.3175 61.0754C52.7276 61.1579 54.0674 61.7186 55.116 62.665C56.241 63.6685 57.0388 64.9934 57.6032 66.3772C57.8835 67.074 58.1224 67.7867 58.3186 68.5116C58.4284 68.9036 58.5578 69.3368 58.4441 69.7406C58.3735 69.9954 58.1207 70.2658 57.8306 70.2384C57.4974 70.207 57.4229 69.7072 57.37 69.4544C57.3015 69.1073 57.2817 68.7524 57.3112 68.3999C57.3839 67.6854 57.6013 66.9932 57.9502 66.3654C58.6734 64.9934 59.7553 63.8292 60.849 62.7453C61.9172 61.6928 63.1481 60.6011 64.6279 60.1973C67.8501 59.3153 69.7062 63.0256 70.3119 65.5912C71.0312 68.6175 70.5745 71.8084 69.4671 74.6817C68.2911 77.7138 66.4409 80.4324 64.4946 83.0117C63.6244 84.1681 62.6875 85.3931 61.3586 86.0458C60.2963 86.5691 58.9537 86.526 58.0109 85.7557C57.6016 85.4383 57.3396 84.9675 57.2857 84.4523C57.2563 84.0936 56.6977 84.0897 56.7193 84.4523C56.8251 85.7616 57.9462 86.6495 59.1752 86.8906C60.6354 87.1806 61.978 86.524 63.0422 85.5578C63.6267 85.0034 64.1612 84.3987 64.6396 83.7506C65.1767 83.0529 65.6993 82.346 66.2076 81.6299C67.2423 80.1967 68.1712 78.6901 68.9869 77.1219C70.5236 74.1035 71.4761 70.7402 71.1625 67.3317C71.0322 65.6964 70.5743 64.104 69.816 62.6493C69.083 61.2773 67.9814 59.9053 66.384 59.5721C64.7866 59.2389 63.2186 60.0307 61.9701 60.995C60.6468 62.0355 59.4613 63.2401 58.4421 64.5799C57.4876 65.8245 56.6487 67.3356 56.7448 68.9566C56.784 69.5994 56.9212 70.6382 57.6954 70.7872C58.4696 70.9362 59.0125 70.211 59.0556 69.5269C59.0557 69.0904 58.9822 68.6571 58.838 68.2451C58.7257 67.8452 58.6022 67.4493 58.4676 67.0573C58.2007 66.2732 57.869 65.5127 57.4758 64.7837C56.7134 63.3941 55.6491 62.1377 54.2516 61.3596C52.9404 60.6285 51.3626 60.2894 49.8828 60.6442C48.4559 60.9852 47.3015 61.9907 46.6037 63.2608C44.9024 66.3596 46.0255 69.8974 47.4936 72.8413C49.1095 76.0544 51.0664 79.0843 53.3304 81.8788C53.8818 82.5622 54.4489 83.2312 55.0317 83.8859C55.2748 84.1583 55.6726 83.7565 55.4237 83.4939L55.4316 83.488Z" fill="black"/>
<path d="M141.621 79.5504L139.247 74.3877C138.361 72.461 137.471 70.2031 138.412 68.3C139 67.0985 140.211 66.34 141.374 65.6638C142.273 65.1444 143.204 64.6367 144.225 64.4486C145.247 64.2604 146.391 64.4486 147.138 65.1698C147.71 65.7206 147.981 66.5066 148.222 67.2631C149.087 70.0025 149.777 72.7939 150.29 75.6206C150.629 77.4884 150.833 79.5994 149.684 81.1086C148.535 82.6178 146.454 82.9843 144.568 83.049C143.543 83.0823 142.179 82.751 142.16 81.726" fill="black"/>
<path d="M141.864 79.4073L139.614 74.5073C138.957 73.0765 138.242 71.532 138.296 69.9209C138.32 69.1806 138.567 68.4646 139.004 67.8668C139.443 67.3218 139.974 66.8576 140.572 66.4948C141.197 66.0842 141.845 65.7093 142.512 65.3717C143.19 64.9947 143.937 64.7569 144.708 64.672C145.389 64.6084 146.073 64.7717 146.652 65.1365C147.263 65.5481 147.579 66.2478 147.812 66.9201C148.371 68.5489 148.814 70.2266 149.218 71.8985C149.634 73.5053 149.957 75.1348 150.186 76.7789C150.352 78.1509 150.354 79.664 149.531 80.842C148.765 81.9396 147.43 82.41 146.164 82.6197C145.529 82.7329 144.884 82.7808 144.239 82.7628C143.733 82.7432 143.138 82.6452 142.738 82.3081C142.558 82.165 142.449 81.95 142.442 81.7201C142.426 81.3575 141.854 81.3555 141.875 81.7201C141.936 83.0607 143.571 83.3626 144.639 83.3234C146.07 83.2685 147.601 83.0568 148.826 82.265C151.787 80.352 150.768 76.3438 150.16 73.4959C149.768 71.6431 149.297 69.8098 148.745 67.9962C148.506 67.2024 148.29 66.3596 147.865 65.6442C147.482 64.9898 146.869 64.501 146.146 64.2722C144.523 63.7528 142.891 64.4682 141.493 65.2698C140.192 66.0068 138.749 66.8515 138.114 68.2725C137.393 69.864 137.812 71.6378 138.424 73.1921C139.116 74.9463 139.974 76.6437 140.762 78.3587L141.376 79.6934C141.528 80.0227 142.017 79.7366 141.864 79.4073Z" fill="black"/>
<path d="M148.069 65.0209C148.984 62.9681 149.938 60.9349 150.933 58.9214C151.423 57.9283 151.921 56.9391 152.428 55.9539C152.92 55.0014 153.392 54.0253 153.939 53.1021C154.316 52.469 154.931 51.589 155.746 51.5341C156.666 51.4773 157.018 52.5337 157.191 53.2491C157.644 55.1902 157.502 57.2229 156.783 59.0821C156.633 59.5396 156.417 59.9728 156.142 60.3678C156.041 60.5237 155.88 60.6303 155.697 60.6618C155.588 60.6618 155.352 60.5795 155.36 60.4364C155.36 60.4482 155.343 60.4502 155.429 60.4012C155.475 60.3689 155.518 60.3329 155.558 60.2934L155.819 60.0758C156.015 59.9131 156.211 59.7504 156.407 59.5917C156.799 59.2722 157.216 58.9625 157.642 58.6764C159.165 57.6474 160.985 56.8947 162.855 57.2397C163.698 57.374 164.472 57.7817 165.06 58.4C165.534 58.9427 165.816 59.6257 165.864 60.3443C165.934 61.0359 165.733 61.7278 165.301 62.273C165.105 62.5003 164.623 62.9825 164.3 62.7355C164.104 62.5885 164.114 62.2514 164.196 62.0495C164.343 61.6908 164.784 61.6124 165.139 61.6379C165.58 61.6894 166.003 61.846 166.371 62.0946C167.08 62.5493 167.628 63.2141 167.939 63.9958C168.562 65.6016 168.059 67.4253 166.703 68.4862C166.38 68.7427 166.018 68.9446 165.631 69.084L165.987 69.3564C165.917 68.7312 166.462 68.3313 167.026 68.2235C167.718 68.0922 168.29 68.4607 168.594 69.0742C169.353 70.5853 168.398 72.4356 167.353 73.541C166.021 74.9502 164.206 75.7146 162.371 76.2321C160.27 76.8201 158.116 77.2493 155.989 77.7374L152.348 78.5743C151.838 78.6919 151.305 78.8781 150.78 78.8938C150.544 78.8938 150.031 78.8938 150.013 78.5625C149.996 78.1999 149.425 78.198 149.447 78.5625C149.494 79.4641 150.578 79.5425 151.262 79.4034C152.483 79.1623 153.696 78.8448 154.909 78.5664C157.344 78.0078 159.809 77.51 162.218 76.8612C164.284 76.3046 166.356 75.4677 167.832 73.8585C169.025 72.5532 169.964 70.4775 169.068 68.7625C168.667 67.9315 167.746 67.4864 166.846 67.6884C166.062 67.8531 165.323 68.5018 165.421 69.3603C165.438 69.5289 165.587 69.7033 165.778 69.6347C167.638 68.9664 168.97 67.0318 168.769 65.0366C168.663 64.0385 168.237 63.1013 167.555 62.3651C166.905 61.6595 165.899 61.0205 164.903 61.0734C164.434 61.0691 163.993 61.2992 163.727 61.6869C163.537 62.0152 163.504 62.4111 163.635 62.7669C163.774 63.1681 164.177 63.4147 164.598 63.3549C165.078 63.2922 165.489 62.9296 165.774 62.5709C166.842 61.1989 166.501 59.0605 165.307 57.8826C163.82 56.4145 161.409 56.3557 159.549 57.0476C158.48 57.469 157.478 58.0441 156.575 58.7548C156.105 59.1115 155.65 59.4839 155.203 59.8641C155.007 60.0288 154.78 60.162 154.774 60.4521C154.776 60.678 154.881 60.8906 155.058 61.0303C155.408 61.3222 155.915 61.3263 156.27 61.0401C156.691 60.7265 156.916 60.1934 157.12 59.723C157.586 58.6543 157.871 57.5158 157.963 56.3538C158.061 55.1929 157.957 54.0239 157.657 52.8983C157.414 52.0006 156.873 51.0265 155.821 50.9971C154.829 50.9716 154.057 51.8673 153.567 52.6239C153.245 53.1198 152.979 53.6588 152.71 54.1801C152.401 54.7681 152.094 55.3561 151.789 55.9441C150.59 58.2791 149.441 60.6403 148.343 63.0276C148.082 63.6025 147.821 64.1787 147.559 64.7563C147.412 65.0856 147.9 65.3737 148.049 65.0424L148.069 65.0209Z" fill="black"/>
<path d="M110.49 51.54C106.309 51.2429 102.108 51.4588 97.9792 52.1829C96.1525 52.5043 94.3062 52.9042 92.6382 53.7509C91.1046 54.5293 89.8158 55.7163 88.9142 57.1809C86.8641 60.4717 86.7582 64.4623 86.9973 68.2157C87.064 69.2231 87.1208 70.2384 87.2463 71.24C87.358 72.1259 87.5736 73.004 88.0773 73.7488C88.9123 74.9875 90.2882 75.7244 91.7013 76.1008C92.444 76.2989 93.2054 76.4184 93.973 76.4575C94.9647 76.5104 95.9683 76.4575 96.9541 76.5986C98.5893 76.8328 100.014 77.8353 100.786 79.2956C100.961 79.6322 101.095 79.9881 101.188 80.3559C101.223 80.4782 101.335 80.5627 101.462 80.5637C102.638 80.4716 102.699 79.1152 102.93 78.2313C103.06 77.7452 103.248 77.2199 103.781 77.069C104.241 76.9357 104.761 76.9436 105.241 76.8985L106.789 76.7534C108.649 76.577 110.513 76.4418 112.37 76.1988C113.938 76.0028 115.506 75.6833 116.948 75.0228C118.352 74.4078 119.537 73.383 120.349 72.0828C121.146 70.7715 121.499 69.2466 121.617 67.7296C121.71 66.1323 121.645 64.5296 121.421 62.9452C121.225 61.3067 121.015 59.6348 120.492 58.0629C119.989 56.4717 118.995 55.0804 117.654 54.088C116.948 53.592 116.205 53.1523 115.431 52.7728C114.627 52.3593 113.814 51.9202 112.942 51.6674C112.5 51.5367 112.041 51.4707 111.58 51.4714C111.432 51.4837 111.319 51.6068 111.319 51.7546C111.319 51.9024 111.432 52.0256 111.58 52.0378C112.493 52.0378 113.344 52.371 114.157 52.765C114.919 53.1354 115.68 53.5196 116.409 53.9528C117.147 54.3691 117.819 54.8908 118.406 55.5012C118.929 56.0802 119.352 56.7427 119.657 57.4612C120.304 58.9508 120.539 60.5972 120.756 62.1887C120.987 63.7066 121.103 65.2397 121.103 66.7751C121.078 68.2451 120.876 69.7523 120.251 71.0871C119.625 72.4278 118.586 73.532 117.285 74.2368C115.96 74.964 114.461 75.3207 112.973 75.552C111.246 75.8205 109.496 75.944 107.758 76.1008L104.857 76.3752C104.122 76.4438 103.312 76.434 102.828 77.0788C102.521 77.4845 102.401 78 102.293 78.488C102.201 78.9036 102.146 79.421 101.88 79.7718C101.782 79.9068 101.63 79.9915 101.464 80.0031L101.737 80.2109C101.341 78.7102 100.35 77.4361 98.9925 76.6829C97.3501 75.7793 95.5018 76.0165 93.7005 75.8754C92.258 75.7636 90.7605 75.3756 89.5845 74.5034C89.0069 74.0809 88.5446 73.5202 88.24 72.8726C87.8323 71.9848 87.7774 70.9793 87.701 70.0208C87.3991 66.2518 87.113 62.2455 88.7319 58.7116C89.4238 57.2064 90.4411 55.8344 91.8111 54.8857C93.287 53.8646 95.0353 53.3471 96.7738 52.9826C100.78 52.1592 104.872 51.834 108.957 52.0143C109.467 52.0359 109.974 52.0653 110.484 52.1025C110.849 52.128 110.847 51.5616 110.484 51.5361L110.49 51.54Z" fill="black"/>
<path d="M95.1196 63.9546C94.8152 64.027 94.5796 64.2678 94.5139 64.5737C94.4482 64.8796 94.5641 65.1959 94.812 65.3869C95.0598 65.5778 95.3953 65.6093 95.6743 65.4678C95.8454 65.3705 95.9885 65.2308 96.0898 65.062C96.2776 64.8106 96.3377 64.486 96.2525 64.184C96.1427 63.8939 95.7605 63.7077 95.5057 63.8841" fill="#96AF9C"/>
<path d="M95.0451 63.692C94.6261 63.808 94.3106 64.1539 94.2337 64.5818C94.1512 65.0267 94.3639 65.4742 94.7609 65.6912C95.1598 65.9186 95.6574 65.8773 96.0134 65.5873C96.4264 65.2598 96.6333 64.7368 96.5563 64.2153C96.4544 63.7116 95.8272 63.3392 95.3626 63.6391C95.2755 63.6902 95.2222 63.7839 95.2229 63.885C95.2235 63.9861 95.2781 64.0791 95.3659 64.129C95.4538 64.179 95.5616 64.1782 95.6488 64.1271C95.6645 64.1198 95.6795 64.1113 95.6939 64.1016C95.637 64.1016 95.7174 64.0801 95.6939 64.1016C95.7069 64.1003 95.72 64.1003 95.7331 64.1016H95.6998C95.7095 64.1006 95.7194 64.1006 95.7292 64.1016H95.7801C95.7684 64.1016 95.7213 64.0879 95.7684 64.1016L95.8076 64.1134C95.8585 64.1252 95.7703 64.0879 95.8291 64.1134C95.8579 64.1281 95.8854 64.1451 95.9114 64.1644C95.8566 64.1252 95.9369 64.1938 95.9506 64.2075C95.9644 64.2212 95.9702 64.2467 95.9506 64.2075C95.9506 64.2212 95.9683 64.233 95.9742 64.2447C95.98 64.2565 96.0075 64.3094 95.9898 64.2682C95.9722 64.2271 96.0016 64.3114 96.0036 64.3212C96.0055 64.331 96.0153 64.3662 96.0192 64.3898C96.0192 64.3408 96.0192 64.3898 96.0192 64.3898C96.0222 64.4361 96.0222 64.4826 96.0192 64.5289C96.0192 64.5132 96.029 64.4819 96.0192 64.5289C96.0145 64.5521 96.0086 64.575 96.0016 64.5975C96.0016 64.621 95.9898 64.6426 95.982 64.6661C95.9742 64.6896 95.9506 64.7484 95.9683 64.7053C95.9337 64.7826 95.8924 64.8567 95.8448 64.9268L95.8134 64.9738C95.7605 65.0464 95.8311 64.9542 95.7958 64.9934C95.7631 65.0337 95.7278 65.0716 95.69 65.1071L95.6488 65.1424L95.6292 65.1581L95.5253 65.2169C95.541 65.2169 95.5782 65.1875 95.5253 65.2169L95.4744 65.2326L95.4332 65.2424C95.3666 65.262 95.492 65.2424 95.4234 65.2424C95.3875 65.2443 95.3515 65.2443 95.3156 65.2424C95.2882 65.2424 95.2215 65.2286 95.2842 65.2424L95.1784 65.2169L95.1353 65.2032C95.1078 65.2032 95.0804 65.1777 95.1235 65.2032C95.0905 65.1881 95.0584 65.1711 95.0275 65.1522L94.9902 65.1287C94.9334 65.0934 95.0157 65.1561 94.9902 65.1287C94.9648 65.1012 94.9412 65.0875 94.9197 65.064L94.8903 65.0307C94.853 64.9915 94.9118 65.0718 94.8766 65.0111L94.8295 64.9268C94.8295 64.9523 94.857 64.9719 94.8295 64.9268C94.8234 64.9094 94.8182 64.8918 94.8138 64.8739C94.8138 64.8484 94.7962 64.7622 94.8001 64.8308C94.8001 64.7896 94.8001 64.7504 94.8001 64.7112C94.8001 64.6426 94.8001 64.672 94.8001 64.7112C94.8021 64.6893 94.8061 64.6677 94.8119 64.6465C94.8205 64.6107 94.831 64.5754 94.8432 64.5407C94.8217 64.572 94.8628 64.476 94.8432 64.5407C94.8648 64.5093 94.8668 64.4936 94.8785 64.4701L94.9393 64.378C94.904 64.427 94.9295 64.3937 94.9393 64.378L94.9922 64.3231L95.0334 64.2859C94.9981 64.3192 95.0236 64.2859 95.0471 64.2859C95.0706 64.2859 95.1098 64.2506 95.1412 64.233C95.0863 64.2624 95.1274 64.233 95.1412 64.233L95.2156 64.2114C95.3575 64.1625 95.4369 64.0117 95.397 63.8671C95.3571 63.7225 95.2116 63.6338 95.0647 63.6646L95.0451 63.692Z" fill="#96AF9C"/>
<path d="M101.876 63.9546C101.571 64.027 101.336 64.2678 101.27 64.5737C101.204 64.8796 101.32 65.1959 101.568 65.3869C101.816 65.5778 102.151 65.6093 102.43 65.4678C102.601 65.3705 102.745 65.2308 102.846 65.062C103.034 64.8106 103.094 64.486 103.009 64.184C102.899 63.8939 102.517 63.7077 102.262 63.8841" fill="#96AF9C"/>
<path d="M101.801 63.692C101.382 63.808 101.067 64.1539 100.99 64.5818C100.907 65.0267 101.12 65.4742 101.517 65.6912C101.916 65.9186 102.414 65.8773 102.769 65.5873C103.182 65.2598 103.389 64.7368 103.312 64.2153C103.21 63.7116 102.583 63.3392 102.119 63.6391C102.032 63.6902 101.978 63.7839 101.979 63.885C101.98 63.9861 102.034 64.0791 102.122 64.129C102.21 64.179 102.318 64.1782 102.405 64.1271C102.421 64.1198 102.436 64.1113 102.45 64.1016C102.393 64.1016 102.474 64.0801 102.45 64.1016C102.463 64.1003 102.476 64.1003 102.489 64.1016H102.454C102.464 64.1006 102.475 64.1006 102.485 64.1016H102.536C102.524 64.1016 102.477 64.0879 102.524 64.1016L102.564 64.1134C102.615 64.1252 102.526 64.0879 102.585 64.1134C102.614 64.1281 102.642 64.1451 102.668 64.1644C102.613 64.1252 102.693 64.1938 102.707 64.2075C102.72 64.2212 102.726 64.2467 102.707 64.2075L102.73 64.2447C102.73 64.2447 102.764 64.3094 102.746 64.2682C102.728 64.2271 102.758 64.3114 102.76 64.3212C102.762 64.331 102.771 64.3662 102.775 64.3898C102.775 64.3408 102.775 64.3898 102.775 64.3898C102.778 64.4361 102.778 64.4826 102.775 64.5289C102.775 64.4819 102.775 64.5132 102.775 64.5289C102.771 64.5521 102.765 64.575 102.758 64.5975C102.758 64.621 102.746 64.6426 102.738 64.6661C102.73 64.6896 102.707 64.7484 102.724 64.7053C102.69 64.7826 102.648 64.8567 102.601 64.9268L102.57 64.9738C102.517 65.0464 102.587 64.9542 102.552 64.9934C102.519 65.0337 102.484 65.0716 102.446 65.1071L102.405 65.1424L102.385 65.1581L102.281 65.2169C102.297 65.2169 102.334 65.1875 102.281 65.2169L102.23 65.2326L102.189 65.2424C102.123 65.262 102.248 65.2424 102.18 65.2424C102.144 65.2443 102.108 65.2443 102.072 65.2424C102.044 65.2424 101.978 65.2286 102.038 65.2424L101.935 65.2169L101.891 65.2032C101.864 65.2032 101.837 65.1777 101.88 65.2032C101.847 65.1881 101.815 65.1711 101.784 65.1522L101.746 65.1287C101.69 65.0934 101.772 65.1561 101.746 65.1287C101.721 65.1012 101.697 65.0875 101.676 65.064L101.646 65.0307C101.609 64.9915 101.668 65.0718 101.633 65.0111C101.617 64.9836 101.601 64.9542 101.584 64.9268C101.584 64.9523 101.613 64.9719 101.584 64.9268C101.578 64.9094 101.572 64.8918 101.568 64.8739C101.568 64.8484 101.55 64.7622 101.554 64.8308C101.554 64.7896 101.554 64.7504 101.554 64.7112C101.554 64.6426 101.554 64.672 101.554 64.7112C101.556 64.6893 101.56 64.6677 101.566 64.6465C101.575 64.6107 101.585 64.5754 101.597 64.5407C101.576 64.572 101.617 64.476 101.597 64.5407C101.619 64.5093 101.621 64.4936 101.633 64.4701L101.693 64.378C101.658 64.427 101.684 64.3937 101.693 64.378L101.746 64.3231L101.788 64.2859C101.752 64.3192 101.778 64.2859 101.801 64.2859C101.825 64.2859 101.864 64.2506 101.895 64.233C101.84 64.2624 101.882 64.233 101.895 64.233L101.97 64.2114C102.112 64.1625 102.191 64.0117 102.151 63.8671C102.111 63.7225 101.966 63.6338 101.819 63.6646L101.801 63.692Z" fill="#96AF9C"/>
<path d="M108.624 63.9546C108.32 64.027 108.084 64.2678 108.018 64.5737C107.953 64.8795 108.069 65.1959 108.316 65.3869C108.564 65.5778 108.9 65.6093 109.179 65.4678C109.353 65.3724 109.5 65.2332 109.604 65.064C109.792 64.8125 109.852 64.488 109.767 64.1859C109.657 63.8958 109.275 63.7096 109.02 63.886" fill="#96AF9C"/>
<path d="M108.557 63.692C108.138 63.808 107.823 64.1539 107.746 64.5818C107.663 65.0267 107.876 65.4742 108.273 65.6912C108.672 65.9186 109.17 65.8773 109.526 65.5873C109.939 65.2598 110.146 64.7368 110.069 64.2153C109.967 63.7116 109.339 63.3392 108.875 63.6391C108.74 63.7181 108.695 63.8914 108.774 64.0262C108.853 64.1609 109.026 64.2061 109.161 64.1271C109.177 64.1198 109.192 64.1113 109.206 64.1016C109.149 64.1016 109.23 64.0801 109.206 64.1016C109.219 64.1003 109.232 64.1003 109.245 64.1016H109.21C109.22 64.1006 109.231 64.1006 109.241 64.1016H109.292C109.281 64.1016 109.234 64.0879 109.281 64.1016L109.32 64.1134C109.371 64.1252 109.283 64.0879 109.341 64.1134C109.37 64.1281 109.398 64.1451 109.424 64.1644C109.369 64.1252 109.449 64.1938 109.463 64.2075C109.477 64.2212 109.482 64.2467 109.463 64.2075L109.486 64.2447C109.486 64.2447 109.52 64.3094 109.5 64.2682C109.481 64.2271 109.514 64.3114 109.516 64.3212C109.518 64.331 109.528 64.3662 109.531 64.3898C109.531 64.3408 109.531 64.3898 109.531 64.3898C109.534 64.4361 109.534 64.4826 109.531 64.5289C109.531 64.4819 109.531 64.5132 109.531 64.5289C109.527 64.5521 109.521 64.575 109.514 64.5975C109.514 64.621 109.502 64.6426 109.494 64.6661C109.486 64.6896 109.463 64.7484 109.481 64.7053C109.446 64.7826 109.405 64.8567 109.357 64.9268L109.324 64.9738C109.273 65.0464 109.341 64.9542 109.308 64.9934C109.275 65.0337 109.24 65.0716 109.202 65.1071L109.161 65.1424L109.139 65.1581C109.106 65.1796 109.073 65.1973 109.038 65.2169C109.053 65.2169 109.09 65.1875 109.038 65.2169L108.987 65.2326L108.945 65.2424C108.879 65.262 109.004 65.2424 108.945 65.2424C108.91 65.2443 108.874 65.2443 108.838 65.2424C108.81 65.2424 108.744 65.2286 108.804 65.2424L108.7 65.2169L108.657 65.2032C108.63 65.2032 108.602 65.1777 108.646 65.2032C108.613 65.1881 108.58 65.1711 108.55 65.1522L108.512 65.1287C108.455 65.0934 108.538 65.1561 108.512 65.1287C108.487 65.1012 108.463 65.0875 108.442 65.064L108.412 65.0307C108.375 64.9915 108.434 65.0718 108.399 65.0111C108.383 64.9836 108.367 64.9542 108.35 64.9268C108.35 64.9523 108.379 64.9719 108.35 64.9268C108.343 64.9094 108.338 64.8918 108.334 64.8739C108.334 64.8484 108.316 64.7622 108.32 64.8308C108.32 64.7896 108.32 64.7504 108.32 64.7112C108.32 64.6426 108.32 64.672 108.32 64.7112C108.322 64.6893 108.326 64.6677 108.332 64.6465C108.341 64.6107 108.351 64.5754 108.363 64.5407C108.342 64.572 108.383 64.476 108.363 64.5407C108.385 64.5093 108.387 64.4936 108.399 64.4701L108.459 64.378C108.424 64.427 108.459 64.3937 108.459 64.378L108.512 64.3231L108.553 64.2859C108.518 64.3192 108.544 64.2859 108.567 64.2859C108.591 64.2859 108.63 64.2506 108.661 64.233C108.606 64.2624 108.648 64.233 108.661 64.233L108.734 64.2114C108.874 64.1616 108.952 64.0123 108.913 63.8689C108.874 63.7256 108.731 63.6365 108.585 63.6646L108.557 63.692Z" fill="#96AF9C"/>
<path d="M50.6825 62.6179C49.8376 62.7052 49.0814 63.1803 48.6362 63.9037C48.207 64.5466 47.8287 65.458 47.9287 66.2459C47.9597 66.635 48.1794 66.9843 48.5167 67.1808C48.8597 67.3552 49.3575 67.2122 49.4085 66.7888C49.4555 66.3968 49.0518 66.1244 48.6931 66.2008C48.3344 66.2772 48.1208 66.6555 48.009 66.9848C47.7258 67.8839 47.9177 68.8653 48.5186 69.5916C48.7499 69.8738 49.1478 69.472 48.9106 69.1996C48.5146 68.7035 48.3537 68.0597 48.4696 67.4356C48.4967 67.2785 48.5441 67.1257 48.6108 66.9809C48.6376 66.9094 48.6813 66.8455 48.7382 66.7947C48.7382 66.7947 48.8597 66.7359 48.846 66.7712C48.8714 66.7045 48.7225 66.6614 48.6872 66.634C48.6405 66.59 48.6009 66.5391 48.5696 66.483C48.5073 66.3616 48.4738 66.2275 48.4716 66.091C48.45 65.4697 48.746 64.7896 49.0714 64.2741C49.4261 63.7136 49.9926 63.249 50.6746 63.1981C51.0353 63.1706 51.0392 62.6101 50.6746 62.6316L50.6825 62.6179Z" fill="white"/>
<path d="M49.5614 71.1028L49.9142 70.893C49.9768 70.8549 50.0229 70.7948 50.0435 70.7245C50.0609 70.651 50.0511 70.5738 50.0161 70.5069C49.9784 70.4431 49.9172 70.3966 49.8456 70.3776C49.7722 70.3579 49.6941 70.3677 49.628 70.405L49.2772 70.6147C49.2139 70.6526 49.1671 70.7127 49.1458 70.7833C49.1346 70.8203 49.1346 70.8599 49.1458 70.897C49.1465 70.9347 49.1581 70.9715 49.1792 71.0028C49.2167 71.066 49.277 71.1123 49.3477 71.1322C49.4212 71.1521 49.4997 71.1415 49.5653 71.1028H49.5614Z" fill="white"/>
<path d="M50.1846 72.5394L50.2532 72.4689C50.2812 72.4444 50.3016 72.4124 50.312 72.3768C50.3307 72.344 50.3396 72.3066 50.3375 72.269C50.3391 72.2307 50.3303 72.1928 50.312 72.1592C50.302 72.1239 50.2815 72.0925 50.2532 72.069L50.1964 72.024C50.1531 71.9983 50.1037 71.9847 50.0533 71.9848L49.9788 71.9965C49.9313 72.0089 49.8879 72.034 49.8534 72.069L49.7828 72.1376C49.7561 72.1628 49.7365 72.1946 49.726 72.2298C49.7078 72.2634 49.6989 72.3013 49.7005 72.3395C49.6991 72.3771 49.7079 72.4144 49.726 72.4473C49.7359 72.4828 49.7556 72.5147 49.7828 72.5394L49.8416 72.5826C49.8848 72.6085 49.9343 72.6221 49.9847 72.6218L50.0592 72.612C50.1065 72.5988 50.1496 72.5738 50.1846 72.5394Z" fill="white"/>
<path d="M50.8961 74.5876C51.0434 74.5754 51.1567 74.4522 51.1567 74.3044C51.1567 74.1566 51.0434 74.0335 50.8961 74.0212C50.7488 74.0335 50.6355 74.1566 50.6355 74.3044C50.6355 74.4522 50.7488 74.5754 50.8961 74.5876Z" fill="white"/>
<path d="M64.3045 61.732C63.6077 61.7803 62.9272 61.9647 62.3014 62.2749C61.7761 62.5356 61.2528 62.9198 60.9941 63.4646C60.832 63.7646 60.79 64.1149 60.8765 64.4446C60.9684 64.7524 61.2386 64.973 61.5585 65.0013C61.8663 65.0189 62.1975 64.7837 62.1113 64.4427C62.025 64.1016 61.6389 64.0056 61.3273 64.1212C60.6944 64.3787 60.2354 64.9396 60.1081 65.6108C60.0415 65.9676 60.5864 66.1204 60.653 65.7618C60.6983 65.4928 60.8162 65.2414 60.9941 65.0346C61.0795 64.9358 61.1777 64.8488 61.2861 64.7759C61.3422 64.7381 61.4012 64.7046 61.4625 64.6759C61.4961 64.6582 61.5316 64.6444 61.5683 64.6348C61.6154 64.6348 61.6154 64.6289 61.5683 64.6171V64.4662C61.5801 64.4015 61.6173 64.4799 61.5781 64.4348C61.5389 64.3898 61.5154 64.4113 61.4958 64.3956C61.439 64.3455 61.4038 64.2752 61.3978 64.1996C61.3833 64.0375 61.4166 63.8746 61.4939 63.7312C61.6482 63.4399 61.8759 63.194 62.1544 63.0178C62.7999 62.5991 63.5425 62.3541 64.3104 62.3063C64.673 62.2788 64.6749 61.7183 64.3104 61.7398L64.3045 61.732Z" fill="white"/>
<path d="M60.7255 67.9883C60.8728 67.9761 60.9861 67.8529 60.9861 67.7051C60.9861 67.5573 60.8728 67.4341 60.7255 67.4219C60.5782 67.4341 60.4649 67.5573 60.4649 67.7051C60.4649 67.8529 60.5782 67.9761 60.7255 67.9883Z" fill="white"/>
<path d="M140.833 69.5054C141.456 68.5851 142.396 67.9255 143.473 67.6512C143.623 67.6095 143.711 67.4538 143.67 67.3033C143.628 67.1528 143.472 67.0646 143.322 67.1063C142.104 67.4223 141.045 68.1741 140.345 69.2192C140.149 69.523 140.631 69.8072 140.833 69.5054Z" fill="white"/>
<path d="M142.632 70.6892L143.457 70.2306C143.523 70.1925 143.571 70.1296 143.59 70.0559C143.609 69.9822 143.598 69.9039 143.559 69.8386C143.478 69.7039 143.304 69.6587 143.167 69.7366L142.342 70.1953C142.255 70.2464 142.201 70.3401 142.202 70.4412C142.203 70.5423 142.257 70.6353 142.345 70.6852C142.433 70.7352 142.541 70.7344 142.628 70.6833L142.632 70.6892Z" fill="white"/>
<path d="M157.569 62.028C156.999 62.7532 157.154 63.792 157.793 64.4309C158.547 65.1816 159.764 65.16 160.689 64.7818L160.472 64.2643C159.83 64.7062 159.307 65.2992 158.949 65.9911C158.6 66.6712 158.343 67.5238 158.449 68.2941C158.565 69.133 159.329 69.574 160.076 69.7876C160.937 70.0323 161.853 70.0056 162.698 69.7112L162.481 69.1937C161.324 69.6974 160.239 70.8617 160.129 72.1651C160.082 72.8271 160.402 73.4616 160.962 73.8174C161.566 74.2388 162.334 74.3074 163.047 74.323C163.412 74.323 163.412 73.7644 163.047 73.7566C162.459 73.7429 161.82 73.7017 161.307 73.3646C160.832 73.085 160.594 72.5293 160.719 71.9926C160.952 70.9499 161.813 70.1012 162.767 69.6837C163.059 69.5563 162.849 69.0624 162.548 69.1663C161.843 69.4184 161.079 69.4572 160.352 69.278C159.713 69.1173 159.006 68.7958 158.996 68.0432C158.976 66.7594 159.717 65.4795 160.76 64.7543C161.003 64.5858 160.86 64.1075 160.542 64.2388C159.839 64.527 158.923 64.6308 158.29 64.1173C157.826 63.741 157.571 62.9413 157.973 62.4298C158.196 62.1475 157.798 61.7438 157.581 62.0378L157.569 62.028Z" fill="black"/>
<path d="M154.529 54.2174L152.032 59.0605L150.786 61.4831C150.59 61.8574 150.394 62.2298 150.235 62.6199C150.088 62.9766 149.913 63.4039 149.958 63.7959C150 64.1565 150.313 64.5132 150.707 64.4348C150.874 64.3999 151.013 64.2878 151.083 64.1328C151.154 63.9779 151.146 63.7989 151.062 63.6508C150.981 63.515 150.806 63.4703 150.67 63.5509C150.165 63.9044 149.846 64.4654 149.8 65.0797C149.766 65.4423 150.333 65.4403 150.364 65.0797C150.402 64.6644 150.616 64.2854 150.952 64.0389L150.56 63.937C150.56 63.9056 150.56 63.886 150.584 63.8762C150.554 63.8599 150.532 63.8334 150.521 63.8018C150.494 63.7149 150.494 63.6221 150.521 63.5352C150.562 63.3338 150.622 63.1369 150.701 62.9472C150.866 62.5452 151.054 62.1526 151.262 61.7712L152.528 59.3467L155.023 54.5035C155.19 54.1801 154.702 53.894 154.535 54.2174H154.529Z" fill="white"/>
<path d="M158.712 60.6854C159.261 59.7328 160.251 59.1189 161.348 59.0507C161.711 59.0311 161.713 58.4627 161.348 58.4843C160.052 58.558 158.879 59.2782 158.228 60.4012C158.164 60.5347 158.214 60.6946 158.342 60.7688C158.47 60.843 158.633 60.8067 158.718 60.6854H158.712Z" fill="white"/>
<path d="M161.099 66.8123C161.648 65.605 162.778 64.7636 164.092 64.5838C164.24 64.5401 164.327 64.3865 164.288 64.2369C164.243 64.0889 164.089 64.0027 163.939 64.0409C162.484 64.2578 161.236 65.1927 160.619 66.5281C160.542 66.6644 160.586 66.8374 160.719 66.9201C160.784 66.9586 160.862 66.9696 160.936 66.9504C161.01 66.9313 161.072 66.8837 161.111 66.8182L161.099 66.8123Z" fill="white"/>
<path d="M163.008 71.8711L163.059 71.8005L163.085 71.7652C163.11 71.7319 163.085 71.7554 163.085 71.775C163.122 71.73 163.157 71.6849 163.196 71.6398C163.275 71.5512 163.358 71.4668 163.445 71.387L163.577 71.2733L163.612 71.2478C163.569 71.2792 163.592 71.2635 163.612 71.2478L163.682 71.1968C163.779 71.1255 163.88 71.06 163.984 71.0008C164.11 70.9175 164.148 70.7508 164.072 70.6208C163.996 70.4908 163.832 70.4426 163.698 70.5108C163.234 70.7688 162.836 71.132 162.538 71.5712C162.499 71.6365 162.487 71.7148 162.507 71.7885C162.526 71.8622 162.574 71.9251 162.64 71.9632C162.776 72.0423 162.951 71.9969 163.032 71.8613L163.008 71.8711Z" fill="white"/>
<path d="M156.287 64.4231C157.076 66.7415 156.945 69.2742 155.921 71.4987C155.768 71.826 156.256 72.1141 156.409 71.7829C157.51 69.4299 157.664 66.7436 156.84 64.28C156.724 63.937 156.176 64.084 156.295 64.429L156.287 64.4231Z" fill="white"/>
<path d="M158.157 73.0706C158.518 72.3355 158.728 71.5359 158.776 70.7186C158.775 70.5632 158.65 70.4374 158.494 70.4363C158.339 70.4394 158.214 70.5637 158.21 70.7186C158.167 71.4357 157.983 72.1371 157.667 72.7825C157.588 72.919 157.633 73.0938 157.769 73.1745C157.905 73.2551 158.08 73.2103 158.161 73.0745L158.157 73.0706Z" fill="white"/>
<path d="M129.933 130.246C128.701 129.243 128.424 127.472 129.292 126.141C130.159 124.81 131.892 124.35 133.306 125.073C134.059 125.465 134.62 126.13 135.133 126.802C140.428 133.808 142.84 142.574 141.875 151.302C141.679 152.958 141.348 154.66 140.392 156.026C138.973 158.058 136.354 159.017 133.879 158.907C131.403 158.797 129.057 157.75 126.952 156.441C118.838 151.392 113.91 142.666 108.896 134.528C108.552 133.97 108.195 133.399 107.687 132.982C106.719 132.186 105.365 132.072 104.114 132.143C102.864 132.214 101.595 132.435 100.37 132.178C99.1455 131.922 97.9342 131.02 97.8225 129.773C97.7107 128.527 99.2415 127.318 100.265 128.041C99.0396 129.675 95.9644 129.115 95.394 127.153C94.8237 125.191 97.1247 123.07 99.0357 123.797C98.6437 125.128 96.619 125.444 95.6469 124.454C94.6747 123.464 94.8099 121.71 95.7135 120.665C96.6171 119.621 98.0831 119.184 99.4708 119.223C100.859 119.262 102.195 119.711 103.51 120.154C102.397 120.491 101.198 119.37 101.239 118.217C101.28 117.065 102.303 116.085 103.442 115.853C104.581 115.622 105.774 116.004 106.754 116.637C109.486 118.38 110.69 121.677 111.933 124.673C115.178 132.483 119.805 139.644 125.592 145.812C127.889 148.258 130.645 150.669 133.99 150.908C134.647 150.953 135.347 150.908 135.895 150.536C137.175 149.681 136.948 147.76 136.525 146.281C135.093 141.261 133.137 136.406 130.69 131.796" fill="black"/>
<path d="M130.133 130.046C129.059 129.148 128.761 127.468 129.545 126.283C130.371 125.113 131.921 124.712 133.21 125.336C133.981 125.744 134.533 126.457 135.047 127.139C135.56 127.821 136.048 128.531 136.507 129.254C137.426 130.7 138.234 132.215 138.924 133.784C140.313 136.944 141.216 140.296 141.603 143.727C141.799 145.429 141.864 147.144 141.799 148.856C141.73 150.577 141.603 152.362 141.07 154.011C140.603 155.567 139.548 156.88 138.13 157.672C136.755 158.407 135.197 158.73 133.643 158.603C131.823 158.474 130.072 157.819 128.471 156.972C126.969 156.163 125.547 155.213 124.224 154.136C121.676 152.084 119.449 149.65 117.458 147.059C115.421 144.409 113.61 141.598 111.852 138.76C110.978 137.347 110.118 135.928 109.247 134.515C108.802 133.793 108.352 133.06 107.64 132.572C106.96 132.143 106.181 131.898 105.378 131.861C103.583 131.716 101.672 132.388 99.9295 131.743C99.2316 131.509 98.6487 131.019 98.2987 130.371C97.9902 129.778 98.1047 129.053 98.581 128.584C98.9906 128.164 99.6159 127.927 100.139 128.28L100.039 127.888C99.2258 128.946 97.5598 128.901 96.5328 128.203C95.9668 127.832 95.6207 127.205 95.6077 126.528C95.6337 125.763 95.9914 125.047 96.5877 124.568C97.2277 123.986 98.1309 123.792 98.9534 124.06L98.7574 123.711C98.5241 124.46 97.7049 124.783 96.9757 124.736C96.0839 124.679 95.4626 124.015 95.296 123.158C95.1314 122.184 95.4802 121.194 96.2192 120.538C97.0032 119.828 98.091 119.523 99.1317 119.495C100.613 119.456 102.046 119.95 103.432 120.418V119.871C102.391 120.162 101.411 119.072 101.527 118.07C101.654 116.943 102.781 116.155 103.847 116.069C105.121 115.965 106.356 116.583 107.315 117.378C108.177 118.12 108.907 119.003 109.471 119.991C110.707 122.069 111.478 124.393 112.464 126.594C113.557 129.03 114.788 131.402 116.15 133.697C118.856 138.29 122.084 142.554 125.77 146.404C127.464 148.168 129.38 149.846 131.709 150.691C132.808 151.083 134.165 151.386 135.323 151.083C136.409 150.792 136.997 149.867 137.113 148.795C137.232 147.672 136.903 146.557 136.587 145.493C136.182 144.119 135.736 142.758 135.249 141.408C134.28 138.712 133.159 136.075 131.889 133.507C131.578 132.877 131.258 132.253 130.929 131.635C130.758 131.312 130.27 131.598 130.441 131.92C131.801 134.485 133.01 137.128 134.063 139.834C134.592 141.198 135.081 142.577 135.529 143.972C135.745 144.639 135.95 145.31 136.144 145.985C136.32 146.528 136.451 147.085 136.536 147.651C136.652 148.607 136.585 149.793 135.654 150.334C135.111 150.651 134.445 150.647 133.837 150.593C133.216 150.535 132.604 150.403 132.015 150.201C129.62 149.377 127.671 147.582 125.96 145.777C120.411 139.898 115.919 133.106 112.681 125.699C111.721 123.497 110.949 121.175 109.616 119.16C108.346 117.241 106.18 115.24 103.691 115.532C102.56 115.652 101.582 116.371 101.129 117.414C100.718 118.469 101.141 119.666 102.125 120.228C102.566 120.488 103.094 120.559 103.589 120.424C103.709 120.387 103.791 120.276 103.791 120.151C103.791 120.025 103.709 119.914 103.589 119.877C102.168 119.397 100.696 118.897 99.1768 118.935C97.9479 118.958 96.6798 119.336 95.7723 120.193C94.9276 120.995 94.5456 122.17 94.757 123.315C94.9354 124.355 95.7721 125.157 96.8189 125.291C97.8558 125.42 98.9749 124.913 99.3121 123.868C99.3501 123.718 99.2637 123.566 99.1161 123.521C97.3109 122.862 95.2647 124.403 95.0491 126.228C94.8374 128.015 96.5014 129.264 98.1537 129.279C99.0673 129.303 99.9385 128.894 100.504 128.176C100.583 128.039 100.537 127.865 100.402 127.784C99.1533 126.947 97.5167 128.299 97.5285 129.638C97.5422 131.306 99.2729 132.321 100.739 132.513C102.646 132.76 104.616 132.033 106.486 132.641C107.364 132.927 107.946 133.55 108.434 134.311C108.922 135.071 109.349 135.796 109.806 136.541C111.64 139.54 113.477 142.541 115.517 145.406C117.524 148.223 119.729 150.918 122.297 153.246C123.58 154.415 124.957 155.478 126.413 156.424C128.003 157.449 129.716 158.338 131.554 158.819C133.24 159.289 135.02 159.299 136.711 158.846C138.276 158.427 139.653 157.49 140.615 156.186C141.689 154.671 142.005 152.772 142.183 150.965C142.372 149.166 142.413 147.354 142.307 145.547C141.988 140.111 140.402 134.825 137.675 130.111C137.224 129.337 136.743 128.58 136.233 127.841C135.733 127.078 135.173 126.357 134.557 125.685C134.003 125.066 133.256 124.652 132.438 124.509C131.708 124.408 130.964 124.533 130.307 124.868C128.946 125.574 128.249 127.123 128.622 128.611C128.78 129.325 129.167 129.967 129.723 130.442C130.002 130.673 130.404 130.275 130.115 130.05L130.133 130.046Z" fill="black"/>
<path d="M97.7048 142.935C93.7692 142.543 89.8021 142.014 86.0017 140.957V140.969C90.7098 143.696 95.8457 145.607 101.192 146.62C101.584 145.518 102.013 144.427 102.479 143.346C100.882 143.241 99.2905 143.097 97.7048 142.935Z" fill="black"/>
<path d="M97.7048 142.653C93.7848 142.261 89.8766 141.735 86.0781 140.693C85.928 140.653 85.7738 140.74 85.7292 140.889V140.902C85.6969 141.026 85.7495 141.156 85.8586 141.222C89.5369 143.35 93.4779 144.987 97.5814 146.092C98.7495 146.406 99.9255 146.676 101.109 146.902C101.259 146.937 101.41 146.852 101.458 146.706C101.841 145.623 102.26 144.553 102.715 143.497C102.763 143.41 102.763 143.303 102.713 143.216C102.663 143.129 102.572 143.074 102.472 143.072C100.878 142.966 99.2885 142.823 97.7009 142.662C97.3383 142.625 97.3422 143.192 97.7009 143.229C99.2885 143.39 100.878 143.533 102.472 143.638L102.227 143.213C101.751 144.311 101.313 145.425 100.911 146.555L101.26 146.359C97.1199 145.573 93.1003 144.248 89.3043 142.417C88.2276 141.895 87.1724 141.334 86.1389 140.736L86.2682 141.055V141.043L85.9213 141.239C89.7668 142.306 93.7358 142.825 97.699 143.229C98.0674 143.256 98.0635 142.69 97.7048 142.653Z" fill="black"/>
<path d="M121.26 141.471C119.671 142.025 118.042 142.459 116.388 142.77C112.722 143.462 108.991 143.611 105.257 143.484C104.857 144.673 104.495 145.874 104.171 147.088L104.518 147.133C107.283 147.456 110.072 147.539 112.858 147.621C115.21 147.69 117.595 147.752 119.914 147.425C120.227 145.412 120.677 143.423 121.26 141.471V141.471Z" fill="black"/>
<path d="M121.184 141.198C117.217 142.57 113.032 143.143 108.836 143.229C107.64 143.254 106.445 143.241 105.249 143.201C105.122 143.204 105.011 143.288 104.975 143.409C104.583 144.598 104.221 145.8 103.891 147.014C103.869 147.099 103.888 147.189 103.941 147.258C103.994 147.328 104.075 147.37 104.163 147.372C106.221 147.639 108.299 147.749 110.372 147.825C112.446 147.901 114.488 147.99 116.535 147.952C117.691 147.936 118.846 147.85 119.992 147.694C120.089 147.67 120.164 147.594 120.188 147.498C120.504 145.487 120.954 143.5 121.535 141.549C121.64 141.198 121.094 141.049 120.99 141.398C120.407 143.348 119.957 145.336 119.643 147.347L119.839 147.151C117.828 147.433 115.79 147.417 113.763 147.364C111.737 147.311 109.659 147.257 107.613 147.125C106.462 147.053 105.312 146.955 104.169 146.808L104.441 147.166C104.767 145.954 105.129 144.752 105.527 143.562L105.255 143.77C109.492 143.909 113.779 143.705 117.92 142.737C119.074 142.469 120.213 142.142 121.333 141.757C121.678 141.626 121.531 141.079 121.184 141.198Z" fill="black"/>
<path d="M84.026 164.657C84.5825 164.42 85.2293 164.592 85.594 165.075C85.9313 165.599 85.8491 166.288 85.398 166.717L85.3196 166.784C85.2392 166.812 85.2373 166.833 85.3196 166.849C85.3313 166.872 85.3078 166.759 85.3078 166.739C85.3239 166.594 85.375 166.454 85.4568 166.333C85.7119 165.87 86.1594 165.544 86.6786 165.442C87.1977 165.341 87.7351 165.475 88.1459 165.808C88.2818 165.889 88.4572 165.844 88.5379 165.708C88.6159 165.571 88.5706 165.397 88.436 165.316C87.7732 164.813 86.8954 164.695 86.1232 165.004C85.4725 165.273 84.7865 165.939 84.7316 166.68C84.7081 167.008 84.8845 167.392 85.2588 167.386C85.6332 167.38 85.9429 166.994 86.1075 166.71C86.4831 166.072 86.4414 165.272 86.0017 164.677C85.4933 164.046 84.6362 163.814 83.879 164.103C83.7317 164.149 83.6459 164.302 83.683 164.452C83.7275 164.6 83.8818 164.687 84.0319 164.648L84.026 164.657Z" fill="white"/>
<path d="M108.744 163.627C107.824 163.903 107.399 164.865 107.287 165.747C107.226 166.245 107.266 166.786 107.568 167.204C107.846 167.566 108.269 167.788 108.726 167.813C109.675 167.893 110.551 167.16 110.937 166.337C111.113 165.961 111.133 165.385 110.629 165.257C110.076 165.114 109.702 165.8 109.43 166.159C109.255 166.386 109.008 166.635 109.087 166.943C109.159 167.223 109.431 167.362 109.675 167.48C110.263 167.768 110.872 168.027 111.489 168.264C111.831 168.391 111.978 167.844 111.638 167.719C111.246 167.573 110.859 167.413 110.476 167.241C110.292 167.158 110.108 167.072 109.925 166.982C109.849 166.948 109.774 166.908 109.702 166.864C109.624 166.81 109.639 166.821 109.69 166.749C109.81 166.578 109.941 166.418 110.068 166.253C110.165 166.085 110.295 165.939 110.451 165.824C110.506 165.794 110.484 165.796 110.496 165.824C110.502 165.866 110.497 165.909 110.482 165.949C110.44 166.097 110.369 166.235 110.274 166.357C109.925 166.878 109.357 167.337 108.693 167.247C108.406 167.217 108.148 167.059 107.991 166.817C107.832 166.498 107.784 166.134 107.854 165.784C107.936 165.153 108.23 164.377 108.898 164.177C109.247 164.071 109.094 163.527 108.747 163.63L108.744 163.627Z" fill="white"/>
<path d="M84.9864 169.948L87.4089 169.422C87.5508 169.373 87.6302 169.223 87.5903 169.078C87.5504 168.933 87.4049 168.845 87.258 168.875L84.8355 169.401C84.7319 169.422 84.649 169.5 84.6203 169.602C84.5915 169.703 84.6217 169.813 84.6986 169.885C84.7755 169.958 84.8864 169.982 84.9864 169.948Z" fill="white"/>
<path d="M85.4391 171.857L87.4383 171.635C87.5929 171.632 87.7175 171.507 87.7206 171.353C87.7195 171.197 87.5941 171.071 87.4383 171.069L85.4391 171.296C85.2842 171.299 85.1591 171.423 85.1549 171.578C85.156 171.735 85.2826 171.861 85.4391 171.862V171.857Z" fill="white"/>
<path d="M107.691 161.949C108.147 162.119 108.648 162.122 109.106 161.959C109.246 161.909 109.324 161.759 109.285 161.616C109.246 161.473 109.103 161.384 108.957 161.412C108.859 161.449 108.758 161.477 108.655 161.494C108.638 161.494 108.549 161.523 108.62 161.494C108.598 161.496 108.576 161.496 108.553 161.494C108.502 161.497 108.45 161.497 108.399 161.494C108.346 161.497 108.294 161.497 108.242 161.494C108.242 161.494 108.156 161.494 108.23 161.494C108.201 161.494 108.171 161.494 108.142 161.48C108.04 161.458 107.94 161.43 107.842 161.394C107.692 161.353 107.537 161.44 107.495 161.59C107.458 161.74 107.544 161.893 107.691 161.939V161.949Z" fill="white"/>
<path d="M108.293 159.536C108.44 159.524 108.553 159.401 108.553 159.253C108.553 159.105 108.44 158.982 108.293 158.97C108.145 158.982 108.032 159.105 108.032 159.253C108.032 159.401 108.145 159.524 108.293 159.536Z" fill="white"/>
<path d="M113.928 143.827C114.797 145.048 115.777 146.186 116.856 147.227C117.119 147.48 117.518 147.08 117.248 146.835C116.204 145.829 115.256 144.729 114.416 143.548C114.334 143.414 114.16 143.368 114.024 143.446C113.958 143.485 113.911 143.548 113.892 143.621C113.872 143.695 113.883 143.773 113.922 143.838L113.928 143.827Z" fill="white"/>
<path d="M37.7092 96.2731C36.4705 97.0571 35.0299 98.0547 34.7046 99.5953C34.5942 99.9732 34.6241 100.378 34.7888 100.736C34.9676 101.053 35.3291 101.22 35.6865 101.152C36.016 101.074 36.2203 100.744 36.1432 100.415C36.0805 100.115 35.7649 99.8266 35.4494 99.9814C35.0718 100.19 34.7519 100.489 34.5184 100.852C34.2574 101.226 34.0864 101.655 34.0186 102.106C33.9656 102.463 34.5125 102.618 34.5654 102.257C34.6127 101.916 34.7287 101.588 34.9064 101.293C34.9957 101.145 35.1009 101.008 35.22 100.883C35.3318 100.765 35.514 100.669 35.612 100.548C35.7022 100.506 35.6924 100.49 35.5826 100.501C35.5826 100.522 35.6218 100.558 35.5964 100.589C35.5278 100.667 35.3631 100.558 35.318 100.505C35.122 100.275 35.2259 99.8364 35.2965 99.5796C35.6591 98.2801 36.9331 97.451 38.0013 96.765C38.307 96.569 38.0248 96.079 37.7151 96.277L37.7092 96.2731Z" fill="white"/>
<path d="M27.4075 97.6L28.1915 96.6514C28.2423 96.5984 28.2723 96.5287 28.2757 96.4554C28.2734 96.3418 28.2036 96.2405 28.0983 96.1979C27.9929 96.1552 27.8723 96.1794 27.7916 96.2594L27.0076 97.208C26.9571 97.2612 26.9272 97.3307 26.9233 97.404C26.9247 97.4778 26.955 97.5482 27.0076 97.6C27.1178 97.7036 27.2895 97.7036 27.3996 97.6H27.4075Z" fill="white"/>
<path d="M30.8786 94.4405C30.8904 94.3934 30.9061 94.3484 30.9218 94.3033C30.9374 94.2582 30.9394 94.2582 30.9472 94.2347C30.9257 94.2954 30.9472 94.2229 30.957 94.2151C30.995 94.131 31.0389 94.0498 31.0884 93.972C31.1138 93.9309 31.1413 93.8917 31.1687 93.8525C31.1962 93.8133 31.202 93.8133 31.1687 93.8525L31.2138 93.7956C31.2752 93.7234 31.3406 93.6547 31.4098 93.5898L31.5196 93.4977L31.5803 93.4566C31.6564 93.4053 31.7356 93.3588 31.8175 93.3174L31.8822 93.288C31.9547 93.2527 31.8292 93.3076 31.9037 93.2782C31.9488 93.2606 31.9939 93.2429 32.039 93.2292C32.1306 93.2001 32.2243 93.1778 32.3192 93.1626C32.4685 93.1189 32.5556 92.9639 32.5152 92.8137C32.469 92.6664 32.3162 92.5805 32.1664 92.6177C31.278 92.7864 30.5594 93.4391 30.3063 94.3072C30.2671 94.4573 30.3537 94.6115 30.5023 94.6561C30.6521 94.6932 30.805 94.6073 30.8512 94.4601L30.8786 94.4405Z" fill="white"/>
<path d="M100.955 119.16C102.45 119.06 103.941 119.423 105.223 120.199C105.358 120.267 105.522 120.219 105.598 120.089C105.674 119.959 105.635 119.792 105.51 119.709C104.141 118.881 102.551 118.492 100.955 118.596C100.594 118.619 100.59 119.184 100.955 119.16Z" fill="white"/>
<path d="M87.7579 113.117C87.364 113.078 87.0023 113.338 86.9147 113.724C86.827 114.11 87.0408 114.501 87.4132 114.635C87.7856 114.769 88.1996 114.605 88.3786 114.252C88.5575 113.899 88.4451 113.467 88.1165 113.247" fill="black"/>
<path d="M87.7578 112.833C87.3407 112.809 86.9456 113.022 86.7367 113.384C86.5245 113.744 86.5411 114.195 86.7792 114.538C87.0172 114.882 87.4333 115.056 87.8452 114.984C88.257 114.912 88.5894 114.607 88.6967 114.203C88.8147 113.75 88.637 113.271 88.2518 113.004C88.1864 112.965 88.1081 112.953 88.0344 112.973C87.9607 112.992 87.8978 113.04 87.8598 113.106C87.7818 113.242 87.827 113.416 87.9617 113.498C87.9323 113.468 88.0185 113.537 87.9617 113.498C87.9911 113.527 87.9872 113.519 87.9989 113.533L88.0283 113.562C88.0283 113.562 88.0754 113.615 88.046 113.58C88.0166 113.545 88.0577 113.598 88.0597 113.601L88.0832 113.637C88.0832 113.648 88.0969 113.66 88.1028 113.674C88.1087 113.688 88.1322 113.721 88.1028 113.674C88.1177 113.706 88.1289 113.739 88.1361 113.774C88.1403 113.787 88.1436 113.8 88.1459 113.813V113.837C88.1459 113.794 88.1459 113.854 88.1459 113.862C88.1469 113.876 88.1469 113.89 88.1459 113.903V113.944C88.1459 113.954 88.1459 114.037 88.1459 113.99C88.1459 113.942 88.1459 114.009 88.1459 114.013C88.1436 114.027 88.1403 114.041 88.1361 114.054C88.1361 114.066 88.1361 114.08 88.1244 114.093C88.1126 114.107 88.095 114.156 88.1244 114.117C88.1538 114.078 88.1126 114.137 88.1106 114.138C88.1087 114.14 88.0969 114.164 88.091 114.176L88.0773 114.197C88.0989 114.164 88.0597 114.217 88.0518 114.225C88.0311 114.248 88.0088 114.269 87.9852 114.289C87.946 114.325 87.9852 114.289 87.995 114.289C87.9819 114.301 87.9674 114.311 87.9519 114.319L87.8696 114.366C87.8127 114.399 87.9107 114.352 87.8696 114.366L87.8108 114.387L87.7206 114.409C87.654 114.425 87.7657 114.409 87.7206 114.409H87.6696H87.5873C87.5775 114.409 87.5207 114.393 87.5618 114.409C87.603 114.425 87.5383 114.409 87.5285 114.409C87.4979 114.403 87.4682 114.393 87.4403 114.38C87.458 114.38 87.4952 114.415 87.4403 114.38C87.4246 114.372 87.4096 114.364 87.3952 114.354L87.36 114.331C87.3168 114.301 87.36 114.331 87.36 114.331C87.3255 114.308 87.2956 114.278 87.2718 114.244L87.2443 114.213C87.2443 114.213 87.2757 114.258 87.2443 114.213C87.213 114.168 87.2071 114.154 87.1914 114.123C87.1856 114.11 87.1791 114.098 87.1718 114.086C87.1424 114.025 87.1855 114.127 87.1718 114.086C87.1581 114.044 87.1483 114.015 87.1404 113.976C87.1417 113.963 87.1417 113.95 87.1404 113.937C87.1561 113.956 87.1404 113.988 87.1404 113.95C87.1385 113.916 87.1385 113.881 87.1404 113.846C87.1385 113.833 87.1385 113.819 87.1404 113.805C87.115 113.856 87.1404 113.837 87.1404 113.805C87.1485 113.767 87.1597 113.729 87.1738 113.692C87.1738 113.701 87.1483 113.745 87.1738 113.701C87.183 113.682 87.1935 113.663 87.2051 113.645L87.2345 113.599L87.2228 113.615L87.2443 113.59C87.2709 113.561 87.2991 113.533 87.3286 113.507C87.3404 113.496 87.3698 113.48 87.3286 113.507L87.3815 113.47L87.4286 113.443L87.4638 113.425C87.4227 113.445 87.4874 113.425 87.4893 113.425L87.552 113.405H87.5932C87.6559 113.39 87.5442 113.405 87.603 113.405C87.6618 113.405 87.6892 113.405 87.7324 113.405C87.8882 113.405 88.0146 113.279 88.0146 113.123C88.0115 112.968 87.8872 112.843 87.7324 112.839L87.7578 112.833Z" fill="black"/>
<path d="M91.2662 114.317C90.8726 114.275 90.5098 114.534 90.4204 114.919C90.331 115.305 90.5429 115.697 90.9146 115.833C91.2863 115.969 91.701 115.807 91.8817 115.454C92.0624 115.102 91.9522 114.671 91.6249 114.448" fill="black"/>
<path d="M91.2662 114.035C90.8496 114.011 90.4549 114.223 90.2451 114.583C90.0339 114.943 90.0508 115.393 90.2885 115.736C90.5262 116.079 90.9414 116.253 91.3527 116.182C91.764 116.111 92.0965 115.808 92.2051 115.405C92.3243 114.951 92.1463 114.471 91.7602 114.205C91.6952 114.165 91.6169 114.154 91.5431 114.172C91.4692 114.191 91.4062 114.239 91.3682 114.305C91.2909 114.441 91.335 114.614 91.4681 114.697C91.4387 114.668 91.525 114.736 91.4681 114.697L91.5054 114.73L91.5348 114.76L91.5524 114.779C91.523 114.746 91.5642 114.797 91.5681 114.801L91.5896 114.836C91.5969 114.848 91.6035 114.859 91.6092 114.872C91.6249 114.901 91.6386 114.921 91.6092 114.872C91.6235 114.904 91.6347 114.937 91.6426 114.971C91.6419 114.985 91.6419 114.998 91.6426 115.011C91.6426 115.011 91.6602 115.081 91.6426 115.034C91.6249 114.987 91.6426 115.052 91.6426 115.06C91.6416 115.073 91.6416 115.087 91.6426 115.101C91.6435 115.115 91.6435 115.128 91.6426 115.142C91.6426 115.142 91.6426 115.234 91.6426 115.187C91.6426 115.14 91.6426 115.207 91.6426 115.211C91.6426 115.215 91.6426 115.238 91.6328 115.25L91.621 115.291C91.621 115.291 91.5896 115.354 91.6112 115.314C91.6328 115.275 91.5994 115.334 91.5994 115.336L91.5779 115.373C91.5779 115.373 91.5406 115.434 91.5642 115.395C91.5877 115.356 91.5465 115.414 91.5406 115.422C91.5348 115.43 91.4956 115.465 91.474 115.487C91.4524 115.509 91.474 115.487 91.474 115.487C91.4612 115.499 91.4467 115.509 91.4309 115.516L91.3505 115.561C91.2917 115.595 91.3897 115.55 91.3505 115.561L91.2917 115.581C91.2622 115.591 91.2321 115.599 91.2016 115.605C91.1349 115.62 91.2486 115.605 91.2016 115.605H91.1486H91.0663C91.0663 115.605 90.9997 115.589 91.0428 115.605L91.0095 115.595C90.9782 115.59 90.9477 115.581 90.9193 115.567C90.9389 115.567 90.9742 115.603 90.9193 115.567L90.8742 115.542L90.8409 115.518C90.7958 115.489 90.8409 115.518 90.8409 115.518C90.8054 115.496 90.7748 115.467 90.7508 115.432L90.7233 115.401C90.7233 115.401 90.7547 115.446 90.7233 115.401C90.692 115.356 90.6861 115.344 90.6684 115.313L90.6508 115.275C90.6214 115.215 90.6626 115.316 90.6508 115.275C90.639 115.234 90.6273 115.203 90.6194 115.166C90.6205 115.152 90.6205 115.138 90.6194 115.124C90.6351 115.144 90.6194 115.175 90.6194 115.138C90.6194 115.101 90.6194 115.069 90.6194 115.036C90.6185 115.022 90.6185 115.009 90.6194 114.995C90.594 115.044 90.6194 115.026 90.6194 114.995C90.6278 114.957 90.639 114.92 90.6528 114.883C90.6273 114.936 90.6528 114.893 90.6528 114.883C90.6782 114.83 90.6743 114.846 90.6841 114.828L90.7155 114.783C90.7272 114.766 90.7155 114.772 90.7037 114.797L90.7233 114.774C90.7508 114.744 90.7802 114.717 90.8076 114.689C90.835 114.662 90.8507 114.664 90.8076 114.689L90.8625 114.652L90.9076 114.625L90.9428 114.607L90.9683 114.597L91.031 114.579H91.0722C91.0232 114.579 91.1349 114.564 91.0722 114.579C91.1212 114.579 91.1584 114.579 91.2016 114.579C91.3585 114.579 91.4858 114.452 91.4858 114.295C91.4816 114.14 91.3565 114.016 91.2016 114.013L91.2662 114.035Z" fill="black"/>
<path d="M88.5457 116.906C88.1521 116.865 87.7894 117.123 87.6999 117.509C87.6105 117.894 87.8225 118.286 88.1941 118.422C88.5658 118.558 88.9806 118.396 89.1612 118.044C89.3419 117.691 89.2317 117.26 88.9044 117.037" fill="black"/>
<path d="M88.5457 116.624C88.1291 116.6 87.7344 116.812 87.5246 117.173C87.3258 117.531 87.3509 117.972 87.5893 118.305C87.8277 118.653 88.2505 118.824 88.6633 118.741C89.0573 118.666 89.3768 118.378 89.4924 117.994C89.6101 117.54 89.4326 117.06 89.0475 116.792C88.982 116.754 88.9039 116.743 88.8304 116.762C88.7568 116.781 88.6939 116.829 88.6555 116.894C88.5786 117.031 88.6236 117.204 88.7574 117.286C88.7261 117.257 88.8123 117.323 88.7574 117.286L88.7966 117.322L88.826 117.351L88.8437 117.371C88.8143 117.337 88.8554 117.388 88.8574 117.392L88.8809 117.427L88.9005 117.463C88.9162 117.492 88.9279 117.512 88.9005 117.463C88.9154 117.494 88.9266 117.527 88.9338 117.561C88.938 117.574 88.9413 117.588 88.9436 117.602C88.9436 117.602 88.9613 117.672 88.9436 117.625C88.926 117.578 88.9436 117.643 88.9436 117.649C88.9446 117.663 88.9446 117.678 88.9436 117.692V117.733C88.9436 117.733 88.9436 117.823 88.9436 117.778C88.9436 117.733 88.9436 117.796 88.9436 117.802C88.9443 117.815 88.9443 117.828 88.9436 117.841L88.9319 117.88C88.9319 117.88 88.9025 117.943 88.9319 117.906C88.9613 117.868 88.9201 117.923 88.9181 117.927C88.9117 117.939 88.9045 117.951 88.8966 117.962C88.8966 117.962 88.8593 118.023 88.8848 117.986C88.9103 117.949 88.8672 118.006 88.8593 118.011C88.8391 118.035 88.8168 118.057 88.7927 118.076C88.7535 118.111 88.7927 118.076 88.7927 118.076C88.7791 118.087 88.7647 118.097 88.7496 118.106L88.6673 118.151C88.6104 118.184 88.7084 118.137 88.6673 118.151L88.6085 118.172L88.5163 118.196C88.4517 118.211 88.5634 118.196 88.5163 118.196H88.4654C88.4379 118.196 88.4105 118.196 88.3831 118.196C88.3556 118.196 88.3145 118.18 88.3576 118.196L88.3243 118.186C88.2934 118.181 88.2636 118.171 88.2361 118.156C88.2537 118.156 88.289 118.192 88.2361 118.156C88.2204 118.149 88.2053 118.141 88.191 118.131L88.1557 118.109C88.1106 118.08 88.1557 118.109 88.1557 118.109C88.1263 118.1 88.0871 118.047 88.0655 118.023C88.044 118 88.0381 117.994 88.0401 117.992C88.042 117.99 88.0695 118.039 88.0401 117.992C88.0107 117.945 88.0028 117.933 87.9871 117.904L87.9675 117.866C87.9381 117.806 87.9793 117.908 87.9675 117.866C87.9558 117.825 87.944 117.794 87.9342 117.757C87.9355 117.743 87.9355 117.729 87.9342 117.715C87.9519 117.735 87.9342 117.766 87.9342 117.729C87.9323 117.695 87.9323 117.66 87.9342 117.625C87.9324 117.612 87.9324 117.598 87.9342 117.584C87.9087 117.635 87.9342 117.616 87.9342 117.584C87.9436 117.546 87.9554 117.509 87.9695 117.472C87.944 117.525 87.9695 117.472 87.9695 117.472L88.0009 117.416L88.0303 117.372C88.042 117.355 88.0303 117.361 88.0185 117.386L88.0401 117.361C88.0667 117.332 88.0948 117.304 88.1243 117.278L88.1773 117.243L88.2243 117.216C88.2243 117.216 88.2968 117.18 88.2576 117.198C88.2184 117.216 88.2811 117.198 88.2851 117.188L88.3458 117.171L88.3889 117.161C88.3399 117.161 88.4517 117.147 88.3889 117.161C88.432 117.158 88.4752 117.158 88.5183 117.161C88.6656 117.149 88.7789 117.025 88.7789 116.878C88.7789 116.73 88.6656 116.607 88.5183 116.594L88.5457 116.624Z" fill="black"/>
<path d="M87.7794 110.928C90.7521 110.014 93.8785 109.709 96.9718 110.03C97.3344 110.07 97.3305 109.503 96.9718 109.466C93.8281 109.141 90.6512 109.452 87.6304 110.381C87.2835 110.489 87.4344 111.036 87.7794 110.928Z" fill="white"/>
<path d="M97.9714 110.413C98.1187 110.4 98.232 110.277 98.232 110.129C98.232 109.981 98.1187 109.858 97.9714 109.846C97.8241 109.858 97.7108 109.981 97.7108 110.129C97.7108 110.277 97.8241 110.4 97.9714 110.413Z" fill="white"/>
<path d="M99.02 110.463C99.1759 110.463 99.3022 110.337 99.3022 110.181C99.3022 110.025 99.1759 109.899 99.02 109.899C98.8641 109.899 98.7378 110.025 98.7378 110.181C98.7378 110.337 98.8641 110.463 99.02 110.463Z" fill="white"/>
<path d="M99.1298 111.465C99.2771 111.453 99.3904 111.33 99.3904 111.182C99.3904 111.034 99.2771 110.911 99.1298 110.899C98.9825 110.911 98.8691 111.034 98.8691 111.182C98.8691 111.33 98.9825 111.453 99.1298 111.465Z" fill="white"/>
<path d="M131.732 111.734C132.795 113.694 133.773 115.705 135.139 117.474C135.8 118.359 136.589 119.14 137.479 119.793C138.036 120.185 138.62 120.552 139.194 120.92C139.586 121.175 139.978 121.426 140.39 121.663C140.644 121.834 140.92 121.97 141.211 122.067C141.564 122.153 141.715 121.608 141.36 121.52C141.285 121.502 141.213 121.473 141.146 121.434C141.001 121.361 140.858 121.279 140.717 121.196C140.378 121 140.047 120.793 139.717 120.583C139.163 120.232 138.618 119.868 138.069 119.509C136.242 118.315 134.988 116.445 133.92 114.583C133.332 113.552 132.789 112.492 132.22 111.447C132.046 111.128 131.558 111.414 131.732 111.734Z" fill="black"/>
<path d="M127.171 92.8078C127.776 92.7011 128.387 92.6304 129 92.5961C129.425 92.5961 129.855 92.6451 130.278 92.6863C131.44 92.796 132.601 92.9391 133.765 93.0254C134.128 93.0508 134.126 92.4864 133.765 92.4589C132.601 92.3727 131.44 92.2296 130.278 92.1198C129.859 92.0806 129.435 92.0316 129.014 92.0297C128.396 92.0631 127.781 92.1338 127.171 92.2414C126.813 92.2845 126.809 92.8509 127.171 92.8078Z" fill="black"/>
<path d="M87.7774 101.875C89.5241 100.561 91.7318 100.018 93.8887 100.371C94.2454 100.432 94.3983 99.8873 94.0396 99.8246C91.7343 99.4321 89.3688 99.9985 87.4913 101.393C87.2032 101.608 87.4913 102.1 87.7774 101.883V101.875Z" fill="black"/>
<path d="M106.999 100.026C108.386 99.7576 109.808 99.7191 111.207 99.9128C111.843 99.9924 112.469 100.133 113.077 100.332C113.593 100.509 114.09 100.783 114.377 101.261C114.46 101.387 114.627 101.425 114.757 101.349C114.887 101.273 114.935 101.109 114.867 100.975C114.183 99.8383 112.656 99.56 111.448 99.3797C109.92 99.1527 108.365 99.1872 106.848 99.4816C106.492 99.5502 106.642 100.097 106.999 100.026Z" fill="black"/>
<path d="M73.6635 98.2566C70.9038 101.275 68.2127 104.393 66.1312 107.915C64.1712 111.247 62.7541 114.983 62.5229 118.841C63.5433 118.618 64.5411 118.302 65.504 117.898C66.5395 117.459 67.54 116.942 68.4969 116.351C69.1967 112.235 70.7215 108.104 72.3542 104.258C73.9516 100.497 75.7685 96.6396 78.6262 93.7878L78.4596 93.825C76.6603 95.052 75.1355 96.6474 73.6635 98.2566Z" fill="black"/>
<path d="M53.4696 111.875C54.3189 109.981 55.6757 108.36 57.3896 107.19C57.7953 106.916 58.3167 106.508 58.8361 106.575C59.0392 106.587 59.2216 106.703 59.3183 106.883C59.3653 107.01 59.3026 107.245 59.1497 107.275C58.9968 107.304 58.8851 107.079 58.8812 106.945C58.8812 106.685 59.0772 106.449 59.2359 106.267C59.5924 105.866 59.9733 105.487 60.3767 105.132C61.2943 104.309 62.3412 103.643 63.4754 103.161C63.8067 103.023 63.6616 102.475 63.3245 102.616C62.0606 103.148 60.8966 103.891 59.8827 104.815C59.6377 105.036 59.4006 105.268 59.1713 105.505C58.9159 105.746 58.6908 106.017 58.5009 106.312C58.2285 106.788 58.2442 107.5 58.8008 107.772C59.3281 108.031 59.871 107.557 59.9004 107.024C59.9317 106.424 59.3516 106.032 58.8067 106.001C58.1325 105.959 57.5013 106.418 56.9761 106.785C55.2348 107.992 53.8548 109.651 52.9835 111.583C52.8346 111.914 53.3226 112.202 53.4716 111.869L53.4696 111.875Z" fill="white"/>
<path d="M65.7 101.887L65.7706 101.816C65.7972 101.791 65.8174 101.76 65.8294 101.726C65.8469 101.692 65.855 101.654 65.8529 101.616C65.8552 101.578 65.8471 101.54 65.8294 101.506C65.8179 101.472 65.7976 101.441 65.7706 101.416L65.7137 101.371C65.67 101.347 65.6208 101.333 65.5707 101.332L65.4942 101.344C65.4472 101.356 65.4045 101.381 65.3707 101.416L65.3002 101.487C65.2731 101.511 65.2529 101.542 65.2414 101.577C65.2237 101.611 65.2156 101.649 65.2179 101.687C65.2152 101.724 65.2234 101.761 65.2414 101.794C65.2529 101.83 65.2731 101.861 65.3002 101.887L65.357 101.93C65.4004 101.955 65.4498 101.969 65.5001 101.969L65.5746 101.959C65.6221 101.946 65.6653 101.921 65.7 101.887Z" fill="white"/>
<path d="M67.5365 100.565C67.6838 100.553 67.7971 100.43 67.7971 100.282C67.7971 100.134 67.6838 100.011 67.5365 99.999C67.3892 100.011 67.2759 100.134 67.2759 100.282C67.2759 100.43 67.3892 100.553 67.5365 100.565Z" fill="white"/>
<path d="M66.8349 102.6C66.9907 102.6 67.1171 102.474 67.1171 102.318C67.1171 102.162 66.9907 102.035 66.8349 102.035C66.679 102.035 66.5526 102.162 66.5526 102.318C66.5526 102.474 66.679 102.6 66.8349 102.6Z" fill="white"/>
<path d="M132.779 108.039L134.326 111.712C134.761 112.745 135.215 113.807 136.019 114.613C136.388 114.99 136.828 115.29 137.315 115.495C137.734 115.669 138.428 115.887 138.804 115.528C139.373 114.975 139.086 113.151 138.044 113.476C137.456 113.66 137.575 114.411 137.742 114.848C137.95 115.399 138.293 115.889 138.739 116.273C139.014 116.51 139.416 116.11 139.131 115.881C138.837 115.631 138.592 115.328 138.41 114.987C138.34 114.856 137.975 114.121 138.214 114.021C138.375 113.956 138.465 114.26 138.481 114.356C138.507 114.536 138.507 114.719 138.481 114.899C138.449 115.117 138.377 115.173 138.151 115.15C137.95 115.125 137.752 115.074 137.563 114.999C135.911 114.368 135.249 112.482 134.623 110.993L133.32 107.888C133.181 107.559 132.632 107.704 132.773 108.039H132.779Z" fill="white"/>
<path d="M141.035 118.386L141.14 118.28C141.168 118.255 141.187 118.223 141.197 118.188C141.216 118.155 141.225 118.118 141.223 118.08C141.224 118.042 141.215 118.004 141.197 117.97C141.187 117.936 141.167 117.904 141.14 117.88L141.082 117.835C141.038 117.81 140.989 117.797 140.939 117.796L140.864 117.808C140.816 117.82 140.773 117.845 140.739 117.88L140.635 117.984C140.607 118.009 140.587 118.041 140.576 118.076C140.542 118.145 140.542 118.225 140.576 118.294C140.586 118.329 140.607 118.361 140.635 118.386L140.692 118.429C140.735 118.455 140.784 118.468 140.835 118.468L140.909 118.458C140.957 118.446 141 118.421 141.035 118.386Z" fill="white"/>
<path d="M142.003 116.51L141.897 116.616C141.87 116.641 141.85 116.672 141.838 116.706C141.821 116.74 141.813 116.778 141.815 116.816C141.812 116.854 141.82 116.892 141.838 116.926C141.85 116.96 141.87 116.991 141.897 117.016L141.956 117.061C141.999 117.086 142.047 117.099 142.097 117.098L142.173 117.088C142.221 117.075 142.264 117.05 142.299 117.016L142.403 116.91C142.43 116.885 142.45 116.854 142.461 116.82C142.479 116.786 142.488 116.748 142.487 116.71C142.488 116.672 142.479 116.635 142.461 116.602C142.45 116.567 142.43 116.535 142.403 116.51L142.346 116.467C142.302 116.441 142.253 116.428 142.203 116.428L142.128 116.438C142.081 116.45 142.037 116.475 142.003 116.51Z" fill="white"/>
<path d="M142.309 119.626C142.456 119.614 142.569 119.491 142.569 119.343C142.569 119.195 142.456 119.072 142.309 119.06C142.161 119.072 142.048 119.195 142.048 119.343C142.048 119.491 142.161 119.614 142.309 119.626Z" fill="white"/>
<path d="M144.353 119.621C145.801 120.716 147.55 121.341 149.365 121.41C149.729 121.424 149.729 120.857 149.365 120.844C147.65 120.771 146 120.173 144.637 119.131C144.349 118.911 144.067 119.403 144.353 119.621Z" fill="white"/>
<path d="M19.8674 65.1561C18.6772 67.4476 18.171 70.033 18.4091 72.6041C18.6365 74.9561 19.6106 77.463 21.892 78.4998C22.898 78.9893 24.0639 79.0313 25.1025 78.6154C26.1119 78.1803 26.841 77.1964 26.7764 76.0674C26.7156 74.9992 25.7964 73.9114 24.6458 74.3034C23.4953 74.6954 23.166 75.9459 23.2876 77.0357C23.56 79.568 25.324 81.6632 27.384 83.0254C27.6897 83.2214 27.972 82.7373 27.6701 82.5374C26.0786 81.4868 24.6792 79.9894 24.0951 78.1313C23.8187 77.2591 23.5659 75.993 24.2382 75.2305C24.5126 74.9189 24.9594 74.6954 25.3769 74.8268C25.8336 74.9718 26.1158 75.4481 26.1923 75.8969C26.3569 76.8769 25.7023 77.7648 24.8203 78.1215C23.9121 78.4565 22.9046 78.3917 22.0469 77.9432C20.0869 76.9749 19.2245 74.8248 18.9952 72.7688C18.7238 70.2449 19.2009 67.6969 20.3672 65.4423C20.5338 65.1189 20.0457 64.8327 19.8772 65.1561H19.8674Z" fill="#96AF9C"/>
<path d="M6.70399 83.8232C8.75531 86.4654 11.2146 88.7639 13.9893 90.6322C14.7733 91.1614 15.5834 91.6547 16.4197 92.112C16.7392 92.2864 17.0254 91.7984 16.7059 91.622C13.8042 90.0292 11.1754 87.9833 8.91879 85.5617C8.28245 84.8757 7.67746 84.1629 7.10383 83.4233C6.88039 83.1352 6.48251 83.539 6.71183 83.8153L6.70399 83.8232Z" fill="#96AF9C"/>
<path d="M160.368 90.2441C163.96 88.7028 167.409 86.848 170.676 84.7012C171.599 84.0963 172.506 83.4671 173.396 82.8138C173.686 82.6021 173.396 82.1101 173.11 82.3257C169.954 84.6326 166.601 86.6572 163.09 88.3762C162.099 88.861 161.096 89.3183 160.082 89.7482C159.749 89.8913 160.035 90.3794 160.368 90.2363V90.2441Z" fill="#96AF9C"/>
<path d="M137.213 53.5882C135.663 56.9855 134.251 60.4358 132.977 63.939C132.618 64.9333 132.269 65.9303 131.932 66.9299C131.817 67.2768 132.364 67.4238 132.479 67.0808C133.655 63.5777 134.974 60.1261 136.434 56.7262C136.846 55.7697 137.268 54.8184 137.701 53.8724C137.852 53.5431 137.364 53.257 137.213 53.5882Z" fill="#96AF9C"/>
<path d="M78.6537 53.5235L78.2323 64.0546C78.2166 64.4192 78.783 64.4192 78.7987 64.0546L79.224 53.5235C79.2397 53.159 78.6733 53.1609 78.6595 53.5235H78.6537Z" fill="#96AF9C"/>
<path d="M192.828 91.3692C191.991 94.5295 190.203 97.3558 187.704 99.464C186.468 100.518 185.077 101.374 183.578 102.002C182.236 102.559 180.687 103.064 179.223 102.727C178.592 102.58 178.012 102.253 177.712 101.657C177.383 101.003 177.567 100.207 177.996 99.6443C179.082 98.2233 181.185 98.7662 182.181 99.9932C183.271 101.336 183.357 103.292 182.922 104.893C182.487 106.494 181.501 107.927 180.287 109.06C177.471 111.712 173.529 112.496 169.837 113.049L168.369 113.256C168.01 113.305 168.163 113.844 168.52 113.801C172.549 113.245 176.877 112.625 180.127 109.962C181.546 108.827 182.636 107.334 183.282 105.636C183.896 103.933 183.943 101.912 183.055 100.289C182.196 98.7211 180.191 97.6706 178.474 98.5251C177.02 99.2464 176.444 101.304 177.636 102.518C178.716 103.615 180.576 103.521 181.948 103.159C183.639 102.697 185.239 101.951 186.681 100.954C189.603 98.9597 191.816 96.0886 193 92.7549C193.141 92.3485 193.265 91.9369 193.37 91.5201C193.412 91.3696 193.323 91.2143 193.172 91.1732C193.022 91.132 192.867 91.2207 192.826 91.3711L192.828 91.3692Z" fill="#96AF9C"/>
<path d="M168.012 129.617C171.566 129.839 175.133 129.552 178.606 128.764C179.603 128.537 180.589 128.267 181.565 127.956C181.91 127.847 181.761 127.3 181.414 127.412C178.052 128.479 174.553 129.055 171.026 129.123C170.019 129.142 169.013 129.12 168.008 129.056C167.643 129.033 167.645 129.599 168.008 129.622L168.012 129.617Z" fill="#96AF9C"/>
<path d="M161.691 142.443C163.98 142.729 166.303 142.543 168.518 141.896C168.867 141.794 168.714 141.247 168.369 141.351C166.202 141.981 163.93 142.16 161.691 141.878C161.33 141.831 161.334 142.398 161.691 142.443Z" fill="#96AF9C"/>
<path d="M71.7603 157.805C70.4944 163.266 70.0374 168.882 70.404 174.475C70.5059 176.031 70.6719 177.58 70.9018 179.122C70.9548 179.483 71.5016 179.33 71.4487 178.973C70.646 173.518 70.646 167.974 71.4487 162.519C71.6734 160.988 71.9615 159.467 72.313 157.956C72.3953 157.601 71.8505 157.451 71.7681 157.805H71.7603Z" fill="#96AF9C"/>
<path d="M64.2026 164.207C63.8971 167.604 64.0017 171.026 64.5142 174.399C64.5691 174.757 65.114 174.604 65.0611 174.248C64.5602 170.926 64.4622 167.556 64.769 164.211C64.8004 163.848 64.2359 163.85 64.2026 164.211V164.207Z" fill="#96AF9C"/>
<path d="M127.362 169.581L128.342 179.659L128.624 182.533C128.659 182.891 129.226 182.895 129.19 182.533L128.2 172.452L127.918 169.581C127.883 169.22 127.317 169.218 127.352 169.581H127.362Z" fill="#96AF9C"/>
<path d="M134.337 172.737L134.97 178.421C135.01 178.779 135.576 178.783 135.535 178.421L134.904 172.737C134.864 172.38 134.298 172.376 134.337 172.737Z" fill="#96AF9C"/>
</svg>
