<svg width="200" height="227" viewBox="0 0 200 227" fill="none" xmlns="http://www.w3.org/2000/svg">
<path d="M109.677 9.81413C108.049 9.81413 106.569 10.4346 105.448 11.4453C104.33 13.2259 102.354 14.4129 100.096 14.4129C98.1788 14.4129 96.4645 13.5566 95.3052 12.2095C95.2992 12.216 95.2931 12.2219 95.2874 12.2287C94.1296 10.7601 92.3388 9.81413 90.3234 9.81413C86.831 9.81413 84 12.6454 84 16.1376C84 19.63 86.831 22.461 90.3234 22.461C92.2496 22.461 93.972 21.5966 95.1315 20.238C95.1615 20.2757 95.1875 20.3162 95.218 20.3532C96.3778 18.9488 98.1321 18.0537 100.096 18.0537C102.062 18.0537 103.819 18.9515 104.978 20.3591C106.136 21.6466 107.809 22.461 109.677 22.461C113.169 22.461 116 19.63 116 16.1376C116 12.6454 113.169 9.81413 109.677 9.81413Z" fill="#100F0D"/>
<path d="M95.4014 5.59878C95.4014 3.05883 97.4602 0.999992 100 0.999992C102.54 0.999992 104.599 3.05883 104.599 5.59878C104.599 8.13849 102.54 10.1973 100 10.1973C97.4602 10.1973 95.4014 8.13849 95.4014 5.59878Z" fill="#100F0D"/>
<path d="M95.4014 27.0598C95.4014 24.5198 97.4602 22.461 100 22.461C102.54 22.461 104.599 24.5198 104.599 27.0598C104.599 29.5995 102.54 31.6585 100 31.6585C97.4602 31.6585 95.4014 29.5995 95.4014 27.0598Z" fill="#100F0D"/>
<path d="M158.335 122.069C159.511 121.359 160.582 120.444 161.228 119.242C162.222 117.4 162.071 115.148 161.577 113.113C159.97 106.514 155.052 101.04 149.153 97.6725C143.469 94.4268 136.928 92.9685 130.403 92.3433C129.043 90.6263 127.383 89.2406 125.307 88.4978L121.325 87.6236C117.351 87.0466 113.343 86.7343 109.328 86.6887C106.597 91.0458 104.91 96.034 103.808 101.075C103.146 104.105 102.677 107.214 102.952 110.303C103.226 113.392 104.294 116.485 106.39 118.772C109.112 121.745 113.33 123.058 117.366 122.888C121.401 122.717 125.258 121.185 128.773 119.207C129.269 118.929 129.829 118.629 130.38 118.772C130.815 118.884 131.131 119.244 131.429 119.579C133.095 121.435 135.05 123.009 137.218 124.24C137.565 122.764 137.799 121.264 137.918 119.752C138.659 120.273 139.419 120.767 140.211 121.22C145.715 124.366 152.92 125.367 158.335 122.069Z" fill="#FF773D"/>
<path d="M72.3639 104.264C73.9613 100.503 75.7782 96.6455 78.6359 93.7937C71.168 95.2766 64.1617 98.5201 58.199 103.255C55.1296 105.699 52.2818 108.654 50.9882 112.357C50.6765 113.249 50.4609 114.227 50.7412 115.128C51.0215 116.03 51.7212 116.683 52.4758 117.214C56.1998 119.832 61.3272 119.668 65.5176 117.904C66.5531 117.465 67.5536 116.948 68.5106 116.357C69.1966 112.227 70.7214 108.104 72.3639 104.264Z" fill="#FF773D"/>
<path d="M121.519 116.973C122.358 117.688 122.88 118.707 122.971 119.807C123.066 120.939 122.776 122.07 122.148 123.017C120.756 125.173 118.228 126.177 115.77 126.502C112.999 126.869 110.143 126.612 107.426 126.002C106.034 125.686 104.664 125.28 103.324 124.787C102.671 124.548 102.034 124.274 101.386 124.021C101.105 123.894 100.794 123.852 100.49 123.901C100.177 123.999 99.8829 124.147 99.6176 124.338C98.3475 125.097 96.9207 125.538 95.4801 125.846C94.7549 126.002 94.0199 126.124 93.2868 126.238C92.9585 126.302 92.6267 126.347 92.2931 126.373C92.0971 126.373 91.7208 126.388 91.6287 126.157C91.595 126.051 91.5027 125.973 91.3918 125.958C91.2809 125.944 91.1715 125.994 91.1112 126.089C90.8349 126.559 90.143 126.569 89.6647 126.61C89.0373 126.667 88.4072 126.69 87.7773 126.679C86.5079 126.674 85.2502 126.437 84.067 125.977C82.0835 125.165 80.3136 123.305 80.2234 121.077C80.1627 119.621 80.8643 118.29 81.5954 117.077C81.6637 116.942 81.6154 116.778 81.4854 116.702C81.3554 116.626 81.1888 116.665 81.1054 116.79C80.3783 118.009 79.6942 119.338 79.6609 120.789C79.6578 121.967 80.0367 123.115 80.7409 124.06C82.3089 126.24 84.9215 127.127 87.5225 127.229C88.3244 127.257 89.1274 127.229 89.9254 127.145C90.5565 127.082 91.2543 126.963 91.6032 126.361L91.0857 126.294C91.2994 126.822 91.8345 126.955 92.3597 126.922C93.035 126.857 93.7063 126.756 94.3707 126.62C95.7492 126.412 97.1011 126.055 98.4024 125.555C99.0441 125.278 99.6662 124.957 100.264 124.595C100.561 124.41 100.933 124.393 101.244 124.552C101.58 124.685 101.909 124.83 102.246 124.964C103.657 125.525 105.103 125.994 106.576 126.365C109.424 127.078 112.413 127.41 115.343 127.106C117.993 126.829 120.684 125.904 122.348 123.711C123.174 122.657 123.602 121.344 123.555 120.005C123.488 118.697 122.944 117.404 121.922 116.559C121.644 116.328 121.24 116.726 121.53 116.951L121.519 116.973Z" fill="black"/>
<path d="M108.592 109.919C108.155 110.026 107.714 109.664 107.571 109.238C107.428 108.813 107.501 108.347 107.571 107.904C107.716 107.053 107.875 106.169 108.381 105.469C108.659 105.077 109.098 104.754 109.567 104.821C110.221 104.915 110.519 105.675 110.664 106.32C110.95 107.604 111.125 108.91 111.187 110.224C111.252 111.596 111.187 112.99 110.795 114.303C110.654 114.764 110.437 115.252 110.002 115.458C109.521 115.685 108.924 115.469 108.551 115.089C108.179 114.709 107.981 114.197 107.793 113.699C107.538 113.029 107.279 112.327 107.381 111.614C107.483 110.901 108.089 110.215 108.802 110.283" fill="black"/>
<path d="M108.516 109.646C108.175 109.711 107.899 109.372 107.818 109.076C107.707 108.668 107.806 108.225 107.877 107.819C108.004 107.092 108.148 106.338 108.563 105.712C108.741 105.442 109.018 105.152 109.347 105.101C109.633 105.078 109.905 105.226 110.041 105.479C110.433 106.079 110.505 106.906 110.629 107.594C110.907 109.262 111.046 111.01 110.843 112.69C110.791 113.118 110.709 113.542 110.598 113.958C110.526 114.297 110.393 114.621 110.206 114.913C109.745 115.544 108.943 115.197 108.565 114.666C108.339 114.313 108.159 113.933 108.03 113.535C107.844 113.103 107.716 112.648 107.65 112.182C107.581 111.475 107.94 110.507 108.798 110.56C109.163 110.583 109.161 110.017 108.798 109.995C107.957 109.94 107.266 110.679 107.117 111.465C106.921 112.445 107.364 113.478 107.752 114.358C108.099 115.142 108.781 115.926 109.727 115.816C110.674 115.706 110.991 114.717 111.186 113.933C111.693 111.873 111.527 109.65 111.186 107.576C111.048 106.732 110.954 105.691 110.39 105.003C109.825 104.315 108.884 104.462 108.316 105.087C107.597 105.871 107.409 107.028 107.254 108.045C107.173 108.574 107.13 109.164 107.44 109.63C107.69 110.05 108.172 110.271 108.653 110.187C109.01 110.119 108.849 109.574 108.502 109.64L108.516 109.646Z" fill="black"/>
<path d="M90.484 109.919C90.047 110.026 89.606 109.664 89.4629 109.238C89.3198 108.813 89.3923 108.347 89.4629 107.904C89.6079 107.053 89.7667 106.169 90.2724 105.469C90.5507 105.077 90.9897 104.754 91.4582 104.821C92.1128 104.915 92.4127 105.675 92.5558 106.32C92.8416 107.604 93.0166 108.91 93.0791 110.224C93.1457 111.596 93.0791 112.99 92.6871 114.303C92.5479 114.764 92.3304 115.252 91.9031 115.458C91.4209 115.685 90.8251 115.469 90.4527 115.089C90.0803 114.709 89.8804 114.197 89.6922 113.699C89.4374 113.029 89.1787 112.327 89.2826 111.614C89.3864 110.901 89.9882 110.215 90.7016 110.283" fill="black"/>
<path d="M90.4076 109.646C90.0665 109.711 89.7902 109.372 89.7098 109.076C89.5981 108.668 89.6981 108.225 89.7686 107.819C89.896 107.092 90.0411 106.338 90.4546 105.712C90.6349 105.442 90.9113 105.152 91.2484 105.101C91.5343 105.078 91.8068 105.226 91.9423 105.479C92.3343 106.079 92.4068 106.906 92.5303 107.594C92.8422 109.274 92.9148 110.99 92.7459 112.69C92.6937 113.118 92.6119 113.542 92.5009 113.958C92.4289 114.297 92.2961 114.621 92.1089 114.913C91.6483 115.544 90.8466 115.197 90.4703 114.666C90.2437 114.313 90.0632 113.933 89.9333 113.535C89.7485 113.102 89.6207 112.648 89.553 112.182C89.4844 111.475 89.8451 110.507 90.7016 110.56C91.0661 110.583 91.0642 110.017 90.7016 109.995C89.8627 109.94 89.1708 110.679 89.0199 111.465C88.8337 112.445 89.2669 113.478 89.6569 114.358C90.0019 115.142 90.6839 115.926 91.6306 115.816C92.5773 115.706 92.8968 114.717 93.0889 113.933C93.5985 111.873 93.4319 109.65 93.0889 107.576C92.9536 106.732 92.8576 105.691 92.2931 105.003C91.7286 104.315 90.7878 104.462 90.2194 105.087C89.5021 105.871 89.3139 107.028 89.1571 108.045C89.0767 108.574 89.0336 109.164 89.3433 109.63C89.593 110.05 90.0758 110.271 90.5565 110.187C90.9152 110.119 90.7623 109.574 90.4056 109.64L90.4076 109.646Z" fill="black"/>
<path d="M102.475 143.346C100.882 143.241 99.2904 143.097 97.7047 142.935C93.7691 142.543 89.802 142.014 86.0016 140.957C79.7766 160.075 79.0063 184.34 81.4936 197.209C81.5877 197.697 81.6896 198.222 81.474 198.673C81.1761 199.314 80.3646 199.581 80.0334 200.206C79.6414 200.959 80.1373 201.939 80.884 202.352C81.6308 202.766 82.5304 202.764 83.383 202.744C87.256 202.653 91.1204 202.391 94.9764 201.96C96.0721 201.839 97.2147 201.686 98.1222 201.059C100.155 199.647 100.07 196.668 99.7667 194.21C97.6479 177.147 95.6389 159.054 102.475 143.346Z" fill="#FF773D"/>
<path d="M121.26 141.471C119.671 142.025 118.042 142.459 116.387 142.77C112.722 143.462 108.99 143.611 105.257 143.484C98.9415 162.268 102.217 184.561 104.655 197.203C104.749 197.691 104.851 198.217 104.635 198.667C104.337 199.308 103.524 199.575 103.195 200.2C102.803 200.953 103.299 201.933 104.045 202.346C104.792 202.76 105.692 202.758 106.544 202.738C110.417 202.647 114.282 202.386 118.138 201.954C119.233 201.833 120.376 201.68 121.284 201.053C123.316 199.642 123.232 196.662 122.928 194.204C120.972 178.352 116.503 157.172 121.26 141.471V141.471Z" fill="#FF773D"/>
<path d="M102.475 143.072C98.1633 142.786 93.8317 142.362 89.5961 141.524C88.4201 141.288 87.2441 141.016 86.0779 140.695C85.9278 140.655 85.7736 140.742 85.729 140.891C84.3101 145.312 83.1749 149.82 82.3304 154.387C81.468 158.968 80.8486 163.599 80.4409 168.238C80.0587 172.627 79.8647 177.033 79.8902 181.437C79.894 185.253 80.1112 189.065 80.5409 192.856C80.6363 193.667 80.7467 194.478 80.8721 195.288C80.9976 196.1 81.1995 196.911 81.2916 197.727C81.3442 198.018 81.3081 198.318 81.1877 198.589C81.0584 198.799 80.8893 198.981 80.6899 199.126C80.3331 199.42 79.9451 199.694 79.7451 200.126C79.3237 201.027 79.898 202.086 80.6997 202.562C81.7267 203.166 83.034 203.026 84.1728 202.993C85.5774 202.95 86.9828 202.885 88.3887 202.797C89.7725 202.713 91.155 202.608 92.5361 202.48C93.814 202.362 95.1253 202.284 96.3855 202.031C97.4263 201.819 98.4102 201.37 99.0845 200.527C99.6473 199.78 99.9998 198.895 100.106 197.966C100.415 195.81 99.9684 193.605 99.7136 191.47C99.108 186.455 98.5553 181.429 98.2632 176.378C97.9712 171.38 97.932 166.355 98.3828 161.365C98.8277 156.431 99.7685 151.531 101.403 146.849C101.803 145.706 102.243 144.579 102.722 143.47C102.865 143.141 102.379 142.851 102.234 143.186C100.322 147.663 99.0043 152.372 98.3142 157.192C97.5949 162.017 97.3969 166.908 97.5086 171.782C97.6223 176.78 98.0535 181.766 98.5984 186.735C98.8689 189.187 99.1668 191.635 99.4686 194.087C99.6921 195.906 99.9175 198.06 98.9551 199.72C98.4063 200.667 97.489 201.192 96.4424 201.435C95.1939 201.723 93.8748 201.784 92.6008 201.901C89.8568 202.156 87.1095 202.326 84.359 202.411C83.2653 202.444 81.8365 202.662 80.88 201.995C80.4553 201.714 80.192 201.246 80.1724 200.737C80.1881 200.226 80.5977 199.916 80.9564 199.622C81.3151 199.328 81.6757 199.001 81.809 198.526C81.9541 198.011 81.8227 197.464 81.7267 196.958C81.5856 196.215 81.4621 195.469 81.3504 194.72C80.8488 191.147 80.5622 187.547 80.4919 183.94C80.3821 179.716 80.4919 175.485 80.7683 171.269C81.074 166.682 81.5895 162.108 82.3363 157.572C83.0656 153.052 84.0584 148.579 85.3096 144.175C85.6114 143.12 85.9322 142.069 86.2719 141.024L85.925 141.22C90.0861 142.37 94.3903 142.892 98.6787 143.305C99.941 143.427 101.207 143.535 102.473 143.619C102.838 143.66 102.836 143.086 102.475 143.072Z" fill="black"/>
<path d="M121.184 141.198C117.211 142.57 113.024 143.143 108.836 143.229C107.646 143.254 106.454 143.241 105.264 143.201C105.138 143.204 105.027 143.288 104.99 143.409C103.477 148.022 102.451 152.781 101.927 157.607C101.398 162.383 101.214 167.191 101.378 171.994C101.509 176.435 101.887 180.869 102.448 185.277C102.92 188.989 103.52 192.684 104.212 196.36C104.298 196.815 104.408 197.274 104.465 197.732C104.517 198.024 104.481 198.324 104.361 198.595C104.231 198.805 104.062 198.988 103.861 199.132C103.487 199.444 103.077 199.73 102.891 200.196C102.729 200.62 102.745 201.092 102.936 201.504C103.383 202.546 104.457 202.936 105.517 203.009C106.143 203.052 106.774 203.009 107.397 202.997C108.124 202.975 108.849 202.946 109.574 202.913C112.355 202.782 115.131 202.568 117.903 202.27C119.079 202.141 120.329 202.021 121.346 201.36C122.123 200.836 122.704 200.068 122.997 199.177C123.651 197.305 123.349 195.228 123.104 193.311C122.824 191.123 122.516 188.938 122.207 186.755C121.54 182.068 120.86 177.38 120.341 172.674C119.812 167.888 119.435 163.07 119.429 158.256C119.429 153.687 119.745 149.089 120.737 144.618C120.966 143.586 121.233 142.559 121.538 141.545C121.644 141.194 121.097 141.045 120.993 141.394C119.719 145.61 119.145 150.018 118.947 154.405C118.732 159.109 118.947 163.825 119.361 168.517C119.774 173.209 120.384 177.866 121.039 182.523C121.35 184.753 121.674 186.984 121.985 189.216C122.273 191.27 122.62 193.332 122.769 195.406C122.901 197.209 122.848 199.449 121.317 200.698C120.364 201.468 119.073 201.59 117.901 201.717C116.536 201.865 115.17 201.995 113.802 202.109C112.434 202.223 111.062 202.308 109.686 202.366C108.369 202.427 107.032 202.529 105.713 202.478C104.733 202.44 103.326 202.031 103.332 200.796C103.332 200.29 103.724 199.977 104.09 199.687C104.457 199.397 104.841 199.055 104.976 198.565C105.123 198.036 104.986 197.474 104.884 196.948C104.81 196.556 104.737 196.164 104.663 195.772C104.51 194.945 104.36 194.117 104.214 193.287C103.898 191.432 103.604 189.581 103.332 187.735C102.73 183.522 102.289 179.287 102.058 175.038C101.789 170.376 101.821 165.702 102.156 161.045C102.488 156.254 103.28 151.506 104.52 146.867C104.823 145.756 105.158 144.654 105.525 143.56L105.253 143.768C109.482 143.907 113.757 143.703 117.891 142.741C119.054 142.47 120.202 142.138 121.331 141.745C121.677 141.626 121.53 141.079 121.184 141.198Z" fill="black"/>
<path d="M147.824 64.8778C149.592 60.9186 151.502 57.0287 153.555 53.208C154.129 52.1398 155.162 50.8991 156.299 51.3499C156.946 51.6086 157.257 52.3299 157.432 53.0159C158.031 55.3919 157.752 57.9042 156.648 60.0915C156.468 60.4462 156.23 60.8186 155.848 60.9304C155.466 61.0421 154.968 60.6893 155.103 60.3149C156.524 59.1193 157.985 57.9002 159.731 57.271C161.477 56.6419 163.6 56.7164 165.001 57.9374C166.403 59.1585 166.624 61.6732 165.15 62.8041C164.941 62.9922 164.665 63.087 164.384 63.0668C163.774 62.9648 163.696 61.9966 164.188 61.6124C164.68 61.2283 165.382 61.3145 165.952 61.5517C167.553 62.2156 168.577 63.7991 168.527 65.5314C168.476 67.2637 167.361 68.7848 165.725 69.3544C165.564 68.1784 167.32 67.4866 168.273 68.2039C169.225 68.9213 169.329 70.3364 168.966 71.4654C168.408 73.2039 166.973 74.5504 165.356 75.3991C163.739 76.2478 161.94 76.6652 160.16 77.0749L151.252 79.1172C150.648 79.2564 149.747 79.1819 149.743 78.5606" fill="#FF773D"/>
<path d="M55.2316 83.684C52.3632 80.4787 49.9132 76.9223 47.9404 73.1C46.9232 71.1224 46.0275 68.9997 46.0157 66.7751C46.004 64.5505 47.0565 62.1946 49.0635 61.2361C51.1313 60.2561 53.7205 60.9911 55.4061 62.5434C57.0917 64.0958 58.0148 66.3066 58.6205 68.5175C58.7479 68.984 58.8616 69.4975 58.6832 69.9405C58.5048 70.3834 57.9129 70.701 57.5209 70.4187C57.3446 70.2661 57.224 70.0593 57.1779 69.8307C56.4351 67.2376 58.4813 64.7524 60.3708 62.8276C62.0858 61.0813 64.3652 59.184 66.6898 59.9484C67.7992 60.313 68.638 61.242 69.2535 62.2357C71.2742 65.503 71.3468 69.6974 70.2335 73.3744C69.1202 77.0514 66.923 80.2971 64.6004 83.3567C63.591 84.6895 62.4444 86.0713 60.8451 86.5534C59.2457 87.0356 57.1309 86.1183 57.0192 84.4484" fill="#FF773D"/>
<path d="M72.5991 104.401C73.8359 101.489 75.1687 98.58 77.0679 96.032C77.6061 95.3122 78.1957 94.6323 78.8319 93.9975C78.919 93.9052 78.9349 93.7667 78.871 93.657C78.8072 93.5474 78.6788 93.4929 78.5555 93.5232C73.9821 94.4348 69.5647 96.0041 65.4412 98.1821C63.3799 99.27 61.4015 100.508 59.522 101.887C57.6836 103.198 55.9769 104.685 54.426 106.326C52.9481 107.937 51.682 109.758 50.8843 111.8C50.4609 112.882 50.0885 114.133 50.4923 115.277C50.8411 116.296 51.6839 117.041 52.5542 117.612C56.1488 120.003 60.9018 119.915 64.8375 118.476C65.97 118.056 67.0639 117.539 68.1068 116.93C68.3204 116.806 68.6948 116.679 68.783 116.436C68.8226 116.287 68.8495 116.134 68.8633 115.981C68.8973 115.799 68.9326 115.617 68.9692 115.434C69.0946 114.811 69.2377 114.189 69.3925 113.572C70.0556 111.057 70.8858 108.589 71.8778 106.185C72.1169 105.592 72.3619 105 72.6128 104.409C72.7539 104.078 72.2659 103.788 72.1248 104.123C70.8273 107.179 69.6356 110.289 68.8241 113.513C68.5948 114.429 68.3969 115.354 68.2361 116.285L68.3655 116.116C65.255 118.013 61.6917 119.199 58.0108 118.874C56.3095 118.74 54.6615 118.219 53.1931 117.349C52.4581 116.902 51.7133 116.369 51.2645 115.61C50.7549 114.758 50.849 113.772 51.1214 112.866C52.1426 109.429 54.6788 106.61 57.3503 104.327C60.2175 101.896 63.371 99.8257 66.7407 98.1606C70.115 96.4799 73.6771 95.2061 77.3521 94.366C77.8029 94.2641 78.2557 94.168 78.7104 94.0779L78.434 93.6036C76.1702 95.8752 74.5787 98.6996 73.24 101.594C72.848 102.433 72.4835 103.28 72.1228 104.131C71.9719 104.446 72.456 104.736 72.5991 104.401Z" fill="black"/>
<path d="M161.85 113.039C160.268 106.634 155.683 101.34 150.144 97.9312C146.897 95.934 143.284 94.5463 139.609 93.6036C137.736 93.1299 135.839 92.7556 133.925 92.4824C132.973 92.3439 132.017 92.225 131.058 92.1257C130.869 92.1326 130.68 92.0985 130.505 92.0258C130.36 91.8901 130.232 91.7374 130.123 91.571C129.833 91.2378 129.535 90.9164 129.208 90.6146C128.138 89.6052 126.783 88.6173 125.349 88.2175C124.549 87.996 123.714 87.8588 122.904 87.6824C120 87.0454 117.024 86.771 114.065 86.5809C105.747 86.0373 97.3939 86.652 89.2453 88.4076C85.7173 89.1779 82.1893 90.3225 79.3865 92.6902C76.7758 94.8991 74.9765 97.9018 73.5183 100.954C71.8908 104.309 70.515 107.782 69.4023 111.342C68.2968 114.96 67.5677 118.78 67.8715 122.576C68.1316 126.075 69.3946 129.425 71.5093 132.225C73.4987 134.834 76.1172 136.929 78.9886 138.497C82.3206 140.312 85.9956 141.406 89.7059 142.119C93.6573 142.882 97.6929 143.295 101.705 143.582C109.378 144.146 117.35 143.846 124.414 140.483C127.481 139.023 130.315 136.998 132.522 134.407C134.855 131.663 136.442 128.354 137.34 124.879C137.771 123.197 138.057 121.48 138.194 119.748L137.769 119.991C141.364 122.516 145.535 124.219 149.964 124.383C152.055 124.48 154.144 124.165 156.113 123.456C157.996 122.757 159.895 121.663 161.087 120.005C162.541 117.982 162.4 115.354 161.85 113.043C161.765 112.688 161.218 112.847 161.303 113.194C161.787 115.218 161.965 117.506 160.84 119.356C159.797 121.071 157.861 122.192 156.03 122.884C152.291 124.299 148.096 124.017 144.355 122.768C142.108 121.991 139.986 120.891 138.055 119.503C137.859 119.37 137.646 119.554 137.628 119.748C137.338 123.319 136.442 126.865 134.776 130.05C133.175 133.103 130.869 135.73 128.049 137.713C122.034 141.965 114.574 143.274 107.344 143.248C103.332 143.233 99.3197 142.868 95.3389 142.398C91.4934 141.945 87.644 141.294 83.971 140.046C77.699 137.909 71.6818 133.65 69.4121 127.188C66.8798 119.981 69.4003 112.139 72.1835 105.401C73.4752 102.265 74.8472 99.1131 76.8287 96.3515C77.7878 94.9883 78.9369 93.7693 80.2411 92.7314C81.6975 91.6286 83.3196 90.764 85.047 90.1696C88.671 88.8682 92.5871 88.2528 96.3895 87.751C104.467 86.6846 112.652 86.711 120.723 87.8294C121.497 87.9372 122.256 88.1254 123.02 88.2939C123.749 88.4527 124.506 88.5722 125.223 88.7761C126.74 89.2073 128.151 90.3225 129.227 91.4338C129.502 91.718 129.764 92.0218 130.011 92.3178C130.127 92.4589 130.19 92.5765 130.362 92.6275C130.592 92.6718 130.824 92.6954 131.058 92.698C132.021 92.7973 132.981 92.9182 133.939 93.0606C137.663 93.6134 141.358 94.4993 144.854 95.9144C151.04 98.4193 156.638 102.774 159.682 108.821C160.384 110.214 160.926 111.683 161.299 113.198C161.391 113.543 161.936 113.394 161.85 113.039Z" fill="black"/>
<path d="M103.99 121.202L101.844 112.382C101.599 111.375 101.337 110.33 100.68 109.527C99.5276 108.115 97.5029 107.827 95.6801 107.821C92.4324 107.81 89.2073 108.362 86.1486 109.454C85.3156 109.752 84.412 110.171 84.0945 110.999C83.875 111.565 83.9848 112.2 84.0945 112.796C85.6552 120.781 87.69 128.665 90.1882 136.408C90.5076 137.4 90.8702 138.442 91.6797 139.099C92.3304 139.626 93.1811 139.828 94.0043 139.981C96.683 140.475 99.4148 140.618 102.13 140.404C103.408 140.303 104.749 140.095 105.756 139.299C107.017 138.301 107.483 136.555 107.324 134.95C107.166 133.345 106.501 131.847 105.837 130.383" fill="#FF773D"/>
<path d="M104.265 121.12C103.53 118.1 102.807 115.075 102.06 112.057C101.756 110.834 101.346 109.589 100.329 108.772C99.4315 108.053 98.3025 107.745 97.1775 107.612C95.8487 107.483 94.5104 107.49 93.183 107.631C91.7149 107.759 90.2588 108 88.8279 108.353C88.1092 108.529 87.3984 108.734 86.6954 108.968C86.0986 109.142 85.5213 109.377 84.9725 109.67C84.4814 109.929 84.0889 110.342 83.8553 110.846C83.5947 111.479 83.7025 112.169 83.8279 112.817C84.9804 118.788 86.4229 124.707 88.1125 130.546C88.5267 131.983 88.9572 133.412 89.4041 134.834C89.6197 135.526 89.8314 136.222 90.0666 136.906C90.2471 137.491 90.5062 138.049 90.8369 138.564C91.185 139.075 91.6662 139.482 92.2285 139.74C92.8353 139.995 93.4722 140.172 94.1238 140.265C95.6131 140.532 97.1196 140.692 98.6318 140.744C100.071 140.806 101.513 140.753 102.944 140.585C104.181 140.426 105.447 140.069 106.335 139.142C108.165 137.233 107.781 134.346 106.909 132.098C106.662 131.461 106.382 130.84 106.101 130.218C105.95 129.887 105.462 130.173 105.611 130.503C106.605 132.698 107.742 135.308 106.64 137.686C106.158 138.731 105.231 139.504 104.116 139.791C102.842 140.163 101.45 140.183 100.131 140.208C98.7119 140.228 97.2929 140.151 95.8839 139.979C95.1743 139.893 94.4648 139.783 93.7631 139.64C93.1727 139.543 92.6049 139.339 92.0873 139.038C91.0485 138.372 90.7016 137.078 90.3488 135.965C89.9111 134.602 89.489 133.236 89.0827 131.867C87.4441 126.355 86.0394 120.782 84.8687 115.146C84.7197 114.431 84.5747 113.712 84.4335 112.99C84.3101 112.365 84.1141 111.645 84.3845 111.03C84.5962 110.548 85.0509 110.246 85.5057 110.013C86.0797 109.75 86.6734 109.532 87.2814 109.362C89.956 108.524 92.742 108.095 95.5448 108.09C96.6541 108.09 97.789 108.168 98.8356 108.562C99.8993 108.954 100.735 109.797 101.119 110.863C101.332 111.473 101.508 112.096 101.644 112.727L102.156 114.824L103.218 119.189L103.724 121.277C103.81 121.632 104.357 121.473 104.271 121.126L104.265 121.12Z" fill="black"/>
<path d="M69.802 128.872C64.3042 133.105 57.0954 134.456 50.594 131.559C42.8305 128.1 36.5114 116.208 38.834 108.039C40.161 103.38 43.5224 99.023 42.6306 94.2131C42.6014 94.0467 42.5402 93.8876 42.4502 93.7447C41.9896 93.0548 41.1116 93.386 40.5216 93.7976C39.7844 94.3174 39.1245 94.939 38.5616 95.6439C38.4546 95.394 38.317 95.1583 38.152 94.9422C36.1691 92.1709 33.8768 89.6346 31.3194 87.3825C30.875 86.9804 30.2465 86.8534 29.6808 87.0513C29.036 87.2884 28.9635 87.8353 28.9596 88.3331C28.9557 89.7571 29.3827 91.1489 30.1846 92.3256C29.0866 91.4387 27.7603 90.8802 26.3586 90.7145C25.8752 90.6639 25.3969 90.8488 25.0734 91.2116C24.7498 91.5744 24.6205 92.0706 24.726 92.5452C24.962 93.5867 25.5128 94.5304 26.3038 95.248C25.5313 94.9634 24.7091 94.8387 23.8871 94.8815C23.1717 94.9207 22.4112 95.1069 22.1231 95.9869C21.9424 96.5901 22.0273 97.2416 22.3563 97.7784C23.058 98.9877 24.4104 99.5933 25.1983 100.709C25.9608 101.789 26.0901 103.196 26.7134 104.362C27.5974 106.014 29.4045 107.059 30.1454 108.78C30.6922 110.05 30.5766 111.489 30.553 112.87C30.3688 124.356 38.2147 135.528 49.0809 139.25C57.5618 142.157 67.3736 140.348 74.5609 135.046C72.5708 133.333 70.9514 131.232 69.802 128.872Z" fill="black"/>
<path d="M69.659 128.627C65.7743 131.604 60.892 133.231 55.9841 132.723C53.6794 132.496 51.4475 131.79 49.4318 130.65C47.7565 129.655 46.2462 128.406 44.9552 126.947C42.1372 123.834 40.1428 120.066 39.1536 115.985C38.6834 114.101 38.5323 112.151 38.7067 110.217C38.938 107.972 39.8553 105.879 40.749 103.831C41.729 101.571 42.7835 99.268 43.0207 96.7748C43.0785 96.1732 43.0785 95.5674 43.0207 94.9658C42.9658 94.3954 42.9286 93.7172 42.4601 93.3174C41.5762 92.5628 40.3629 93.5016 39.6769 94.0759C39.194 94.4831 38.7516 94.936 38.3559 95.4283L38.8282 95.5538C38.5715 94.9344 38.1207 94.4013 37.7189 93.8701C37.3171 93.339 36.882 92.7823 36.4449 92.2551C35.5707 91.1967 34.6502 90.1814 33.6832 89.2092C33.205 88.7271 32.7163 88.2573 32.2172 87.8C31.7605 87.3806 31.3097 86.8827 30.6884 86.722C30.1376 86.563 29.5438 86.687 29.1027 87.0532C28.7519 87.3786 28.6754 87.8608 28.6696 88.3174C28.6682 89.7913 29.1085 91.2318 29.9338 92.453L30.3787 92.11C29.7597 91.6112 29.0701 91.2069 28.3324 90.9105C27.9659 90.7642 27.5884 90.6469 27.2035 90.5597C26.8446 90.4607 26.4742 90.41 26.102 90.4088C25.4662 90.4425 24.8962 90.8111 24.6045 91.377C24.2831 92.014 24.4183 92.6863 24.6614 93.3252C24.9712 94.1377 25.4665 94.8666 26.1078 95.4538L26.3822 94.9795C25.5747 94.6881 24.717 94.5614 23.8597 94.6071C23.2933 94.6404 22.7053 94.7678 22.2917 95.1814C21.7821 95.689 21.6586 96.4769 21.8115 97.157C21.9703 97.8685 22.4407 98.4683 22.9581 98.9622C23.4756 99.4561 24.0106 99.8364 24.4928 100.32C25.0078 100.857 25.3921 101.505 25.6159 102.214C25.8648 102.933 26.0569 103.672 26.3999 104.358C26.7239 104.972 27.133 105.537 27.6151 106.036C28.5598 107.071 29.6848 108.023 30.0808 109.421C30.4982 110.901 30.2434 112.5 30.2885 114.017C30.3741 116.696 30.8637 119.347 31.7409 121.88C33.4994 126.967 36.6265 131.47 40.7784 134.895C42.8356 136.59 45.1321 137.971 47.5934 138.993C50.2779 140.087 53.1266 140.724 56.0214 140.877C58.9813 141.036 61.9481 140.735 64.8159 139.985C67.6741 139.246 70.4034 138.076 72.9107 136.518C73.5261 136.136 74.1259 135.734 74.71 135.297C74.7848 135.252 74.8349 135.175 74.8459 135.088C74.857 135.001 74.8279 134.914 74.7668 134.852C72.8024 133.148 71.2024 131.066 70.0628 128.729C69.906 128.399 69.418 128.686 69.5728 129.015C70.7334 131.395 72.3619 133.516 74.3611 135.252L74.4179 134.807C69.7479 138.234 64.1478 140.164 58.3577 140.342C55.477 140.435 52.6007 140.051 49.8454 139.205C47.3475 138.42 44.9854 137.256 42.8423 135.751C40.7049 134.255 38.7866 132.468 37.1426 130.442C35.502 128.425 34.1419 126.196 33.0992 123.815C32.0409 121.432 31.3364 118.907 31.0078 116.32C30.8547 114.993 30.7983 113.657 30.8393 112.322C30.8765 110.799 30.853 109.25 29.9945 107.929C29.2634 106.808 28.1796 105.985 27.3877 104.913C26.9692 104.321 26.6507 103.665 26.445 102.97C26.25 102.268 25.9874 101.586 25.661 100.934C24.9769 99.7109 23.6716 99.0974 22.8366 98.0096C22.3878 97.4216 22.1114 96.6259 22.4446 95.9183C22.6994 95.3793 23.2619 95.2108 23.8166 95.1735C24.6333 95.1263 25.451 95.2463 26.2196 95.5263C26.3435 95.5592 26.4741 95.5057 26.5394 95.3953C26.6046 95.2849 26.5884 95.1447 26.4998 95.052C25.8925 94.4986 25.4325 93.8028 25.1612 93.0273C24.9358 92.3688 24.8672 91.6279 25.5218 91.1869C25.7973 91.0127 26.1277 90.947 26.4489 91.0026C26.8874 91.0612 27.3192 91.1616 27.7386 91.3025C28.5552 91.5708 29.3172 91.983 29.9886 92.5197C30.218 92.7039 30.6276 92.4687 30.4336 92.1767C29.7612 91.1945 29.3559 90.0544 29.2576 88.8682C29.2301 88.4762 29.1654 87.9411 29.3928 87.5962C29.6613 87.1904 30.2807 87.1669 30.6942 87.3237C30.9457 87.4389 31.1737 87.5997 31.3665 87.798C31.6017 88.0078 31.833 88.2194 32.0643 88.435C32.5138 88.8545 32.9541 89.2824 33.3853 89.7188C34.2281 90.5708 35.035 91.456 35.8059 92.3746C36.2567 92.9104 36.6945 93.4572 37.1191 94.0152C37.3282 94.2896 37.5353 94.5672 37.7404 94.8482C37.9548 95.1147 38.1382 95.4047 38.2873 95.7125C38.3598 95.885 38.6107 96.0242 38.7596 95.838C39.1745 95.3222 39.6408 94.85 40.1512 94.4287C40.5432 94.0994 41.0195 93.7192 41.5487 93.6447C42.2328 93.535 42.3621 94.1935 42.4307 94.7286C42.5037 95.3137 42.5194 95.9045 42.4778 96.4926C42.3112 98.9877 41.2292 101.326 40.2414 103.586C39.3418 105.65 38.4343 107.739 38.1658 109.993C37.9629 111.921 38.0828 113.869 38.5205 115.757C39.4523 119.837 41.3642 123.629 44.0908 126.804C45.3581 128.317 46.8391 129.638 48.4871 130.724C50.3652 131.915 52.4612 132.72 54.6533 133.094C59.4435 133.942 64.3964 132.77 68.4634 130.154C68.973 129.826 69.465 129.477 69.9452 129.109C70.2294 128.897 69.9491 128.405 69.659 128.627Z" fill="black"/>
<path d="M55.4314 83.488C53.2154 81.0064 51.2461 78.315 49.5514 75.452C48.6829 74.0233 47.9159 72.5352 47.2562 70.9989C46.6408 69.4995 46.1939 67.8786 46.3076 66.2439C46.3816 64.9102 46.881 63.6353 47.7325 62.6062C48.6277 61.5708 49.9503 61.006 51.3173 61.0754C52.7274 61.1579 54.0672 61.7186 55.1158 62.665C56.2409 63.6685 57.0386 64.9934 57.6031 66.3772C57.8833 67.074 58.1222 67.7867 58.3184 68.5116C58.4282 68.9036 58.5576 69.3368 58.4439 69.7406C58.3733 69.9954 58.1205 70.2658 57.8304 70.2384C57.4972 70.207 57.4227 69.7072 57.3698 69.4544C57.3014 69.1073 57.2816 68.7524 57.311 68.3999C57.3837 67.6854 57.6011 66.9932 57.95 66.3654C58.6732 64.9934 59.7551 63.8292 60.8488 62.7453C61.917 61.6928 63.1479 60.6011 64.6277 60.1973C67.8499 59.3153 69.706 63.0256 70.3117 65.5912C71.031 68.6175 70.5743 71.8084 69.4669 74.6817C68.2909 77.7138 66.4407 80.4324 64.4944 83.0117C63.6242 84.1681 62.6873 85.3931 61.3584 86.0458C60.2961 86.5691 58.9535 86.526 58.0107 85.7557C57.6014 85.4383 57.3394 84.9675 57.2855 84.4523C57.2561 84.0936 56.6975 84.0897 56.7191 84.4523C56.8249 85.7616 57.946 86.6495 59.175 86.8906C60.6352 87.1806 61.9778 86.524 63.042 85.5578C63.6265 85.0034 64.1611 84.3987 64.6394 83.7506C65.1765 83.0529 65.6992 82.346 66.2074 81.6299C67.2421 80.1967 68.171 78.6901 68.9867 77.1219C70.5234 74.1035 71.4759 70.7402 71.1623 67.3317C71.032 65.6964 70.5741 64.104 69.8158 62.6493C69.0828 61.2773 67.9812 59.9053 66.3838 59.5721C64.7864 59.2389 63.2184 60.0307 61.9699 60.995C60.6467 62.0355 59.4611 63.2401 58.4419 64.5799C57.4874 65.8245 56.6485 67.3356 56.7446 68.9566C56.7838 69.5994 56.921 70.6382 57.6952 70.7872C58.4694 70.9362 59.0123 70.211 59.0554 69.5269C59.0555 69.0904 58.982 68.6571 58.8378 68.2451C58.7255 67.8452 58.602 67.4493 58.4674 67.0573C58.2005 66.2732 57.8688 65.5127 57.4756 64.7837C56.7132 63.3941 55.6489 62.1377 54.2515 61.3596C52.9402 60.6285 51.3624 60.2894 49.8826 60.6442C48.4557 60.9852 47.3013 61.9907 46.6035 63.2608C44.9023 66.3596 46.0253 69.8974 47.4934 72.8413C49.1093 76.0544 51.0662 79.0843 53.3303 81.8788C53.8817 82.5622 54.4488 83.2312 55.0315 83.8859C55.2746 84.1583 55.6725 83.7565 55.4235 83.4939L55.4314 83.488Z" fill="black"/>
<path d="M141.62 79.5504L139.247 74.3877C138.361 72.461 137.471 70.2031 138.412 68.3C139 67.0985 140.211 66.34 141.373 65.6638C142.273 65.1444 143.204 64.6367 144.225 64.4486C145.246 64.2604 146.391 64.4486 147.138 65.1698C147.71 65.7206 147.981 66.5066 148.222 67.2631C149.086 70.0025 149.777 72.7939 150.289 75.6206C150.628 77.4884 150.832 79.5994 149.684 81.1086C148.535 82.6178 146.454 82.9843 144.568 83.049C143.543 83.0823 142.179 82.751 142.159 81.726" fill="black"/>
<path d="M141.864 79.4073L139.614 74.5073C138.957 73.0765 138.242 71.532 138.296 69.9209C138.32 69.1806 138.567 68.4646 139.004 67.8668C139.443 67.3218 139.974 66.8576 140.572 66.4948C141.197 66.0842 141.845 65.7093 142.512 65.3717C143.19 64.9947 143.937 64.7569 144.708 64.672C145.389 64.6084 146.073 64.7717 146.652 65.1365C147.263 65.5481 147.579 66.2478 147.812 66.9201C148.371 68.5489 148.814 70.2266 149.218 71.8985C149.634 73.5053 149.957 75.1348 150.186 76.7789C150.352 78.1509 150.354 79.664 149.531 80.842C148.765 81.9396 147.43 82.41 146.164 82.6197C145.529 82.7329 144.884 82.7808 144.239 82.7628C143.733 82.7432 143.138 82.6452 142.738 82.3081C142.558 82.165 142.449 81.95 142.442 81.7201C142.426 81.3575 141.854 81.3555 141.875 81.7201C141.936 83.0607 143.571 83.3626 144.639 83.3234C146.07 83.2685 147.601 83.0568 148.826 82.265C151.787 80.352 150.768 76.3438 150.16 73.4959C149.768 71.6431 149.297 69.8098 148.745 67.9962C148.506 67.2024 148.29 66.3596 147.865 65.6442C147.482 64.9898 146.869 64.501 146.146 64.2722C144.523 63.7528 142.891 64.4682 141.493 65.2698C140.192 66.0068 138.749 66.8515 138.114 68.2725C137.393 69.864 137.812 71.6378 138.424 73.1921C139.116 74.9463 139.974 76.6437 140.762 78.3587L141.376 79.6934C141.528 80.0227 142.016 79.7366 141.864 79.4073Z" fill="black"/>
<path d="M148.069 65.0209C148.984 62.9681 149.938 60.9349 150.932 58.9214C151.422 57.9283 151.921 56.9391 152.428 55.9539C152.92 55.0014 153.392 54.0253 153.939 53.1021C154.315 52.469 154.931 51.589 155.746 51.5341C156.665 51.4773 157.018 52.5337 157.191 53.2491C157.644 55.1902 157.502 57.2229 156.783 59.0821C156.633 59.5396 156.417 59.9728 156.142 60.3678C156.041 60.5237 155.88 60.6303 155.697 60.6618C155.587 60.6618 155.352 60.5795 155.36 60.4364C155.36 60.4482 155.342 60.4502 155.429 60.4012C155.475 60.3689 155.518 60.3329 155.558 60.2934L155.819 60.0758C156.015 59.9131 156.211 59.7504 156.407 59.5917C156.799 59.2722 157.216 58.9625 157.641 58.6764C159.164 57.6474 160.985 56.8947 162.855 57.2397C163.698 57.374 164.472 57.7817 165.06 58.4C165.533 58.9427 165.816 59.6257 165.864 60.3443C165.934 61.0359 165.732 61.7278 165.301 62.273C165.105 62.5003 164.623 62.9825 164.3 62.7355C164.104 62.5885 164.113 62.2514 164.196 62.0495C164.343 61.6908 164.784 61.6124 165.138 61.6379C165.58 61.6894 166.003 61.846 166.371 62.0946C167.079 62.5493 167.628 63.2141 167.939 63.9958C168.561 65.6016 168.059 67.4253 166.703 68.4862C166.38 68.7427 166.018 68.9446 165.63 69.084L165.987 69.3564C165.917 68.7312 166.461 68.3313 167.026 68.2235C167.718 68.0922 168.29 68.4607 168.594 69.0742C169.352 70.5853 168.398 72.4356 167.353 73.541C166.02 74.9502 164.206 75.7146 162.371 76.2321C160.27 76.8201 158.116 77.2493 155.989 77.7374L152.348 78.5743C151.838 78.6919 151.305 78.8781 150.78 78.8938C150.544 78.8938 150.031 78.8938 150.013 78.5625C149.996 78.1999 149.425 78.198 149.447 78.5625C149.494 79.4641 150.578 79.5425 151.262 79.4034C152.483 79.1623 153.696 78.8448 154.909 78.5664C157.344 78.0078 159.809 77.51 162.218 76.8612C164.284 76.3046 166.356 75.4677 167.832 73.8585C169.025 72.5532 169.964 70.4775 169.068 68.7625C168.667 67.9315 167.746 67.4864 166.846 67.6884C166.062 67.8531 165.323 68.5018 165.421 69.3603C165.438 69.5289 165.587 69.7033 165.777 69.6347C167.637 68.9664 168.97 67.0318 168.768 65.0366C168.663 64.0385 168.237 63.1013 167.555 62.3651C166.904 61.6595 165.899 61.0205 164.903 61.0734C164.434 61.0691 163.993 61.2992 163.727 61.6869C163.537 62.0152 163.504 62.4111 163.635 62.7669C163.774 63.1681 164.177 63.4147 164.598 63.3549C165.078 63.2922 165.489 62.9296 165.774 62.5709C166.842 61.1989 166.501 59.0605 165.307 57.8826C163.819 56.4145 161.409 56.3557 159.549 57.0476C158.48 57.469 157.478 58.0441 156.575 58.7548C156.105 59.1115 155.65 59.4839 155.203 59.8641C155.007 60.0288 154.78 60.162 154.774 60.4521C154.776 60.678 154.881 60.8906 155.058 61.0303C155.408 61.3222 155.915 61.3263 156.269 61.0401C156.691 60.7265 156.916 60.1934 157.12 59.723C157.586 58.6543 157.87 57.5158 157.963 56.3538C158.061 55.1929 157.957 54.0239 157.657 52.8983C157.414 52.0006 156.873 51.0265 155.821 50.9971C154.829 50.9716 154.057 51.8673 153.567 52.6239C153.245 53.1198 152.979 53.6588 152.71 54.1801C152.4 54.7681 152.093 55.3561 151.789 55.9441C150.589 58.2791 149.441 60.6403 148.343 63.0276C148.082 63.6025 147.821 64.1787 147.559 64.7563C147.412 65.0856 147.9 65.3737 148.049 65.0424L148.069 65.0209Z" fill="black"/>
<path d="M110.49 51.54C106.309 51.2429 102.108 51.4588 97.9792 52.1829C96.1525 52.5043 94.3061 52.9042 92.6382 53.7509C91.1045 54.5293 89.8158 55.7163 88.9142 57.1809C86.864 60.4717 86.7582 64.4623 86.9973 68.2157C87.0639 69.2231 87.1208 70.2384 87.2462 71.24C87.3579 72.1259 87.5735 73.004 88.0773 73.7488C88.9122 74.9875 90.2881 75.7244 91.7013 76.1008C92.4439 76.2989 93.2053 76.4184 93.9729 76.4575C94.9647 76.5104 95.9682 76.4575 96.9541 76.5986C98.5893 76.8328 100.014 77.8353 100.786 79.2956C100.961 79.6322 101.095 79.9881 101.188 80.3559C101.223 80.4782 101.335 80.5627 101.462 80.5637C102.638 80.4716 102.699 79.1152 102.93 78.2313C103.06 77.7452 103.248 77.2199 103.781 77.069C104.241 76.9357 104.761 76.9436 105.241 76.8985L106.789 76.7534C108.649 76.577 110.513 76.4418 112.37 76.1988C113.938 76.0028 115.506 75.6833 116.948 75.0228C118.352 74.4078 119.537 73.383 120.349 72.0828C121.146 70.7715 121.499 69.2466 121.617 67.7296C121.71 66.1323 121.645 64.5296 121.421 62.9452C121.225 61.3067 121.015 59.6348 120.492 58.0629C119.989 56.4717 118.995 55.0804 117.654 54.088C116.948 53.592 116.205 53.1523 115.431 52.7728C114.627 52.3593 113.814 51.9202 112.942 51.6674C112.5 51.5367 112.041 51.4707 111.58 51.4714C111.432 51.4837 111.319 51.6068 111.319 51.7546C111.319 51.9024 111.432 52.0256 111.58 52.0378C112.493 52.0378 113.344 52.371 114.157 52.765C114.919 53.1354 115.68 53.5196 116.409 53.9528C117.146 54.3691 117.819 54.8908 118.406 55.5012C118.929 56.0802 119.352 56.7427 119.657 57.4612C120.304 58.9508 120.539 60.5972 120.756 62.1887C120.987 63.7066 121.103 65.2397 121.103 66.7751C121.078 68.2451 120.876 69.7523 120.251 71.0871C119.625 72.4278 118.586 73.532 117.285 74.2368C115.96 74.964 114.461 75.3207 112.973 75.552C111.246 75.8205 109.496 75.944 107.758 76.1008L104.857 76.3752C104.122 76.4438 103.312 76.434 102.828 77.0788C102.521 77.4845 102.401 78 102.293 78.488C102.201 78.9036 102.146 79.421 101.88 79.7718C101.782 79.9068 101.63 79.9915 101.464 80.0031L101.737 80.2109C101.341 78.7102 100.349 77.4361 98.9925 76.6829C97.35 75.7793 95.5017 76.0165 93.7005 75.8754C92.2579 75.7636 90.7605 75.3756 89.5845 74.5034C89.0069 74.0809 88.5446 73.5202 88.2399 72.8726C87.8323 71.9848 87.7774 70.9793 87.7009 70.0208C87.3991 66.2518 87.1129 62.2455 88.7319 58.7116C89.4238 57.2064 90.441 55.8344 91.8111 54.8857C93.2869 53.8646 95.0353 53.3471 96.7738 52.9826C100.78 52.1592 104.872 51.834 108.957 52.0143C109.467 52.0359 109.974 52.0653 110.484 52.1025C110.849 52.128 110.847 51.5616 110.484 51.5361L110.49 51.54Z" fill="black"/>
<path d="M95.1197 63.9546C94.8153 64.027 94.5797 64.2678 94.514 64.5737C94.4483 64.8796 94.5643 65.1959 94.8121 65.3869C95.0599 65.5778 95.3954 65.6093 95.6744 65.4678C95.8455 65.3705 95.9886 65.2308 96.0899 65.062C96.2777 64.8106 96.3378 64.486 96.2526 64.184C96.1428 63.8939 95.7606 63.7077 95.5058 63.8841" fill="#FF773D"/>
<path d="M95.0451 63.692C94.6261 63.808 94.3106 64.1539 94.2337 64.5818C94.1512 65.0267 94.3639 65.4742 94.7609 65.6912C95.1598 65.9186 95.6574 65.8773 96.0134 65.5873C96.4264 65.2598 96.6333 64.7368 96.5563 64.2153C96.4544 63.7116 95.8272 63.3392 95.3626 63.6391C95.2755 63.6902 95.2222 63.7839 95.2229 63.885C95.2235 63.9861 95.2781 64.0791 95.3659 64.129C95.4538 64.179 95.5616 64.1782 95.6488 64.1271C95.6645 64.1198 95.6795 64.1113 95.6939 64.1016C95.637 64.1016 95.7174 64.0801 95.6939 64.1016C95.7069 64.1003 95.72 64.1003 95.7331 64.1016H95.6998C95.7095 64.1006 95.7194 64.1006 95.7292 64.1016H95.7801C95.7684 64.1016 95.7213 64.0879 95.7684 64.1016L95.8076 64.1134C95.8585 64.1252 95.7703 64.0879 95.8291 64.1134C95.8579 64.1281 95.8854 64.1451 95.9114 64.1644C95.8566 64.1252 95.9369 64.1938 95.9506 64.2075C95.9644 64.2212 95.9702 64.2467 95.9506 64.2075C95.9506 64.2212 95.9683 64.233 95.9742 64.2447C95.98 64.2565 96.0075 64.3094 95.9898 64.2682C95.9722 64.2271 96.0016 64.3114 96.0036 64.3212C96.0055 64.331 96.0153 64.3662 96.0192 64.3898C96.0192 64.3408 96.0192 64.3898 96.0192 64.3898C96.0222 64.4361 96.0222 64.4826 96.0192 64.5289C96.0192 64.5132 96.029 64.4819 96.0192 64.5289C96.0145 64.5521 96.0086 64.575 96.0016 64.5975C96.0016 64.621 95.9898 64.6426 95.982 64.6661C95.9742 64.6896 95.9506 64.7484 95.9683 64.7053C95.9337 64.7826 95.8924 64.8567 95.8448 64.9268L95.8134 64.9738C95.7605 65.0464 95.8311 64.9542 95.7958 64.9934C95.7631 65.0337 95.7278 65.0716 95.69 65.1071L95.6488 65.1424L95.6292 65.1581L95.5253 65.2169C95.541 65.2169 95.5782 65.1875 95.5253 65.2169L95.4744 65.2326L95.4332 65.2424C95.3666 65.262 95.492 65.2424 95.4234 65.2424C95.3875 65.2443 95.3515 65.2443 95.3156 65.2424C95.2882 65.2424 95.2215 65.2286 95.2842 65.2424L95.1784 65.2169L95.1353 65.2032C95.1078 65.2032 95.0804 65.1777 95.1235 65.2032C95.0905 65.1881 95.0584 65.1711 95.0275 65.1522L94.9902 65.1287C94.9334 65.0934 95.0157 65.1561 94.9902 65.1287C94.9648 65.1012 94.9412 65.0875 94.9197 65.064L94.8903 65.0307C94.853 64.9915 94.9118 65.0718 94.8766 65.0111L94.8295 64.9268C94.8295 64.9523 94.857 64.9719 94.8295 64.9268C94.8234 64.9094 94.8182 64.8918 94.8138 64.8739C94.8138 64.8484 94.7962 64.7622 94.8001 64.8308C94.8001 64.7896 94.8001 64.7504 94.8001 64.7112C94.8001 64.6426 94.8001 64.672 94.8001 64.7112C94.8021 64.6893 94.8061 64.6677 94.8119 64.6465C94.8205 64.6107 94.831 64.5754 94.8432 64.5407C94.8217 64.572 94.8628 64.476 94.8432 64.5407C94.8648 64.5093 94.8668 64.4936 94.8785 64.4701L94.9393 64.378C94.904 64.427 94.9295 64.3937 94.9393 64.378L94.9922 64.3231L95.0334 64.2859C94.9981 64.3192 95.0236 64.2859 95.0471 64.2859C95.0706 64.2859 95.1098 64.2506 95.1412 64.233C95.0863 64.2624 95.1274 64.233 95.1412 64.233L95.2156 64.2114C95.3575 64.1625 95.4369 64.0117 95.397 63.8671C95.3571 63.7225 95.2116 63.6338 95.0647 63.6646L95.0451 63.692Z" fill="#FF773D"/>
<path d="M101.876 63.9546C101.571 64.027 101.336 64.2678 101.27 64.5737C101.204 64.8796 101.32 65.1959 101.568 65.3869C101.816 65.5778 102.151 65.6093 102.43 65.4678C102.602 65.3705 102.745 65.2308 102.846 65.062C103.034 64.8106 103.094 64.486 103.009 64.184C102.899 63.8939 102.517 63.7077 102.262 63.8841" fill="#FF773D"/>
<path d="M101.801 63.692C101.382 63.808 101.067 64.1539 100.99 64.5818C100.907 65.0267 101.12 65.4742 101.517 65.6912C101.916 65.9186 102.414 65.8773 102.769 65.5873C103.182 65.2598 103.389 64.7368 103.312 64.2153C103.21 63.7116 102.583 63.3392 102.119 63.6391C102.032 63.6902 101.978 63.7839 101.979 63.885C101.98 63.9861 102.034 64.0791 102.122 64.129C102.21 64.179 102.318 64.1782 102.405 64.1271C102.421 64.1198 102.436 64.1113 102.45 64.1016C102.393 64.1016 102.474 64.0801 102.45 64.1016C102.463 64.1003 102.476 64.1003 102.489 64.1016H102.454C102.464 64.1006 102.475 64.1006 102.485 64.1016H102.536C102.524 64.1016 102.477 64.0879 102.524 64.1016L102.564 64.1134C102.615 64.1252 102.526 64.0879 102.585 64.1134C102.614 64.1281 102.642 64.1451 102.668 64.1644C102.613 64.1252 102.693 64.1938 102.707 64.2075C102.72 64.2212 102.726 64.2467 102.707 64.2075L102.73 64.2447C102.73 64.2447 102.764 64.3094 102.746 64.2682C102.728 64.2271 102.758 64.3114 102.76 64.3212C102.762 64.331 102.771 64.3662 102.775 64.3898C102.775 64.3408 102.775 64.3898 102.775 64.3898C102.778 64.4361 102.778 64.4826 102.775 64.5289C102.775 64.4819 102.775 64.5132 102.775 64.5289C102.771 64.5521 102.765 64.575 102.758 64.5975C102.758 64.621 102.746 64.6426 102.738 64.6661C102.73 64.6896 102.707 64.7484 102.724 64.7053C102.69 64.7826 102.648 64.8567 102.601 64.9268L102.57 64.9738C102.517 65.0464 102.587 64.9542 102.552 64.9934C102.519 65.0337 102.484 65.0716 102.446 65.1071L102.405 65.1424L102.385 65.1581L102.281 65.2169C102.297 65.2169 102.334 65.1875 102.281 65.2169L102.23 65.2326L102.189 65.2424C102.123 65.262 102.248 65.2424 102.18 65.2424C102.144 65.2443 102.108 65.2443 102.072 65.2424C102.044 65.2424 101.978 65.2286 102.038 65.2424L101.935 65.2169L101.891 65.2032C101.864 65.2032 101.837 65.1777 101.88 65.2032C101.847 65.1881 101.815 65.1711 101.784 65.1522L101.746 65.1287C101.69 65.0934 101.772 65.1561 101.746 65.1287C101.721 65.1012 101.697 65.0875 101.676 65.064L101.646 65.0307C101.609 64.9915 101.668 65.0718 101.633 65.0111C101.617 64.9836 101.601 64.9542 101.584 64.9268C101.584 64.9523 101.613 64.9719 101.584 64.9268C101.578 64.9094 101.572 64.8918 101.568 64.8739C101.568 64.8484 101.55 64.7622 101.554 64.8308C101.554 64.7896 101.554 64.7504 101.554 64.7112C101.554 64.6426 101.554 64.672 101.554 64.7112C101.556 64.6893 101.56 64.6677 101.566 64.6465C101.575 64.6107 101.585 64.5754 101.597 64.5407C101.576 64.572 101.617 64.476 101.597 64.5407C101.619 64.5093 101.621 64.4936 101.633 64.4701L101.693 64.378C101.658 64.427 101.684 64.3937 101.693 64.378L101.746 64.3231L101.788 64.2859C101.752 64.3192 101.778 64.2859 101.801 64.2859C101.825 64.2859 101.864 64.2506 101.895 64.233C101.84 64.2624 101.882 64.233 101.895 64.233L101.97 64.2114C102.112 64.1625 102.191 64.0117 102.151 63.8671C102.111 63.7225 101.966 63.6338 101.819 63.6646L101.801 63.692Z" fill="#FF773D"/>
<path d="M108.624 63.9546C108.32 64.027 108.084 64.2678 108.018 64.5737C107.953 64.8795 108.069 65.1959 108.316 65.3869C108.564 65.5778 108.9 65.6093 109.179 65.4678C109.353 65.3724 109.5 65.2332 109.604 65.064C109.792 64.8125 109.852 64.488 109.767 64.1859C109.657 63.8958 109.275 63.7096 109.02 63.886" fill="#FF773D"/>
<path d="M108.557 63.692C108.138 63.808 107.823 64.1539 107.746 64.5818C107.663 65.0267 107.876 65.4742 108.273 65.6912C108.672 65.9186 109.17 65.8773 109.526 65.5873C109.939 65.2598 110.146 64.7368 110.068 64.2153C109.967 63.7116 109.339 63.3392 108.875 63.6391C108.74 63.7181 108.695 63.8914 108.774 64.0262C108.853 64.1609 109.026 64.2061 109.161 64.1271C109.177 64.1198 109.192 64.1113 109.206 64.1016C109.149 64.1016 109.23 64.0801 109.206 64.1016C109.219 64.1003 109.232 64.1003 109.245 64.1016H109.21C109.22 64.1006 109.231 64.1006 109.241 64.1016H109.292C109.281 64.1016 109.234 64.0879 109.281 64.1016L109.32 64.1134C109.371 64.1252 109.283 64.0879 109.341 64.1134C109.37 64.1281 109.398 64.1451 109.424 64.1644C109.369 64.1252 109.449 64.1938 109.463 64.2075C109.477 64.2212 109.482 64.2467 109.463 64.2075L109.486 64.2447C109.486 64.2447 109.52 64.3094 109.5 64.2682C109.48 64.2271 109.514 64.3114 109.516 64.3212C109.518 64.331 109.528 64.3662 109.531 64.3898C109.531 64.3408 109.531 64.3898 109.531 64.3898C109.534 64.4361 109.534 64.4826 109.531 64.5289C109.531 64.4819 109.531 64.5132 109.531 64.5289C109.527 64.5521 109.521 64.575 109.514 64.5975C109.514 64.621 109.502 64.6426 109.494 64.6661C109.486 64.6896 109.463 64.7484 109.48 64.7053C109.446 64.7826 109.405 64.8567 109.357 64.9268L109.324 64.9738C109.273 65.0464 109.341 64.9542 109.308 64.9934C109.275 65.0337 109.24 65.0716 109.202 65.1071L109.161 65.1424L109.139 65.1581C109.106 65.1796 109.073 65.1973 109.038 65.2169C109.053 65.2169 109.09 65.1875 109.038 65.2169L108.987 65.2326L108.945 65.2424C108.879 65.262 109.004 65.2424 108.945 65.2424C108.909 65.2443 108.874 65.2443 108.838 65.2424C108.81 65.2424 108.744 65.2286 108.804 65.2424L108.7 65.2169L108.657 65.2032C108.63 65.2032 108.602 65.1777 108.646 65.2032C108.613 65.1881 108.58 65.1711 108.549 65.1522L108.512 65.1287C108.455 65.0934 108.538 65.1561 108.512 65.1287C108.487 65.1012 108.463 65.0875 108.442 65.064L108.412 65.0307C108.375 64.9915 108.434 65.0718 108.399 65.0111C108.383 64.9836 108.367 64.9542 108.35 64.9268C108.35 64.9523 108.379 64.9719 108.35 64.9268C108.343 64.9094 108.338 64.8918 108.334 64.8739C108.334 64.8484 108.316 64.7622 108.32 64.8308C108.32 64.7896 108.32 64.7504 108.32 64.7112C108.32 64.6426 108.32 64.672 108.32 64.7112C108.322 64.6893 108.326 64.6677 108.332 64.6465C108.341 64.6107 108.351 64.5754 108.363 64.5407C108.342 64.572 108.383 64.476 108.363 64.5407C108.385 64.5093 108.387 64.4936 108.399 64.4701L108.459 64.378C108.424 64.427 108.459 64.3937 108.459 64.378L108.512 64.3231L108.553 64.2859C108.518 64.3192 108.544 64.2859 108.567 64.2859C108.591 64.2859 108.63 64.2506 108.661 64.233C108.606 64.2624 108.647 64.233 108.661 64.233L108.734 64.2114C108.874 64.1616 108.952 64.0123 108.913 63.8689C108.874 63.7256 108.731 63.6365 108.585 63.6646L108.557 63.692Z" fill="#FF773D"/>
<path d="M50.6825 62.6179C49.8376 62.7052 49.0814 63.1803 48.6362 63.9037C48.207 64.5466 47.8287 65.458 47.9287 66.2459C47.9597 66.635 48.1794 66.9843 48.5167 67.1808C48.8597 67.3552 49.3575 67.2122 49.4085 66.7888C49.4555 66.3968 49.0518 66.1244 48.6931 66.2008C48.3344 66.2772 48.1208 66.6555 48.009 66.9848C47.7258 67.8839 47.9177 68.8653 48.5186 69.5916C48.7499 69.8738 49.1478 69.472 48.9106 69.1996C48.5146 68.7035 48.3537 68.0597 48.4696 67.4356C48.4967 67.2785 48.5441 67.1257 48.6108 66.9809C48.6376 66.9094 48.6813 66.8455 48.7382 66.7947C48.7382 66.7947 48.8597 66.7359 48.846 66.7712C48.8714 66.7045 48.7225 66.6614 48.6872 66.634C48.6405 66.59 48.6009 66.5391 48.5696 66.483C48.5073 66.3616 48.4738 66.2275 48.4716 66.091C48.45 65.4697 48.746 64.7896 49.0714 64.2741C49.4261 63.7136 49.9926 63.249 50.6746 63.1981C51.0353 63.1706 51.0392 62.6101 50.6746 62.6316L50.6825 62.6179Z" fill="white"/>
<path d="M49.5614 71.1028L49.9142 70.893C49.9768 70.8549 50.023 70.7948 50.0436 70.7245C50.0609 70.651 50.0511 70.5738 50.0161 70.5069C49.9785 70.4431 49.9172 70.3966 49.8456 70.3776C49.7723 70.3579 49.6942 70.3677 49.628 70.405L49.2772 70.6147C49.214 70.6526 49.1671 70.7127 49.1459 70.7833C49.1346 70.8203 49.1346 70.8599 49.1459 70.897C49.1466 70.9347 49.1581 70.9715 49.1792 71.0028C49.2167 71.066 49.277 71.1123 49.3478 71.1322C49.4213 71.1521 49.4997 71.1415 49.5653 71.1028H49.5614Z" fill="white"/>
<path d="M50.1847 72.5394L50.2533 72.4689C50.2813 72.4444 50.3017 72.4124 50.3121 72.3768C50.3308 72.344 50.3397 72.3066 50.3376 72.269C50.3392 72.2307 50.3304 72.1928 50.3121 72.1592C50.3021 72.1239 50.2816 72.0925 50.2533 72.069L50.1965 72.024C50.1532 71.9983 50.1038 71.9847 50.0534 71.9848L49.9789 71.9965C49.9313 72.0089 49.888 72.034 49.8535 72.069L49.7829 72.1376C49.7562 72.1628 49.7366 72.1946 49.7261 72.2298C49.7078 72.2634 49.699 72.3013 49.7006 72.3395C49.6992 72.3771 49.708 72.4144 49.7261 72.4473C49.736 72.4828 49.7557 72.5147 49.7829 72.5394L49.8417 72.5826C49.8849 72.6085 49.9344 72.6221 49.9848 72.6218L50.0593 72.612C50.1066 72.5988 50.1497 72.5738 50.1847 72.5394Z" fill="white"/>
<path d="M50.8961 74.5876C51.0434 74.5754 51.1567 74.4522 51.1567 74.3044C51.1567 74.1566 51.0434 74.0335 50.8961 74.0212C50.7488 74.0335 50.6355 74.1566 50.6355 74.3044C50.6355 74.4522 50.7488 74.5754 50.8961 74.5876Z" fill="white"/>
<path d="M64.3045 61.732C63.6078 61.7803 62.9272 61.9647 62.3014 62.2749C61.7761 62.5356 61.2528 62.9198 60.9941 63.4646C60.8321 63.7646 60.79 64.1149 60.8765 64.4446C60.9684 64.7524 61.2387 64.973 61.5586 65.0013C61.8663 65.0189 62.1975 64.7837 62.1113 64.4427C62.0251 64.1016 61.6389 64.0056 61.3273 64.1212C60.6945 64.3787 60.2354 64.9396 60.1082 65.6108C60.0415 65.9676 60.5864 66.1204 60.6531 65.7618C60.6983 65.4928 60.8162 65.2414 60.9941 65.0346C61.0795 64.9358 61.1777 64.8488 61.2861 64.7759C61.3423 64.7381 61.4012 64.7046 61.4625 64.6759C61.4961 64.6582 61.5316 64.6444 61.5684 64.6348C61.6154 64.6348 61.6154 64.6289 61.5684 64.6171V64.4662C61.5801 64.4015 61.6174 64.4799 61.5782 64.4348C61.539 64.3898 61.5155 64.4113 61.4959 64.3956C61.439 64.3455 61.4038 64.2752 61.3979 64.1996C61.3833 64.0375 61.4167 63.8746 61.4939 63.7312C61.6482 63.4399 61.8759 63.194 62.1544 63.0178C62.7999 62.5991 63.5425 62.3541 64.3104 62.3063C64.673 62.2788 64.675 61.7183 64.3104 61.7398L64.3045 61.732Z" fill="white"/>
<path d="M60.7255 67.9883C60.8728 67.9761 60.9861 67.8529 60.9861 67.7051C60.9861 67.5573 60.8728 67.4341 60.7255 67.4219C60.5782 67.4341 60.4648 67.5573 60.4648 67.7051C60.4648 67.8529 60.5782 67.9761 60.7255 67.9883Z" fill="white"/>
<path d="M140.833 69.5054C141.456 68.5851 142.396 67.9255 143.473 67.6512C143.623 67.6095 143.712 67.4538 143.67 67.3033C143.628 67.1528 143.472 67.0646 143.322 67.1063C142.104 67.4223 141.045 68.1741 140.345 69.2192C140.149 69.523 140.631 69.8072 140.833 69.5054Z" fill="white"/>
<path d="M142.632 70.6892L143.457 70.2306C143.523 70.1925 143.571 70.1296 143.59 70.0559C143.609 69.9822 143.598 69.9039 143.559 69.8386C143.478 69.7039 143.304 69.6587 143.167 69.7366L142.342 70.1953C142.255 70.2464 142.201 70.3401 142.202 70.4412C142.203 70.5423 142.257 70.6353 142.345 70.6852C142.433 70.7352 142.541 70.7344 142.628 70.6833L142.632 70.6892Z" fill="white"/>
<path d="M157.569 62.028C156.999 62.7532 157.154 63.792 157.793 64.4309C158.547 65.1816 159.764 65.16 160.689 64.7818L160.472 64.2643C159.83 64.7062 159.307 65.2992 158.949 65.9911C158.6 66.6712 158.343 67.5238 158.449 68.2941C158.565 69.133 159.329 69.574 160.076 69.7876C160.937 70.0323 161.853 70.0056 162.698 69.7112L162.481 69.1937C161.324 69.6974 160.239 70.8617 160.129 72.1651C160.082 72.8271 160.402 73.4616 160.962 73.8174C161.566 74.2388 162.334 74.3074 163.047 74.323C163.412 74.323 163.412 73.7644 163.047 73.7566C162.459 73.7429 161.82 73.7017 161.307 73.3646C160.832 73.085 160.594 72.5293 160.719 71.9926C160.952 70.9499 161.812 70.1012 162.767 69.6837C163.059 69.5563 162.849 69.0624 162.547 69.1663C161.843 69.4184 161.079 69.4572 160.352 69.278C159.713 69.1173 159.006 68.7958 158.996 68.0432C158.976 66.7594 159.717 65.4795 160.76 64.7543C161.003 64.5858 160.86 64.1075 160.542 64.2388C159.839 64.527 158.923 64.6308 158.29 64.1173C157.826 63.741 157.571 62.9413 157.973 62.4298C158.196 62.1475 157.798 61.7438 157.581 62.0378L157.569 62.028Z" fill="black"/>
<path d="M154.529 54.2174L152.032 59.0605L150.785 61.4831C150.589 61.8574 150.393 62.2298 150.235 62.6199C150.088 62.9766 149.913 63.4039 149.958 63.7959C149.999 64.1565 150.313 64.5132 150.707 64.4348C150.873 64.3999 151.013 64.2878 151.083 64.1328C151.153 63.9779 151.145 63.7989 151.062 63.6508C150.981 63.515 150.806 63.4703 150.67 63.5509C150.165 63.9044 149.846 64.4654 149.8 65.0797C149.766 65.4423 150.333 65.4403 150.364 65.0797C150.402 64.6644 150.616 64.2854 150.952 64.0389L150.56 63.937C150.56 63.9056 150.56 63.886 150.584 63.8762C150.554 63.8599 150.532 63.8334 150.521 63.8018C150.494 63.7149 150.494 63.6221 150.521 63.5352C150.562 63.3338 150.622 63.1369 150.701 62.9472C150.866 62.5452 151.053 62.1526 151.262 61.7712L152.528 59.3467L155.023 54.5035C155.19 54.1801 154.701 53.894 154.535 54.2174H154.529Z" fill="white"/>
<path d="M158.712 60.6854C159.26 59.7328 160.25 59.1189 161.348 59.0507C161.71 59.0311 161.712 58.4627 161.348 58.4843C160.051 58.558 158.879 59.2782 158.227 60.4012C158.164 60.5347 158.214 60.6946 158.342 60.7688C158.47 60.843 158.633 60.8067 158.717 60.6854H158.712Z" fill="white"/>
<path d="M161.099 66.8123C161.648 65.605 162.778 64.7636 164.092 64.5838C164.24 64.5401 164.327 64.3865 164.288 64.2369C164.243 64.0889 164.089 64.0027 163.939 64.0409C162.484 64.2578 161.236 65.1927 160.619 66.5281C160.542 66.6644 160.586 66.8374 160.719 66.9201C160.784 66.9586 160.862 66.9696 160.936 66.9504C161.009 66.9313 161.072 66.8837 161.111 66.8182L161.099 66.8123Z" fill="white"/>
<path d="M163.008 71.8711L163.059 71.8005L163.084 71.7652C163.11 71.7319 163.084 71.7554 163.084 71.775C163.122 71.73 163.157 71.6849 163.196 71.6398C163.275 71.5512 163.358 71.4668 163.445 71.387L163.576 71.2733L163.612 71.2478C163.569 71.2792 163.592 71.2635 163.612 71.2478L163.682 71.1968C163.779 71.1255 163.88 71.06 163.984 71.0008C164.109 70.9175 164.148 70.7508 164.072 70.6208C163.996 70.4908 163.832 70.4426 163.698 70.5108C163.234 70.7688 162.836 71.132 162.538 71.5712C162.499 71.6365 162.487 71.7148 162.506 71.7885C162.526 71.8622 162.574 71.9251 162.64 71.9632C162.776 72.0423 162.951 71.9969 163.032 71.8613L163.008 71.8711Z" fill="white"/>
<path d="M156.287 64.4231C157.076 66.7415 156.945 69.2742 155.921 71.4987C155.768 71.826 156.256 72.1141 156.409 71.7829C157.51 69.4299 157.664 66.7436 156.84 64.28C156.724 63.937 156.175 64.084 156.295 64.429L156.287 64.4231Z" fill="white"/>
<path d="M158.157 73.0706C158.518 72.3355 158.728 71.5359 158.776 70.7186C158.775 70.5632 158.65 70.4374 158.494 70.4363C158.339 70.4394 158.214 70.5637 158.21 70.7186C158.167 71.4357 157.983 72.1371 157.667 72.7825C157.588 72.919 157.633 73.0938 157.769 73.1745C157.905 73.2551 158.08 73.2103 158.161 73.0745L158.157 73.0706Z" fill="white"/>
<path d="M129.933 130.246C128.7 129.243 128.424 127.472 129.291 126.141C130.159 124.81 131.892 124.35 133.306 125.073C134.059 125.465 134.619 126.13 135.133 126.802C140.428 133.808 142.84 142.574 141.875 151.302C141.679 152.958 141.348 154.66 140.392 156.026C138.973 158.058 136.354 159.017 133.878 158.907C131.403 158.797 129.057 157.75 126.952 156.441C118.837 151.392 113.91 142.666 108.896 134.528C108.551 133.97 108.195 133.399 107.687 132.982C106.719 132.186 105.364 132.072 104.114 132.143C102.863 132.214 101.595 132.435 100.37 132.178C99.1453 131.922 97.934 131.02 97.8223 129.773C97.7106 128.527 99.2414 127.318 100.264 128.041C99.0395 129.675 95.9642 129.115 95.3939 127.153C94.8235 125.191 97.1246 123.07 99.0356 123.797C98.6436 125.128 96.6189 125.444 95.6467 124.454C94.6746 123.464 94.8098 121.71 95.7134 120.665C96.6169 119.621 98.083 119.184 99.4707 119.223C100.858 119.262 102.195 119.711 103.51 120.154C102.397 120.491 101.197 119.37 101.239 118.217C101.28 117.065 102.303 116.085 103.442 115.853C104.58 115.622 105.774 116.004 106.754 116.637C109.486 118.38 110.69 121.677 111.932 124.673C115.178 132.483 119.805 139.644 125.592 145.812C127.889 148.258 130.644 150.669 133.99 150.908C134.647 150.953 135.347 150.908 135.895 150.536C137.175 149.681 136.948 147.76 136.524 146.281C135.093 141.261 133.137 136.406 130.69 131.796" fill="black"/>
<path d="M130.133 130.046C129.059 129.148 128.761 127.468 129.545 126.283C130.371 125.113 131.921 124.712 133.21 125.336C133.98 125.744 134.533 126.457 135.047 127.139C135.56 127.821 136.048 128.531 136.507 129.254C137.426 130.7 138.234 132.215 138.924 133.784C140.312 136.944 141.216 140.296 141.603 143.727C141.799 145.429 141.864 147.144 141.799 148.856C141.73 150.577 141.603 152.362 141.07 154.011C140.603 155.567 139.548 156.88 138.13 157.672C136.755 158.407 135.197 158.73 133.643 158.603C131.823 158.474 130.072 157.819 128.471 156.972C126.969 156.163 125.547 155.213 124.224 154.136C121.676 152.084 119.449 149.65 117.458 147.059C115.421 144.409 113.61 141.598 111.852 138.76C110.978 137.347 110.117 135.928 109.247 134.515C108.802 133.793 108.352 133.06 107.64 132.572C106.96 132.143 106.181 131.898 105.378 131.861C103.583 131.716 101.672 132.388 99.9294 131.743C99.2315 131.509 98.6486 131.019 98.2987 130.371C97.9902 129.778 98.1046 129.053 98.5809 128.584C98.9906 128.164 99.6158 127.927 100.139 128.28L100.039 127.888C99.2258 128.946 97.5598 128.901 96.5327 128.203C95.9667 127.832 95.6206 127.205 95.6076 126.528C95.6336 125.763 95.9914 125.047 96.5876 124.568C97.2276 123.986 98.1308 123.792 98.9533 124.06L98.7573 123.711C98.5241 124.46 97.7048 124.783 96.9757 124.736C96.0839 124.679 95.4626 124.015 95.296 123.158C95.1313 122.184 95.4802 121.194 96.2191 120.538C97.0031 119.828 98.0909 119.523 99.1317 119.495C100.613 119.456 102.046 119.95 103.432 120.418V119.871C102.391 120.162 101.411 119.072 101.527 118.07C101.654 116.943 102.781 116.155 103.847 116.069C105.121 115.965 106.356 116.583 107.315 117.378C108.177 118.12 108.907 119.003 109.471 119.991C110.707 122.069 111.478 124.393 112.464 126.594C113.557 129.03 114.787 131.402 116.15 133.697C118.856 138.29 122.084 142.554 125.77 146.404C127.463 148.168 129.38 149.846 131.709 150.691C132.808 151.083 134.165 151.386 135.323 151.083C136.409 150.792 136.997 149.867 137.113 148.795C137.232 147.672 136.903 146.557 136.587 145.493C136.182 144.119 135.736 142.758 135.249 141.408C134.28 138.712 133.159 136.075 131.889 133.507C131.578 132.877 131.258 132.253 130.929 131.635C130.758 131.312 130.27 131.598 130.441 131.92C131.801 134.485 133.01 137.128 134.063 139.834C134.592 141.198 135.081 142.577 135.529 143.972C135.744 144.639 135.95 145.31 136.144 145.985C136.32 146.528 136.451 147.085 136.536 147.651C136.652 148.607 136.585 149.793 135.654 150.334C135.111 150.651 134.445 150.647 133.837 150.593C133.216 150.535 132.604 150.403 132.015 150.201C129.619 149.377 127.671 147.582 125.96 145.777C120.411 139.898 115.919 133.106 112.681 125.699C111.721 123.497 110.949 121.175 109.616 119.16C108.346 117.241 106.18 115.24 103.691 115.532C102.56 115.652 101.582 116.371 101.129 117.414C100.717 118.469 101.141 119.666 102.125 120.228C102.566 120.488 103.094 120.559 103.589 120.424C103.709 120.387 103.79 120.276 103.79 120.151C103.79 120.025 103.709 119.914 103.589 119.877C102.168 119.397 100.696 118.897 99.1768 118.935C97.9478 118.958 96.6797 119.336 95.7722 120.193C94.9275 120.995 94.5455 122.17 94.757 123.315C94.9354 124.355 95.7721 125.157 96.8189 125.291C97.8557 125.42 98.9749 124.913 99.312 123.868C99.35 123.718 99.2636 123.566 99.116 123.521C97.3108 122.862 95.2646 124.403 95.049 126.228C94.8373 128.015 96.5014 129.264 98.1536 129.279C99.0672 129.303 99.9384 128.894 100.504 128.176C100.583 128.039 100.537 127.865 100.402 127.784C99.1532 126.947 97.5166 128.299 97.5284 129.638C97.5421 131.306 99.2728 132.321 100.739 132.513C102.646 132.76 104.616 132.033 106.486 132.641C107.364 132.927 107.946 133.55 108.434 134.311C108.922 135.071 109.349 135.796 109.806 136.541C111.64 139.54 113.477 142.541 115.517 145.406C117.524 148.223 119.729 150.918 122.297 153.246C123.58 154.415 124.957 155.478 126.413 156.424C128.002 157.449 129.716 158.338 131.554 158.819C133.239 159.289 135.02 159.299 136.711 158.846C138.276 158.427 139.653 157.49 140.615 156.186C141.689 154.671 142.005 152.772 142.183 150.965C142.372 149.166 142.413 147.354 142.307 145.547C141.988 140.111 140.402 134.825 137.675 130.111C137.224 129.337 136.743 128.58 136.233 127.841C135.733 127.078 135.173 126.357 134.557 125.685C134.003 125.066 133.256 124.652 132.438 124.509C131.708 124.408 130.964 124.533 130.307 124.868C128.946 125.574 128.249 127.123 128.622 128.611C128.78 129.325 129.167 129.967 129.723 130.442C130.002 130.673 130.403 130.275 130.115 130.05L130.133 130.046Z" fill="black"/>
<path d="M97.7049 142.935C93.7692 142.543 89.8021 142.014 86.0017 140.957V140.969C90.7098 143.696 95.8457 145.607 101.192 146.62C101.584 145.518 102.013 144.427 102.479 143.346C100.882 143.241 99.2905 143.097 97.7049 142.935Z" fill="black"/>
<path d="M97.7048 142.653C93.7848 142.261 89.8765 141.735 86.0781 140.693C85.928 140.653 85.7737 140.74 85.7292 140.889V140.902C85.6968 141.026 85.7494 141.156 85.8585 141.222C89.5368 143.35 93.4779 144.987 97.5813 146.092C98.7495 146.406 99.9255 146.676 101.109 146.902C101.259 146.937 101.41 146.852 101.458 146.706C101.841 145.623 102.26 144.553 102.715 143.497C102.763 143.41 102.763 143.303 102.713 143.216C102.663 143.129 102.572 143.074 102.471 143.072C100.878 142.966 99.2885 142.823 97.7009 142.662C97.3383 142.625 97.3422 143.192 97.7009 143.229C99.2885 143.39 100.878 143.533 102.471 143.638L102.226 143.213C101.751 144.311 101.312 145.425 100.911 146.555L101.26 146.359C97.1198 145.573 93.1003 144.248 89.3042 142.417C88.2275 141.895 87.1724 141.334 86.1388 140.736L86.2682 141.055V141.043L85.9213 141.239C89.7668 142.306 93.7358 142.825 97.6989 143.229C98.0674 143.256 98.0635 142.69 97.7048 142.653Z" fill="black"/>
<path d="M121.26 141.471C119.671 142.025 118.042 142.459 116.388 142.77C112.722 143.462 108.991 143.611 105.257 143.484C104.857 144.673 104.495 145.874 104.171 147.088L104.518 147.133C107.283 147.456 110.072 147.539 112.858 147.621C115.21 147.69 117.595 147.752 119.914 147.425C120.227 145.412 120.677 143.423 121.26 141.471V141.471Z" fill="black"/>
<path d="M121.184 141.198C117.217 142.57 113.032 143.143 108.836 143.229C107.64 143.254 106.445 143.241 105.249 143.201C105.122 143.204 105.011 143.288 104.975 143.409C104.583 144.598 104.221 145.8 103.891 147.014C103.869 147.099 103.888 147.189 103.941 147.258C103.994 147.328 104.075 147.37 104.163 147.372C106.221 147.639 108.299 147.749 110.372 147.825C112.446 147.901 114.488 147.99 116.535 147.952C117.691 147.936 118.846 147.85 119.992 147.694C120.089 147.67 120.164 147.594 120.188 147.498C120.504 145.487 120.954 143.5 121.535 141.549C121.64 141.198 121.094 141.049 120.99 141.398C120.407 143.348 119.957 145.336 119.643 147.347L119.839 147.151C117.828 147.433 115.79 147.417 113.763 147.364C111.737 147.311 109.659 147.257 107.613 147.125C106.462 147.053 105.312 146.955 104.169 146.808L104.441 147.166C104.767 145.954 105.129 144.752 105.527 143.562L105.255 143.77C109.492 143.909 113.779 143.705 117.92 142.737C119.074 142.469 120.213 142.142 121.333 141.757C121.678 141.626 121.531 141.079 121.184 141.198Z" fill="black"/>
<path d="M84.0259 164.657C84.5825 164.42 85.2292 164.592 85.5939 165.075C85.9313 165.599 85.849 166.288 85.3979 166.717L85.3195 166.784C85.2392 166.812 85.2372 166.833 85.3195 166.849C85.3313 166.872 85.3078 166.759 85.3078 166.739C85.3239 166.594 85.375 166.454 85.4567 166.333C85.7119 165.87 86.1594 165.544 86.6785 165.442C87.1977 165.341 87.7351 165.475 88.1459 165.808C88.2817 165.889 88.4572 165.844 88.5379 165.708C88.6158 165.571 88.5706 165.397 88.4359 165.316C87.7731 164.813 86.8953 164.695 86.1231 165.004C85.4724 165.273 84.7864 165.939 84.7315 166.68C84.708 167.008 84.8844 167.392 85.2588 167.386C85.6331 167.38 85.9428 166.994 86.1075 166.71C86.483 166.072 86.4414 165.272 86.0016 164.677C85.4933 164.046 84.6362 163.814 83.8789 164.103C83.7317 164.149 83.6458 164.302 83.6829 164.452C83.7275 164.6 83.8817 164.687 84.0318 164.648L84.0259 164.657Z" fill="white"/>
<path d="M108.744 163.627C107.824 163.903 107.399 164.865 107.287 165.747C107.226 166.245 107.266 166.786 107.568 167.204C107.846 167.566 108.269 167.788 108.726 167.813C109.675 167.893 110.551 167.16 110.937 166.337C111.113 165.961 111.133 165.385 110.629 165.257C110.076 165.114 109.702 165.8 109.43 166.159C109.255 166.386 109.008 166.635 109.087 166.943C109.159 167.223 109.431 167.362 109.675 167.48C110.263 167.768 110.872 168.027 111.489 168.264C111.831 168.391 111.978 167.844 111.638 167.719C111.246 167.573 110.859 167.413 110.476 167.241C110.292 167.158 110.108 167.072 109.925 166.982C109.849 166.948 109.774 166.908 109.702 166.864C109.624 166.81 109.639 166.821 109.69 166.749C109.81 166.578 109.941 166.418 110.068 166.253C110.165 166.085 110.295 165.939 110.451 165.824C110.506 165.794 110.484 165.796 110.496 165.824C110.502 165.866 110.497 165.909 110.482 165.949C110.44 166.097 110.369 166.235 110.274 166.357C109.925 166.878 109.357 167.337 108.693 167.247C108.406 167.217 108.148 167.059 107.991 166.817C107.832 166.498 107.784 166.134 107.854 165.784C107.936 165.153 108.23 164.377 108.898 164.177C109.247 164.071 109.094 163.527 108.747 163.63L108.744 163.627Z" fill="white"/>
<path d="M84.9864 169.948L87.409 169.422C87.5509 169.373 87.6303 169.223 87.5903 169.078C87.5504 168.933 87.4049 168.845 87.2581 168.875L84.8355 169.401C84.732 169.422 84.6491 169.5 84.6203 169.602C84.5916 169.703 84.6218 169.813 84.6987 169.885C84.7755 169.958 84.8864 169.982 84.9864 169.948Z" fill="white"/>
<path d="M85.4392 171.857L87.4384 171.635C87.593 171.632 87.7175 171.507 87.7207 171.353C87.7196 171.197 87.5942 171.071 87.4384 171.069L85.4392 171.296C85.2843 171.299 85.1592 171.423 85.155 171.578C85.1561 171.735 85.2827 171.861 85.4392 171.862V171.857Z" fill="white"/>
<path d="M107.691 161.949C108.147 162.119 108.648 162.122 109.106 161.959C109.246 161.909 109.324 161.759 109.285 161.616C109.246 161.473 109.103 161.384 108.957 161.412C108.859 161.449 108.758 161.477 108.655 161.494C108.638 161.494 108.549 161.523 108.62 161.494C108.598 161.496 108.576 161.496 108.553 161.494C108.502 161.497 108.45 161.497 108.399 161.494C108.346 161.497 108.294 161.497 108.242 161.494C108.242 161.494 108.155 161.494 108.23 161.494C108.201 161.494 108.171 161.494 108.142 161.48C108.04 161.458 107.94 161.43 107.842 161.394C107.692 161.353 107.537 161.44 107.495 161.59C107.458 161.74 107.544 161.893 107.691 161.939V161.949Z" fill="white"/>
<path d="M108.293 159.536C108.44 159.524 108.553 159.401 108.553 159.253C108.553 159.105 108.44 158.982 108.293 158.97C108.146 158.982 108.032 159.105 108.032 159.253C108.032 159.401 108.146 159.524 108.293 159.536Z" fill="white"/>
<path d="M113.928 143.827C114.797 145.048 115.777 146.186 116.856 147.227C117.119 147.48 117.518 147.08 117.248 146.835C116.204 145.829 115.256 144.729 114.416 143.548C114.334 143.414 114.16 143.368 114.024 143.446C113.958 143.485 113.911 143.548 113.892 143.621C113.872 143.695 113.883 143.773 113.922 143.838L113.928 143.827Z" fill="white"/>
<path d="M37.7092 96.2731C36.4705 97.0571 35.0299 98.0547 34.7045 99.5953C34.5941 99.9732 34.624 100.378 34.7888 100.736C34.9676 101.053 35.329 101.22 35.6865 101.152C36.0159 101.074 36.2203 100.744 36.1431 100.415C36.0804 100.115 35.7649 99.8266 35.4493 99.9814C35.0717 100.19 34.7519 100.489 34.5183 100.852C34.2574 101.226 34.0863 101.655 34.0185 102.106C33.9656 102.463 34.5124 102.618 34.5653 102.257C34.6127 101.916 34.7287 101.588 34.9064 101.293C34.9956 101.145 35.1008 101.008 35.22 100.883C35.3317 100.765 35.514 100.669 35.612 100.548C35.7021 100.506 35.6923 100.49 35.5826 100.501C35.5826 100.522 35.6218 100.558 35.5963 100.589C35.5277 100.667 35.3631 100.558 35.318 100.505C35.122 100.275 35.2259 99.8364 35.2964 99.5796C35.659 98.2801 36.933 97.451 38.0012 96.765C38.307 96.569 38.0247 96.079 37.7151 96.277L37.7092 96.2731Z" fill="white"/>
<path d="M27.4075 97.6L28.1915 96.6514C28.2423 96.5984 28.2723 96.5287 28.2757 96.4554C28.2734 96.3418 28.2036 96.2405 28.0983 96.1979C27.9929 96.1552 27.8723 96.1794 27.7916 96.2594L27.0076 97.208C26.9571 97.2612 26.9272 97.3307 26.9233 97.404C26.9247 97.4778 26.955 97.5482 27.0076 97.6C27.1178 97.7036 27.2895 97.7036 27.3996 97.6H27.4075Z" fill="white"/>
<path d="M30.8786 94.4405C30.8904 94.3934 30.9061 94.3484 30.9218 94.3033C30.9374 94.2582 30.9394 94.2582 30.9472 94.2347C30.9257 94.2954 30.9472 94.2229 30.957 94.2151C30.995 94.131 31.0389 94.0498 31.0884 93.972C31.1138 93.9309 31.1413 93.8917 31.1687 93.8525C31.1962 93.8133 31.202 93.8133 31.1687 93.8525L31.2138 93.7956C31.2752 93.7234 31.3406 93.6547 31.4098 93.5898L31.5196 93.4977L31.5803 93.4566C31.6564 93.4053 31.7356 93.3588 31.8175 93.3174L31.8822 93.288C31.9547 93.2527 31.8292 93.3076 31.9037 93.2782C31.9488 93.2606 31.9939 93.2429 32.039 93.2292C32.1306 93.2001 32.2243 93.1778 32.3192 93.1626C32.4685 93.1189 32.5556 92.9639 32.5152 92.8137C32.469 92.6664 32.3162 92.5805 32.1664 92.6177C31.278 92.7864 30.5594 93.4391 30.3063 94.3072C30.2671 94.4573 30.3537 94.6115 30.5023 94.6561C30.6521 94.6932 30.805 94.6073 30.8512 94.4601L30.8786 94.4405Z" fill="white"/>
<path d="M100.955 119.16C102.45 119.06 103.941 119.423 105.223 120.199C105.358 120.267 105.522 120.219 105.598 120.089C105.674 119.959 105.635 119.792 105.51 119.709C104.141 118.881 102.551 118.492 100.955 118.596C100.594 118.619 100.59 119.184 100.955 119.16Z" fill="white"/>
<path d="M87.7575 113.117C87.3637 113.078 87.002 113.338 86.9144 113.724C86.8267 114.11 87.0405 114.501 87.4129 114.635C87.7853 114.769 88.1993 114.605 88.3782 114.252C88.5572 113.899 88.4448 113.467 88.1162 113.247" fill="black"/>
<path d="M87.7576 112.833C87.3405 112.809 86.9454 113.022 86.7365 113.384C86.5243 113.744 86.5409 114.195 86.7789 114.538C87.017 114.882 87.4331 115.056 87.8449 114.984C88.2568 114.912 88.5891 114.607 88.6965 114.203C88.8144 113.75 88.6368 113.271 88.2515 113.004C88.1862 112.965 88.1079 112.953 88.0342 112.973C87.9605 112.992 87.8976 113.04 87.8595 113.106C87.7816 113.242 87.8268 113.416 87.9615 113.498C87.9321 113.468 88.0183 113.537 87.9615 113.498C87.9909 113.527 87.9869 113.519 87.9987 113.533L88.0281 113.562C88.0281 113.562 88.0751 113.615 88.0457 113.58C88.0163 113.545 88.0575 113.598 88.0595 113.601L88.083 113.637C88.083 113.648 88.0967 113.66 88.1026 113.674C88.1085 113.688 88.132 113.721 88.1026 113.674C88.1175 113.706 88.1287 113.739 88.1359 113.774C88.1401 113.787 88.1434 113.8 88.1457 113.813V113.837C88.1457 113.794 88.1457 113.854 88.1457 113.862C88.1467 113.876 88.1467 113.89 88.1457 113.903V113.944C88.1457 113.954 88.1457 114.037 88.1457 113.99C88.1457 113.942 88.1457 114.009 88.1457 114.013C88.1434 114.027 88.1401 114.041 88.1359 114.054C88.1359 114.066 88.1359 114.08 88.1241 114.093C88.1124 114.107 88.0947 114.156 88.1241 114.117C88.1535 114.078 88.1124 114.137 88.1104 114.138C88.1085 114.14 88.0967 114.164 88.0908 114.176L88.0771 114.197C88.0987 114.164 88.0595 114.217 88.0516 114.225C88.0309 114.248 88.0086 114.269 87.985 114.289C87.9458 114.325 87.985 114.289 87.9948 114.289C87.9817 114.301 87.9672 114.311 87.9517 114.319L87.8693 114.366C87.8125 114.399 87.9105 114.352 87.8693 114.366L87.8105 114.387L87.7204 114.409C87.6537 114.425 87.7655 114.409 87.7204 114.409H87.6694H87.5871C87.5773 114.409 87.5205 114.393 87.5616 114.409C87.6028 114.425 87.5381 114.409 87.5283 114.409C87.4977 114.403 87.468 114.393 87.4401 114.38C87.4577 114.38 87.495 114.415 87.4401 114.38C87.4244 114.372 87.4094 114.364 87.395 114.354L87.3597 114.331C87.3166 114.301 87.3597 114.331 87.3597 114.331C87.3253 114.308 87.2953 114.278 87.2715 114.244L87.2441 114.213C87.2441 114.213 87.2755 114.258 87.2441 114.213C87.2127 114.168 87.2069 114.154 87.1912 114.123C87.1854 114.11 87.1789 114.098 87.1716 114.086C87.1422 114.025 87.1853 114.127 87.1716 114.086C87.1579 114.044 87.1481 114.015 87.1402 113.976C87.1415 113.963 87.1415 113.95 87.1402 113.937C87.1559 113.956 87.1402 113.988 87.1402 113.95C87.1383 113.916 87.1383 113.881 87.1402 113.846C87.1383 113.833 87.1383 113.819 87.1402 113.805C87.1147 113.856 87.1402 113.837 87.1402 113.805C87.1483 113.767 87.1595 113.729 87.1735 113.692C87.1735 113.701 87.1481 113.745 87.1735 113.701C87.1828 113.682 87.1933 113.663 87.2049 113.645L87.2343 113.599L87.2225 113.615L87.2441 113.59C87.2707 113.561 87.2988 113.533 87.3284 113.507C87.3401 113.496 87.3695 113.48 87.3284 113.507L87.3813 113.47L87.4283 113.443L87.4636 113.425C87.4225 113.445 87.4871 113.425 87.4891 113.425L87.5518 113.405H87.593C87.6557 113.39 87.544 113.405 87.6028 113.405C87.6616 113.405 87.689 113.405 87.7321 113.405C87.888 113.405 88.0144 113.279 88.0144 113.123C88.0113 112.968 87.887 112.843 87.7321 112.839L87.7576 112.833Z" fill="black"/>
<path d="M91.2661 114.317C90.8725 114.275 90.5097 114.534 90.4203 114.919C90.3309 115.305 90.5428 115.697 90.9145 115.833C91.2861 115.969 91.7009 115.807 91.8816 115.454C92.0622 115.102 91.9521 114.671 91.6248 114.448" fill="black"/>
<path d="M91.2659 114.035C90.8493 114.011 90.4546 114.223 90.2448 114.583C90.0336 114.943 90.0505 115.393 90.2882 115.736C90.5259 116.079 90.9411 116.253 91.3524 116.182C91.7637 116.111 92.0962 115.808 92.2048 115.405C92.324 114.951 92.146 114.471 91.7599 114.205C91.6949 114.165 91.6166 114.154 91.5428 114.172C91.4689 114.191 91.4058 114.239 91.3679 114.305C91.2906 114.441 91.3347 114.614 91.4678 114.697C91.4384 114.668 91.5247 114.736 91.4678 114.697L91.5051 114.73L91.5345 114.76L91.5521 114.779C91.5227 114.746 91.5639 114.797 91.5678 114.801L91.5893 114.836C91.5966 114.848 91.6032 114.859 91.6089 114.872C91.6246 114.901 91.6383 114.921 91.6089 114.872C91.6232 114.904 91.6344 114.937 91.6423 114.971C91.6416 114.985 91.6416 114.998 91.6423 115.011C91.6423 115.011 91.6599 115.081 91.6423 115.034C91.6246 114.987 91.6423 115.052 91.6423 115.06C91.6413 115.073 91.6413 115.087 91.6423 115.101C91.6432 115.115 91.6432 115.128 91.6423 115.142C91.6423 115.142 91.6423 115.234 91.6423 115.187C91.6423 115.14 91.6423 115.207 91.6423 115.211C91.6423 115.215 91.6423 115.238 91.6325 115.25L91.6207 115.291C91.6207 115.291 91.5893 115.354 91.6109 115.314C91.6325 115.275 91.5991 115.334 91.5991 115.336L91.5776 115.373C91.5776 115.373 91.5403 115.434 91.5639 115.395C91.5874 115.356 91.5462 115.414 91.5403 115.422C91.5345 115.43 91.4953 115.465 91.4737 115.487C91.4521 115.509 91.4737 115.487 91.4737 115.487C91.4609 115.499 91.4464 115.509 91.4306 115.516L91.3502 115.561C91.2914 115.595 91.3894 115.55 91.3502 115.561L91.2914 115.581C91.2619 115.591 91.2318 115.599 91.2013 115.605C91.1346 115.62 91.2483 115.605 91.2013 115.605H91.1483H91.066C91.066 115.605 90.9994 115.589 91.0425 115.605L91.0092 115.595C90.9779 115.59 90.9474 115.581 90.919 115.567C90.9386 115.567 90.9739 115.603 90.919 115.567L90.8739 115.542L90.8406 115.518C90.7955 115.489 90.8406 115.518 90.8406 115.518C90.8051 115.496 90.7745 115.467 90.7505 115.432L90.723 115.401C90.723 115.401 90.7544 115.446 90.723 115.401C90.6917 115.356 90.6858 115.344 90.6681 115.313L90.6505 115.275C90.6211 115.215 90.6623 115.316 90.6505 115.275C90.6387 115.234 90.627 115.203 90.6191 115.166C90.6202 115.152 90.6202 115.138 90.6191 115.124C90.6348 115.144 90.6191 115.175 90.6191 115.138C90.6191 115.101 90.6191 115.069 90.6191 115.036C90.6182 115.022 90.6182 115.009 90.6191 114.995C90.5937 115.044 90.6191 115.026 90.6191 114.995C90.6275 114.957 90.6387 114.92 90.6525 114.883C90.627 114.936 90.6525 114.893 90.6525 114.883C90.6779 114.83 90.674 114.846 90.6838 114.828L90.7152 114.783C90.7269 114.766 90.7152 114.772 90.7034 114.797L90.723 114.774C90.7505 114.744 90.7799 114.717 90.8073 114.689C90.8347 114.662 90.8504 114.664 90.8073 114.689L90.8622 114.652L90.9073 114.625L90.9425 114.607L90.968 114.597L91.0307 114.579H91.0719C91.0229 114.579 91.1346 114.564 91.0719 114.579C91.1209 114.579 91.1581 114.579 91.2013 114.579C91.3582 114.579 91.4855 114.452 91.4855 114.295C91.4813 114.14 91.3562 114.016 91.2013 114.013L91.2659 114.035Z" fill="black"/>
<path d="M88.5456 116.906C88.152 116.865 87.7893 117.123 87.6998 117.509C87.6104 117.894 87.8224 118.286 88.194 118.422C88.5657 118.558 88.9805 118.396 89.1611 118.044C89.3418 117.691 89.2316 117.26 88.9043 117.037" fill="black"/>
<path d="M88.5456 116.624C88.129 116.6 87.7342 116.812 87.5244 117.173C87.3256 117.531 87.3508 117.972 87.5891 118.305C87.8275 118.653 88.2503 118.824 88.6632 118.741C89.0571 118.666 89.3766 118.378 89.4923 117.994C89.61 117.54 89.4324 117.06 89.0474 116.792C88.9819 116.754 88.9038 116.743 88.8302 116.762C88.7567 116.781 88.6938 116.829 88.6554 116.894C88.5785 117.031 88.6235 117.204 88.7573 117.286C88.7259 117.257 88.8122 117.323 88.7573 117.286L88.7965 117.322L88.8259 117.351L88.8435 117.371C88.8141 117.337 88.8553 117.388 88.8572 117.392L88.8808 117.427L88.9004 117.463C88.916 117.492 88.9278 117.512 88.9004 117.463C88.9152 117.494 88.9264 117.527 88.9337 117.561C88.9379 117.574 88.9411 117.588 88.9435 117.602C88.9435 117.602 88.9611 117.672 88.9435 117.625C88.9258 117.578 88.9435 117.643 88.9435 117.649C88.9445 117.663 88.9445 117.678 88.9435 117.692V117.733C88.9435 117.733 88.9435 117.823 88.9435 117.778C88.9435 117.733 88.9435 117.796 88.9435 117.802C88.9441 117.815 88.9441 117.828 88.9435 117.841L88.9317 117.88C88.9317 117.88 88.9023 117.943 88.9317 117.906C88.9611 117.868 88.92 117.923 88.918 117.927C88.9115 117.939 88.9043 117.951 88.8964 117.962C88.8964 117.962 88.8592 118.023 88.8847 117.986C88.9102 117.949 88.867 118.006 88.8592 118.011C88.839 118.035 88.8167 118.057 88.7926 118.076C88.7534 118.111 88.7926 118.076 88.7926 118.076C88.779 118.087 88.7646 118.097 88.7494 118.106L88.6671 118.151C88.6103 118.184 88.7083 118.137 88.6671 118.151L88.6083 118.172L88.5162 118.196C88.4515 118.211 88.5632 118.196 88.5162 118.196H88.4652C88.4378 118.196 88.4104 118.196 88.3829 118.196C88.3555 118.196 88.3143 118.18 88.3574 118.196L88.3241 118.186C88.2933 118.181 88.2634 118.171 88.2359 118.156C88.2536 118.156 88.2888 118.192 88.2359 118.156C88.2203 118.149 88.2052 118.141 88.1908 118.131L88.1556 118.109C88.1105 118.08 88.1556 118.109 88.1556 118.109C88.1262 118.1 88.087 118.047 88.0654 118.023C88.0438 118 88.038 117.994 88.0399 117.992C88.0419 117.99 88.0693 118.039 88.0399 117.992C88.0105 117.945 88.0027 117.933 87.987 117.904L87.9674 117.866C87.938 117.806 87.9792 117.908 87.9674 117.866C87.9556 117.825 87.9439 117.794 87.9341 117.757C87.9354 117.743 87.9354 117.729 87.9341 117.715C87.9517 117.735 87.9341 117.766 87.9341 117.729C87.9321 117.695 87.9321 117.66 87.9341 117.625C87.9322 117.612 87.9322 117.598 87.9341 117.584C87.9086 117.635 87.9341 117.616 87.9341 117.584C87.9435 117.546 87.9553 117.509 87.9694 117.472C87.9439 117.525 87.9694 117.472 87.9694 117.472L88.0007 117.416L88.0301 117.372C88.0419 117.355 88.0301 117.361 88.0184 117.386L88.0399 117.361C88.0665 117.332 88.0947 117.304 88.1242 117.278L88.1771 117.243L88.2242 117.216C88.2242 117.216 88.2967 117.18 88.2575 117.198C88.2183 117.216 88.281 117.198 88.2849 117.188L88.3457 117.171L88.3888 117.161C88.3398 117.161 88.4515 117.147 88.3888 117.161C88.4319 117.158 88.4751 117.158 88.5182 117.161C88.6655 117.149 88.7788 117.025 88.7788 116.878C88.7788 116.73 88.6655 116.607 88.5182 116.594L88.5456 116.624Z" fill="black"/>
<path d="M87.7794 110.928C90.7521 110.014 93.8784 109.709 96.9718 110.03C97.3344 110.07 97.3304 109.503 96.9718 109.466C93.8281 109.141 90.6512 109.452 87.6304 110.381C87.2835 110.489 87.4344 111.036 87.7794 110.928Z" fill="white"/>
<path d="M97.9713 110.413C98.1186 110.4 98.2319 110.277 98.2319 110.129C98.2319 109.981 98.1186 109.858 97.9713 109.846C97.824 109.858 97.7107 109.981 97.7107 110.129C97.7107 110.277 97.824 110.4 97.9713 110.413Z" fill="white"/>
<path d="M99.02 110.463C99.1759 110.463 99.3023 110.337 99.3023 110.181C99.3023 110.025 99.1759 109.899 99.02 109.899C98.8642 109.899 98.7378 110.025 98.7378 110.181C98.7378 110.337 98.8642 110.463 99.02 110.463Z" fill="white"/>
<path d="M99.1298 111.465C99.2771 111.453 99.3904 111.33 99.3904 111.182C99.3904 111.034 99.2771 110.911 99.1298 110.899C98.9825 110.911 98.8691 111.034 98.8691 111.182C98.8691 111.33 98.9825 111.453 99.1298 111.465Z" fill="white"/>
<path d="M131.732 111.734C132.794 113.694 133.773 115.705 135.139 117.474C135.8 118.359 136.588 119.14 137.479 119.793C138.036 120.185 138.62 120.552 139.194 120.92C139.586 121.175 139.978 121.426 140.389 121.663C140.644 121.834 140.92 121.97 141.211 122.067C141.564 122.153 141.714 121.608 141.36 121.52C141.284 121.502 141.212 121.473 141.146 121.434C141.001 121.361 140.858 121.279 140.717 121.196C140.378 121 140.046 120.793 139.717 120.583C139.163 120.232 138.618 119.868 138.069 119.509C136.242 118.315 134.988 116.445 133.92 114.583C133.332 113.552 132.789 112.492 132.22 111.447C132.046 111.128 131.558 111.414 131.732 111.734Z" fill="black"/>
<path d="M127.171 92.8078C127.776 92.7011 128.387 92.6304 129 92.5961C129.425 92.5961 129.855 92.6451 130.278 92.6863C131.44 92.796 132.601 92.9391 133.765 93.0254C134.127 93.0508 134.125 92.4864 133.765 92.4589C132.601 92.3727 131.44 92.2296 130.278 92.1198C129.859 92.0806 129.435 92.0316 129.014 92.0297C128.396 92.0631 127.781 92.1338 127.171 92.2414C126.813 92.2845 126.809 92.8509 127.171 92.8078Z" fill="black"/>
<path d="M87.7774 101.875C89.5241 100.561 91.7318 100.018 93.8887 100.371C94.2454 100.432 94.3983 99.8873 94.0396 99.8246C91.7343 99.4321 89.3687 99.9985 87.4912 101.393C87.2031 101.608 87.4912 102.1 87.7774 101.883V101.875Z" fill="black"/>
<path d="M106.999 100.026C108.386 99.7576 109.808 99.7191 111.207 99.9128C111.842 99.9924 112.468 100.133 113.077 100.332C113.592 100.509 114.09 100.783 114.376 101.261C114.46 101.387 114.626 101.425 114.756 101.349C114.886 101.273 114.935 101.109 114.866 100.975C114.182 99.8383 112.655 99.56 111.448 99.3797C109.92 99.1527 108.365 99.1872 106.848 99.4816C106.491 99.5502 106.642 100.097 106.999 100.026Z" fill="black"/>
<path d="M73.6633 98.2566C70.9037 101.275 68.2126 104.393 66.1311 107.915C64.1711 111.247 62.754 114.983 62.5227 118.841C63.5431 118.618 64.541 118.302 65.5039 117.898C66.5393 117.459 67.5399 116.942 68.4968 116.351C69.1965 112.235 70.7214 108.104 72.3541 104.258C73.9515 100.497 75.7684 96.6396 78.6261 93.7878L78.4595 93.825C76.6602 95.052 75.1353 96.6474 73.6633 98.2566Z" fill="black"/>
<path d="M53.4696 111.875C54.3189 109.981 55.6757 108.36 57.3896 107.19C57.7953 106.916 58.3167 106.508 58.8361 106.575C59.0392 106.587 59.2216 106.703 59.3182 106.883C59.3653 107.01 59.3025 107.245 59.1497 107.275C58.9968 107.304 58.8851 107.079 58.8811 106.945C58.8811 106.685 59.0771 106.449 59.2359 106.267C59.5923 105.866 59.9733 105.487 60.3766 105.132C61.2942 104.309 62.3412 103.643 63.4754 103.161C63.8066 103.023 63.6616 102.475 63.3245 102.616C62.0605 103.148 60.8966 103.891 59.8827 104.815C59.6377 105.036 59.4005 105.268 59.1712 105.505C58.9159 105.746 58.6908 106.017 58.5009 106.312C58.2285 106.788 58.2441 107.5 58.8008 107.772C59.328 108.031 59.8709 107.557 59.9003 107.024C59.9317 106.424 59.3515 106.032 58.8067 106.001C58.1324 105.959 57.5013 106.418 56.976 106.785C55.2348 107.992 53.8548 109.651 52.9835 111.583C52.8345 111.914 53.3226 112.202 53.4715 111.869L53.4696 111.875Z" fill="white"/>
<path d="M65.6999 101.887L65.7705 101.816C65.7971 101.791 65.8173 101.76 65.8293 101.726C65.8468 101.692 65.8549 101.654 65.8528 101.616C65.8551 101.578 65.847 101.54 65.8293 101.506C65.8178 101.472 65.7975 101.441 65.7705 101.416L65.7137 101.371C65.6699 101.347 65.6207 101.333 65.5706 101.332L65.4941 101.344C65.4471 101.356 65.4044 101.381 65.3707 101.416L65.3001 101.487C65.2731 101.511 65.2528 101.542 65.2413 101.577C65.2236 101.611 65.2155 101.649 65.2178 101.687C65.2151 101.724 65.2233 101.761 65.2413 101.794C65.2528 101.83 65.273 101.861 65.3001 101.887L65.3569 101.93C65.4004 101.955 65.4497 101.969 65.5 101.969L65.5745 101.959C65.622 101.946 65.6653 101.921 65.6999 101.887Z" fill="white"/>
<path d="M67.5365 100.565C67.6838 100.553 67.7971 100.43 67.7971 100.282C67.7971 100.134 67.6838 100.011 67.5365 99.999C67.3892 100.011 67.2759 100.134 67.2759 100.282C67.2759 100.43 67.3892 100.553 67.5365 100.565Z" fill="white"/>
<path d="M66.8347 102.6C66.9906 102.6 67.117 102.474 67.117 102.318C67.117 102.162 66.9906 102.035 66.8347 102.035C66.6789 102.035 66.5525 102.162 66.5525 102.318C66.5525 102.474 66.6789 102.6 66.8347 102.6Z" fill="white"/>
<path d="M132.779 108.039L134.326 111.712C134.761 112.745 135.215 113.807 136.019 114.613C136.388 114.99 136.828 115.29 137.315 115.495C137.734 115.669 138.428 115.887 138.804 115.528C139.373 114.975 139.086 113.151 138.044 113.476C137.456 113.66 137.575 114.411 137.742 114.848C137.95 115.399 138.293 115.889 138.739 116.273C139.014 116.51 139.416 116.11 139.131 115.881C138.837 115.631 138.592 115.328 138.41 114.987C138.34 114.856 137.975 114.121 138.214 114.021C138.375 113.956 138.465 114.26 138.481 114.356C138.507 114.536 138.507 114.719 138.481 114.899C138.449 115.117 138.377 115.173 138.151 115.15C137.95 115.125 137.752 115.074 137.563 114.999C135.911 114.368 135.249 112.482 134.623 110.993L133.32 107.888C133.181 107.559 132.632 107.704 132.773 108.039H132.779Z" fill="white"/>
<path d="M141.034 118.386L141.14 118.28C141.167 118.255 141.187 118.223 141.197 118.188C141.216 118.155 141.225 118.118 141.223 118.08C141.224 118.042 141.215 118.004 141.197 117.97C141.187 117.936 141.167 117.904 141.14 117.88L141.081 117.835C141.038 117.81 140.989 117.797 140.938 117.796L140.864 117.808C140.816 117.82 140.773 117.845 140.738 117.88L140.635 117.984C140.607 118.009 140.587 118.041 140.576 118.076C140.542 118.145 140.542 118.225 140.576 118.294C140.586 118.329 140.607 118.361 140.635 118.386L140.691 118.429C140.735 118.455 140.784 118.468 140.834 118.468L140.909 118.458C140.956 118.446 141 118.421 141.034 118.386Z" fill="white"/>
<path d="M142.003 116.51L141.897 116.616C141.87 116.641 141.85 116.672 141.838 116.706C141.821 116.74 141.813 116.778 141.815 116.816C141.812 116.854 141.82 116.892 141.838 116.926C141.85 116.96 141.87 116.991 141.897 117.016L141.956 117.061C141.998 117.086 142.047 117.099 142.097 117.098L142.173 117.088C142.221 117.075 142.264 117.05 142.299 117.016L142.403 116.91C142.43 116.885 142.45 116.854 142.461 116.82C142.479 116.786 142.488 116.748 142.487 116.71C142.488 116.672 142.479 116.635 142.461 116.602C142.45 116.567 142.43 116.535 142.403 116.51L142.346 116.467C142.302 116.441 142.253 116.428 142.203 116.428L142.128 116.438C142.081 116.45 142.037 116.475 142.003 116.51Z" fill="white"/>
<path d="M142.308 119.626C142.456 119.614 142.569 119.491 142.569 119.343C142.569 119.195 142.456 119.072 142.308 119.06C142.161 119.072 142.048 119.195 142.048 119.343C142.048 119.491 142.161 119.614 142.308 119.626Z" fill="white"/>
<path d="M144.353 119.621C145.801 120.716 147.55 121.341 149.364 121.41C149.729 121.424 149.729 120.857 149.364 120.844C147.65 120.771 146 120.173 144.637 119.131C144.349 118.911 144.067 119.403 144.353 119.621Z" fill="white"/>
<path d="M19.8672 65.1561C18.677 67.4476 18.1708 70.033 18.4089 72.6041C18.6363 74.9561 19.6104 77.463 21.8919 78.4998C22.8978 78.9893 24.0637 79.0313 25.1023 78.6154C26.1117 78.1803 26.8409 77.1964 26.7762 76.0674C26.7154 74.9992 25.7962 73.9114 24.6457 74.3034C23.4951 74.6954 23.1659 75.9459 23.2874 77.0357C23.5598 79.568 25.3238 81.6632 27.3838 83.0254C27.6895 83.2214 27.9718 82.7373 27.6699 82.5374C26.0784 81.4868 24.679 79.9894 24.0949 78.1313C23.8185 77.2591 23.5657 75.993 24.238 75.2305C24.5124 74.9189 24.9593 74.6954 25.3767 74.8268C25.8334 74.9718 26.1157 75.4481 26.1921 75.8969C26.3567 76.8769 25.7021 77.7648 24.8201 78.1215C23.9119 78.4565 22.9045 78.3917 22.0467 77.9432C20.0867 76.9749 19.2243 74.8248 18.995 72.7688C18.7236 70.2449 19.2007 67.6969 20.367 65.4423C20.5336 65.1189 20.0455 64.8327 19.877 65.1561H19.8672Z" fill="#FF773D"/>
<path d="M6.7039 83.8232C8.75522 86.4654 11.2145 88.7639 13.9892 90.6322C14.7732 91.1614 15.5834 91.6547 16.4196 92.112C16.7391 92.2864 17.0253 91.7984 16.7058 91.622C13.8041 90.0292 11.1753 87.9833 8.9187 85.5617C8.28236 84.8757 7.67737 84.1629 7.10374 83.4233C6.8803 83.1352 6.48242 83.539 6.71174 83.8153L6.7039 83.8232Z" fill="#FF773D"/>
<path d="M160.368 90.2441C163.96 88.7028 167.409 86.848 170.676 84.7012C171.599 84.0963 172.506 83.4671 173.396 82.8138C173.686 82.6021 173.396 82.1101 173.11 82.3257C169.954 84.6326 166.601 86.6572 163.09 88.3762C162.099 88.861 161.096 89.3183 160.082 89.7482C159.749 89.8913 160.035 90.3794 160.368 90.2363V90.2441Z" fill="#FF773D"/>
<path d="M137.212 53.5882C135.663 56.9855 134.251 60.4358 132.977 63.939C132.618 64.9333 132.269 65.9303 131.932 66.9299C131.817 67.2768 132.363 67.4238 132.479 67.0808C133.655 63.5777 134.973 60.1261 136.434 56.7262C136.846 55.7697 137.268 54.8184 137.7 53.8724C137.851 53.5431 137.363 53.257 137.212 53.5882Z" fill="#FF773D"/>
<path d="M78.6537 53.5235L78.2323 64.0546C78.2166 64.4192 78.783 64.4192 78.7987 64.0546L79.224 53.5235C79.2397 53.159 78.6733 53.1609 78.6595 53.5235H78.6537Z" fill="#FF773D"/>
<path d="M192.827 91.3692C191.991 94.5295 190.203 97.3558 187.704 99.464C186.468 100.518 185.076 101.374 183.578 102.002C182.236 102.559 180.687 103.064 179.223 102.727C178.592 102.58 178.012 102.253 177.712 101.657C177.383 101.003 177.567 100.207 177.996 99.6443C179.082 98.2233 181.185 98.7662 182.181 99.9932C183.271 101.336 183.357 103.292 182.922 104.893C182.487 106.494 181.501 107.927 180.287 109.06C177.471 111.712 173.529 112.496 169.837 113.049L168.369 113.256C168.01 113.305 168.163 113.844 168.52 113.801C172.549 113.245 176.877 112.625 180.127 109.962C181.546 108.827 182.636 107.334 183.282 105.636C183.896 103.933 183.943 101.912 183.055 100.289C182.196 98.7211 180.191 97.6706 178.474 98.5251C177.02 99.2464 176.444 101.304 177.636 102.518C178.715 103.615 180.576 103.521 181.948 103.159C183.639 102.697 185.239 101.951 186.681 100.954C189.603 98.9597 191.816 96.0886 193 92.7549C193.141 92.3485 193.265 91.9369 193.37 91.5201C193.412 91.3696 193.323 91.2143 193.172 91.1732C193.022 91.132 192.867 91.2207 192.826 91.3711L192.827 91.3692Z" fill="#FF773D"/>
<path d="M168.012 129.617C171.566 129.839 175.133 129.552 178.606 128.764C179.603 128.537 180.589 128.267 181.565 127.956C181.91 127.847 181.761 127.3 181.414 127.412C178.052 128.479 174.553 129.055 171.026 129.123C170.019 129.142 169.013 129.12 168.008 129.056C167.643 129.033 167.645 129.599 168.008 129.622L168.012 129.617Z" fill="#FF773D"/>
<path d="M161.691 142.443C163.98 142.729 166.303 142.543 168.518 141.896C168.866 141.794 168.714 141.247 168.369 141.351C166.202 141.981 163.929 142.16 161.691 141.878C161.33 141.831 161.334 142.398 161.691 142.443Z" fill="#FF773D"/>
<path d="M71.7601 157.805C70.4942 163.266 70.0372 168.882 70.4038 174.475C70.5057 176.031 70.6717 177.58 70.9016 179.122C70.9546 179.483 71.5014 179.33 71.4485 178.973C70.6459 173.518 70.6459 167.974 71.4485 162.519C71.6732 160.988 71.9614 159.467 72.3128 157.956C72.3952 157.601 71.8503 157.451 71.768 157.805H71.7601Z" fill="#FF773D"/>
<path d="M64.2025 164.207C63.897 167.604 64.0017 171.026 64.5142 174.399C64.569 174.757 65.1139 174.604 65.061 174.248C64.5602 170.926 64.4621 167.556 64.769 164.211C64.8003 163.848 64.2358 163.85 64.2025 164.211V164.207Z" fill="#FF773D"/>
<path d="M127.361 169.581L128.341 179.659L128.624 182.533C128.659 182.891 129.225 182.895 129.19 182.533L128.2 172.452L127.918 169.581C127.883 169.22 127.316 169.218 127.352 169.581H127.361Z" fill="#FF773D"/>
<path d="M134.337 172.737L134.97 178.421C135.009 178.779 135.576 178.783 135.535 178.421L134.904 172.737C134.864 172.38 134.298 172.376 134.337 172.737Z" fill="#FF773D"/>
</svg>
