<svg width="326" height="337" viewBox="0 0 326 337" fill="none" xmlns="http://www.w3.org/2000/svg">
<path d="M254.224 77.6567L262.595 109.012C272.342 145.521 300.859 174.037 337.368 183.785L368.723 192.156C373.655 193.472 373.655 200.47 368.723 201.787L337.368 210.158C300.859 219.905 272.342 248.421 262.595 284.931L254.224 316.286C252.908 321.217 245.91 321.217 244.593 316.286L236.222 284.931C226.475 248.421 197.959 219.905 161.449 210.158L130.094 201.787C125.163 200.47 125.163 193.472 130.094 192.156L161.449 183.785C197.959 174.037 226.475 145.521 236.222 109.012L244.593 77.6567C245.91 72.7251 252.908 72.7251 254.224 77.6567Z" fill="white" stroke="black" stroke-width="0.90625"/>
<path d="M170.144 19.8573L178.515 51.2125C188.262 87.7219 216.778 116.238 253.288 125.985L284.643 134.356C289.574 135.673 289.574 142.671 284.643 143.988L253.288 152.359C216.778 162.106 188.262 190.622 178.515 227.131L170.144 258.486C168.827 263.418 161.829 263.418 160.512 258.486L152.141 227.131C142.394 190.622 113.878 162.106 77.3687 152.359L46.0136 143.988C41.082 142.671 41.082 135.673 46.0136 134.356L77.3687 125.985C113.878 116.238 142.394 87.7219 152.141 51.2125L160.512 19.8573C161.829 14.9257 168.827 14.9257 170.144 19.8573Z" stroke="black" stroke-width="0.90625"/>
<path d="M277.243 17.922L278.047 25.8651C278.806 33.3606 284.733 39.2878 292.229 40.0466L300.172 40.8507C301.802 41.0157 301.802 43.3906 300.172 43.5556L292.229 44.3597C284.733 45.1184 278.806 51.0457 278.047 58.5411L277.243 66.4843C277.078 68.1142 274.703 68.1142 274.538 66.4843L273.734 58.5411C272.975 51.0457 267.048 45.1184 259.553 44.3597L251.609 43.5556C249.98 43.3906 249.98 41.0157 251.61 40.8507L259.553 40.0466C267.048 39.2878 272.975 33.3606 273.734 25.8651L274.538 17.922C274.703 16.2921 277.078 16.292 277.243 17.922Z" fill="white" stroke="black" stroke-width="0.90625"/>
<path d="M14.6675 94.728C20.5134 94.1362 25.1362 89.5134 25.7279 83.6675C25.8431 82.5299 27.5006 82.5299 27.6158 83.6675C28.2076 89.5134 32.8304 94.1362 38.6762 94.728C39.8138 94.8431 39.8138 96.5007 38.6762 96.6158C32.8304 97.2076 28.2076 101.83 27.6158 107.676C27.5006 108.814 25.8431 108.814 25.7279 107.676C25.1362 101.83 20.5134 97.2076 14.6675 96.6158C13.5299 96.5007 13.5299 94.8431 14.6675 94.728Z" fill="white" stroke="black" stroke-width="0.90625"/>
</svg>
